# Blender v2.93.1 OBJ File: 'NewPlayerHomeBed2.blend'
# www.blender.org
mtllib Banana.mtl
o SingleBanana_Cylinder.020
v -0.000753 -0.472381 -0.030908
v -0.008927 -0.472381 -0.030921
v -0.008918 -0.189501 0.004255
v -0.000753 -0.189501 0.004275
v 0.060150 -0.472381 0.019331
v 0.057396 -0.472381 0.011340
v 0.057440 -0.189501 0.046555
v 0.060152 -0.189501 0.054508
v 0.031245 -0.472381 0.092747
v 0.037990 -0.472381 0.087532
v 0.037975 -0.189501 0.122763
v 0.031254 -0.189501 0.127930
v -0.047693 -0.472381 0.087518
v -0.040937 -0.472381 0.092747
v -0.040941 -0.189501 0.127930
v -0.047680 -0.189501 0.122744
v -0.067071 -0.472381 0.011323
v -0.069850 -0.472381 0.019328
v -0.069852 -0.189501 0.054503
v -0.067106 -0.189501 0.046531
v -0.000754 -0.284501 0.004274
v -0.008922 -0.284501 0.004258
v 0.057428 -0.284501 0.046546
v 0.060152 -0.284501 0.054509
v 0.037977 -0.284501 0.122754
v 0.031251 -0.284501 0.127930
v -0.040941 -0.284501 0.127930
v -0.047681 -0.284501 0.122739
v -0.069851 -0.284501 0.054505
v -0.067099 -0.284501 0.046526
v -0.000750 -0.553293 -0.054023
v -0.008931 -0.553293 -0.054035
v 0.040702 -0.553293 -0.017917
v 0.037902 -0.553293 -0.025941
v 0.019217 -0.553293 0.032637
v 0.025990 -0.553293 0.027363
v -0.035692 -0.553293 0.027350
v -0.028909 -0.553293 0.032637
v -0.047579 -0.553293 -0.025956
v -0.050401 -0.553293 -0.017919
v 0.041449 -0.082796 0.024423
v 0.044162 -0.082796 0.032380
v -0.008916 -0.082796 -0.006260
v -0.000748 -0.082796 -0.006234
v 0.028098 -0.082796 0.081820
v 0.021371 -0.082796 0.087003
v -0.031056 -0.082796 0.087003
v -0.037804 -0.082796 0.081796
v -0.053862 -0.082796 0.032375
v -0.051106 -0.082796 0.024393
v 0.015004 -0.015066 -0.002263
v 0.017711 -0.015066 0.005694
v -0.008915 -0.015066 -0.013734
v -0.000738 -0.015066 -0.013701
v 0.011754 -0.015066 0.024028
v 0.005025 -0.015066 0.029220
v -0.014705 -0.015066 0.029220
v -0.021463 -0.015066 0.023995
v -0.027412 -0.015066 0.005687
v -0.024647 -0.015066 -0.002304
v -0.000672 -0.597234 -0.041592
v -0.009027 -0.597234 -0.041592
v -0.008933 -0.587770 -0.041244
v -0.000749 -0.587770 -0.041233
v 0.005655 -0.597234 -0.036996
v 0.009386 -0.587770 -0.033869
v 0.011396 -0.588762 -0.026055
v 0.008143 -0.597507 -0.028891
v 0.005913 -0.597507 -0.022028
v 0.007885 -0.588762 -0.015251
v -0.000838 -0.592559 -0.014510
v -0.015612 -0.597507 -0.022028
v -0.008856 -0.592559 -0.014510
v -0.017588 -0.588762 -0.015263
v -0.017842 -0.597507 -0.028891
v -0.021095 -0.588762 -0.026058
v -0.019064 -0.587770 -0.033884
v -0.015353 -0.597234 -0.036996
v 0.010564 0.000240 -0.008288
v 0.013248 0.000240 -0.000347
v -0.008914 0.000240 -0.016533
v -0.000725 0.000240 -0.016489
v 0.008987 0.000240 0.012765
v 0.002269 0.000240 0.017932
v -0.011943 0.000240 0.017932
v -0.018700 0.000240 0.012721
v -0.022949 0.000240 -0.000357
v -0.020189 0.000240 -0.008341
v 0.008082 0.041244 -0.015252
v 0.010747 0.041244 -0.007328
v -0.004064 0.041244 -0.018172
v 0.004143 0.041244 -0.018114
v 0.002109 0.046180 0.003112
v 0.002542 0.036572 0.004092
v 0.009284 0.041244 -0.002826
v -0.004452 0.046180 0.003112
v -0.011302 0.045704 -0.001720
v -0.010390 0.036504 -0.001083
v -0.003619 0.036572 0.004092
v -0.013360 0.045704 -0.008055
v -0.007997 0.041244 -0.015314
v -0.012161 0.036504 -0.006531
v 0.008533 0.062903 -0.019615
v 0.006989 0.067828 -0.015623
v 0.011190 0.062833 -0.011681
v -0.002104 0.062903 -0.027343
v -0.010461 0.063383 -0.027615
v -0.007683 0.067828 -0.026283
v 0.007171 0.062833 0.000688
v 0.001385 0.067828 0.001624
v 0.000476 0.062893 0.005823
v -0.012479 0.062893 0.005823
v -0.016750 0.067828 0.001624
v -0.019786 0.063368 0.001145
v -0.023933 0.063368 -0.011617
v -0.022354 0.067828 -0.015623
v -0.021250 0.063383 -0.019776
v -0.000672 -0.597855 -0.041884
v -0.004849 -0.602530 -0.040930
v -0.009027 -0.597855 -0.041883
v 0.005655 -0.597855 -0.037287
v 0.008143 -0.597582 -0.028926
v 0.003954 -0.602530 -0.034534
v 0.005913 -0.597582 -0.022063
v -0.000835 -0.598003 -0.017062
v 0.000592 -0.602530 -0.024185
v -0.008858 -0.598003 -0.017062
v -0.015612 -0.597582 -0.022063
v -0.010290 -0.602530 -0.024185
v -0.017842 -0.597582 -0.028926
v -0.015353 -0.597855 -0.037287
v -0.013653 -0.602530 -0.034534
vt 0.187010 0.750000
vt 0.187030 1.000000
vt 0.012223 1.000000
vt 0.012234 0.750000
vt 0.587725 0.500000
vt 0.587740 0.750000
vt 0.412282 0.750000
vt 0.412292 0.500000
vt 0.386636 0.500000
vt 0.386732 0.750000
vt 0.212362 0.750000
vt 0.212377 0.500000
vt 0.787629 0.750000
vt 0.787632 1.000000
vt 0.613206 1.000000
vt 0.613227 0.750000
vt 0.982604 0.500000
vt 0.818567 0.500000
vt 0.838255 0.500000
vt 0.957518 0.500000
vt 0.182890 1.000000
vt 0.016078 1.000000
vt 0.412281 1.000000
vt 0.587746 1.000000
vt 0.583872 1.000000
vt 0.416174 1.000000
vt 0.987694 0.500000
vt 0.987698 0.750000
vt 0.812909 0.750000
vt 0.813005 0.500000
vt 0.217484 0.500000
vt 0.380913 0.500000
vt 0.417392 0.500000
vt 0.582629 0.500000
vt 0.787615 0.500000
vt 0.613329 0.500000
vt 0.619042 0.500000
vt 0.782506 0.500000
vt 0.186925 0.500000
vt 0.012249 0.500000
vt 0.017324 0.500000
vt 0.181342 0.500000
vt 0.642067 0.500000
vt 0.753780 0.500000
vt 0.212357 1.000000
vt 0.386745 1.000000
vt 0.382486 1.000000
vt 0.216270 1.000000
vt 0.783711 1.000000
vt 0.617433 1.000000
vt 0.812871 1.000000
vt 0.987694 1.000000
vt 0.983783 1.000000
vt 0.816947 1.000000
vt 0.835482 1.000000
vt 0.965933 1.000000
vt 0.958067 1.000000
vt 0.843294 1.000000
vt 0.433926 1.000000
vt 0.566200 1.000000
vt 0.558552 1.000000
vt 0.441651 1.000000
vt 0.164057 1.000000
vt 0.033690 1.000000
vt 0.363168 1.000000
vt 0.234115 1.000000
vt 0.765835 1.000000
vt 0.636598 1.000000
vt 0.932754 1.000000
vt 0.868802 1.000000
vt 0.246194 0.500000
vt 0.357820 0.500000
vt 0.042294 0.500000
vt 0.161530 0.500000
vt 0.455846 0.500000
vt 0.544213 0.500000
vt 0.538370 1.000000
vt 0.460917 1.000000
vt 0.354933 1.000000
vt 0.241833 1.000000
vt 0.758086 1.000000
vt 0.644685 1.000000
vt 0.943094 0.500000
vt 0.856906 0.500000
vt 0.856906 0.500000
vt 0.943094 0.500000
vt 0.155961 1.000000
vt 0.041329 1.000000
vt 0.670941 1.000000
vt 0.733102 1.000000
vt 0.755840 1.000000
vt 0.646728 1.000000
vt 0.334448 1.000000
vt 0.262426 1.000000
vt 0.956763 1.000000
vt 0.846858 1.000000
vt 0.129811 1.000000
vt 0.065967 1.000000
vt 0.750000 0.393913
vt 0.886869 0.294471
vt 0.834590 0.133572
vt 0.665410 0.133572
vt 0.613131 0.294471
vt 0.412965 0.302950
vt 0.250000 0.421351
vt 0.087035 0.302951
vt 0.149282 0.111374
vt 0.350718 0.111374
vt 0.154769 1.000000
vt 0.043984 1.000000
vt 0.461177 1.000000
vt 0.540556 1.000000
vt 0.554937 1.000000
vt 0.446548 1.000000
vt 0.259859 1.000000
vt 0.341066 1.000000
vt 0.356143 1.000000
vt 0.244643 1.000000
vt 0.455818 0.500000
vt 0.544239 0.500000
vt 0.739766 0.500000
vt 0.660233 0.500000
vt 0.660233 0.500000
vt 0.739766 0.500000
vt 0.339767 0.500000
vt 0.260234 0.500000
vt 0.260234 0.500000
vt 0.339767 0.500000
vt 0.143094 0.500000
vt 0.056906 0.500000
vt 0.056906 0.500000
vt 0.143094 0.500000
vt -0.022531 0.500000
vt 0.000000 0.500000
vt 0.044126 0.500000
vt 0.000000 0.500000
vt 0.828604 1.000000
vt 0.800000 1.000000
vt -0.015416 1.000000
vt 0.040137 1.000000
vt 0.028604 1.000000
vt 0.628604 1.000000
vt 0.600000 1.000000
vt 0.428604 1.000000
vt 0.400000 1.000000
vt 0.228604 1.000000
vt 0.200000 1.000000
vt 0.959964 0.500000
vt 1.000000 0.500000
vt 0.800000 0.500000
vt 0.840037 0.500000
vt 0.618613 0.500000
vt 0.559964 0.500000
vt 0.420608 0.500000
vt 0.364086 0.500000
vt 0.359964 0.500000
vt 0.200000 0.500000
vt 0.240036 0.500000
vt 0.000000 1.000000
vt 0.000000 0.750000
vt 0.000000 0.500717
vt 0.000000 0.500000
vt 0.000000 0.500000
vt 0.000000 1.000000
vt 0.000000 1.000000
vt 0.000000 1.000000
vt 0.000000 1.000000
vt 0.971396 1.000000
vt 0.771396 1.000000
vt 0.571396 1.000000
vt 0.371396 1.000000
vt 0.171396 1.000000
vt 0.000000 1.000000
vt 0.640036 0.500000
vt 0.759964 0.500000
vt 0.440037 0.500000
vt 0.040036 0.500000
vt 0.159964 0.500000
vt 0.000000 0.500000
vt 0.000000 0.500000
vn -0.6924 0.0891 -0.7160
vn -0.6392 -0.0310 -0.7684
vn -0.5330 -0.0414 -0.8451
vn -0.4655 0.1092 -0.8783
vn 0.1485 -0.3229 0.9347
vn 0.1490 -0.1221 0.9813
vn -0.1494 -0.1221 0.9812
vn -0.1489 -0.3229 0.9346
vn -0.8809 -0.1850 0.4356
vn -0.8976 -0.0544 0.4374
vn -0.9861 -0.0205 0.1647
vn -0.9820 -0.1043 0.1572
vn 0.9860 -0.0206 0.1656
vn 0.9655 0.0962 0.2419
vn 0.9230 0.1130 0.3679
vn 0.8977 -0.0544 0.4373
vn 0.5140 0.1325 -0.8475
vn 0.6513 0.0809 -0.7545
vn 0.6577 -0.3467 -0.6687
vn 0.4453 -0.2734 -0.8526
vn -0.6393 -0.0310 -0.7684
vn -0.6513 -0.0524 -0.7570
vn -0.5173 -0.0868 -0.8514
vn -0.0690 0.1896 0.9794
vn 0.0688 0.1895 0.9795
vn 0.0776 0.4665 0.8811
vn -0.0779 0.4665 0.8811
vn 0.4556 0.1865 -0.8704
vn 0.4662 0.1092 -0.8779
vn 0.6926 0.0890 -0.7158
vn 0.6928 0.1383 -0.7078
vn -0.8809 -0.1851 0.4356
vn -0.8920 -0.4035 0.2038
vn -0.8147 -0.4674 0.3433
vn -0.1488 -0.3229 0.9347
vn -0.0697 -0.6500 0.7567
vn 0.0695 -0.6500 0.7568
vn 0.9819 -0.1045 0.1580
vn 0.8810 -0.1850 0.4354
vn 0.8147 -0.4673 0.3432
vn 0.8918 -0.4036 0.2042
vn -0.6926 0.1384 -0.7079
vn -0.4549 0.1866 -0.8708
vn -0.5137 0.1325 -0.8477
vn -0.6512 0.0809 -0.7546
vn 0.6486 -0.6902 0.3208
vn 0.7692 -0.6271 0.1224
vn -0.9657 0.0961 0.2413
vn -0.9229 0.1130 0.3680
vn -0.8771 0.3105 0.3666
vn -0.9407 0.2603 0.2176
vn 0.9405 0.2605 0.2184
vn 0.8772 0.3104 0.3664
vn 0.6393 -0.0310 -0.7683
vn 0.5334 -0.0414 -0.8448
vn 0.5179 -0.0867 -0.8510
vn 0.6514 -0.0524 -0.7569
vn -0.6926 0.1383 -0.7079
vn 0.6824 -0.0296 -0.7304
vn 0.4822 -0.1033 -0.8700
vn 0.3591 -0.1074 -0.9271
vn 0.7748 -0.0535 -0.6299
vn 0.5334 -0.0414 -0.8449
vn -0.0996 0.6535 0.7504
vn 0.0991 0.6534 0.7505
vn 0.2413 0.4504 0.8596
vn -0.2320 0.4831 0.8443
vn -0.6822 -0.0298 -0.7306
vn -0.4809 -0.1034 -0.8706
vn -0.0779 0.4666 0.8811
vn 0.0775 0.4665 0.8811
vn -0.9407 0.2604 0.2176
vn -0.8770 0.3105 0.3666
vn -0.7883 0.4933 0.3678
vn -0.8983 0.4065 0.1669
vn 0.8979 0.4069 0.1683
vn 0.7886 0.4931 0.3675
vn 0.7748 -0.0535 -0.6300
vn 0.3262 -0.1545 -0.9326
vn 0.7933 -0.0828 -0.6032
vn -0.7694 -0.6271 0.1219
vn -0.6485 -0.6903 0.3209
vn -0.6512 0.0810 -0.7546
vn -0.4448 -0.2735 -0.8529
vn -0.6576 -0.3466 -0.6688
vn 0.4822 -0.1033 -0.8699
vn 0.0695 -0.6499 0.7568
vn -0.0697 -0.6500 0.7568
vn -0.0987 -0.7725 0.6273
vn 0.0985 -0.7725 0.6274
vn -0.2319 0.4831 0.8443
vn 0.2878 0.3118 0.9055
vn -0.2853 0.3442 0.8945
vn -0.7711 0.4077 0.4891
vn -0.9546 0.2957 0.0364
vn 0.7885 0.4931 0.3675
vn 0.9872 0.1537 0.0420
vn 0.8051 0.3023 0.5103
vn 0.3382 0.0604 -0.9391
vn 0.7888 -0.0890 -0.6082
vn 0.6516 -0.4882 -0.5807
vn 0.3748 -0.3921 -0.8401
vn -0.7691 0.0658 -0.6357
vn -0.3560 -0.0571 -0.9327
vn 0.8175 0.1323 0.5605
vn 0.9994 0.0348 0.0089
vn 0.9813 0.1880 0.0421
vn 0.8318 0.2036 0.5163
vn -0.7791 0.3137 0.5427
vn -0.9715 0.2372 -0.0023
vn 0.8051 0.3022 0.5103
vn 0.9994 0.0348 0.0090
vn 0.3263 -0.1545 -0.9326
vn 0.3595 -0.0899 -0.9288
vn 0.7758 0.0593 -0.6282
vn -0.7862 -0.1220 -0.6058
vn -0.3212 -0.1686 -0.9319
vn -0.0000 -0.9477 -0.3192
vn 0.2843 -0.9547 -0.0874
vn 0.1560 -0.9666 0.2033
vn -0.1560 -0.9666 0.2034
vn -0.2843 -0.9547 -0.0874
vn 0.1883 0.9802 -0.0607
vn 0.0074 0.9799 -0.1996
vn -0.1895 0.9800 -0.0613
vn -0.1117 0.9797 0.1665
vn 0.1175 0.9803 0.1588
vn -0.7862 -0.1220 -0.6059
vn -0.7221 -0.3567 -0.5927
vn -0.3371 -0.2834 -0.8978
vn -0.2952 -0.1787 0.9386
vn 0.3170 -0.0654 0.9462
vn 0.2762 0.0978 0.9561
vn -0.2367 -0.0380 0.9708
vn -0.8948 -0.4463 -0.0067
vn -0.7613 -0.3286 0.5590
vn -0.8099 -0.2479 0.5317
vn -0.9374 -0.3461 0.0383
vn -0.1595 -0.6872 0.7088
vn 0.1596 -0.6872 0.7087
vn 0.9372 -0.3485 0.0105
vn 0.7042 -0.4944 0.5096
vn 0.5976 -0.6890 0.4101
vn 0.7261 -0.6825 0.0834
vn -0.7043 -0.4942 0.5097
vn -0.9374 -0.3481 0.0097
vn -0.7260 -0.6826 0.0832
vn -0.5976 -0.6890 0.4101
vn -0.7887 -0.0886 -0.6084
vn -0.3376 0.0604 -0.9394
vn -0.3748 -0.3921 -0.8401
vn -0.6516 -0.4881 -0.5807
vn 0.3381 0.0603 -0.9392
vn -0.3375 0.0604 -0.9394
vn -0.4447 -0.2736 -0.8529
vn 0.4453 -0.2735 -0.8526
vn 0.6577 -0.3468 -0.6687
vn 0.7692 -0.6271 0.1225
vn 0.9372 -0.3485 0.0104
vn 0.7043 -0.4944 0.5095
vn 0.6485 -0.6903 0.3208
vn -0.7042 -0.4942 0.5097
vn -0.9374 -0.3481 0.0098
vn 0.3169 -0.0653 0.9462
vn 0.2878 0.3117 0.9055
vn -0.7613 -0.3287 0.5590
vn -0.3372 -0.2834 -0.8978
vn 0.0074 0.9799 -0.1995
vn 0.8318 0.2037 0.5163
vn -0.1116 0.9797 0.1665
vn -0.7221 -0.3567 -0.5928
vn 0.3747 -0.3921 -0.8401
vn 0.0001 -0.9477 -0.3191
vn -0.3747 -0.3921 -0.8401
vn 0.6516 -0.4881 -0.5806
vn 0.7260 -0.6826 0.0832
vn 0.5976 -0.6890 0.4100
vn 0.1595 -0.6872 0.7087
vn -0.5975 -0.6890 0.4101
vn -0.6516 -0.4881 -0.5806
vn -0.1488 -0.3229 0.9346
vn -0.1494 -0.1220 0.9812
vn -0.6924 0.0890 -0.7160
vn -0.9657 0.0961 0.2414
vn -0.5137 0.1326 -0.8477
vn 0.9404 0.2605 0.2184
vn 0.0688 0.1896 0.9795
vn 0.5180 -0.0868 -0.8510
vn -0.9229 0.1131 0.3680
vn -0.0690 0.1895 0.9794
vn -0.0996 0.6534 0.7504
vn -0.7883 0.4932 0.3678
vn -0.6821 -0.0297 -0.7306
vn 0.6514 -0.0523 -0.7569
vn 0.8978 0.4069 0.1683
vn 0.9405 0.2605 0.2183
vn -0.7042 -0.4943 0.5097
vn -0.6576 -0.3466 -0.6689
vn -0.4447 -0.2735 -0.8529
vn -0.4448 -0.2735 -0.8528
vn 0.6486 -0.6903 0.3208
vn 0.8147 -0.4673 0.3433
vn 0.8919 -0.4036 0.2042
vn 0.4822 -0.1034 -0.8700
vn -0.3561 -0.0570 -0.9327
vn -0.7711 0.4077 0.4890
vn -0.2852 0.3442 0.8945
vn -0.8949 -0.4463 -0.0067
vn -0.9546 0.2958 0.0364
vn -0.3212 -0.1687 -0.9319
vn 0.9994 0.0347 0.0090
vn 0.0073 0.9799 -0.1996
vn -0.8099 -0.2478 0.5316
vn -0.1895 0.9800 -0.0612
vn -0.7221 -0.3568 -0.5927
vn 0.0073 0.9799 -0.1995
vn -0.1560 -0.9666 0.2033
vn 0.1560 -0.9666 0.2034
vn -0.6515 -0.4881 -0.5807
vn -0.5975 -0.6890 0.4102
vn 0.6516 -0.4882 -0.5806
vn 0.9372 -0.3486 0.0104
vn 0.7260 -0.6826 0.0833
vn 0.3381 0.0604 -0.9392
vn -0.3747 -0.3922 -0.8401
usemtl Banana
s off
f 30/1/1 20/2/2 3/3/3 22/4/4
f 9/5/5 26/6/6 27/7/7 14/8/8
f 13/9/9 28/10/10 29/11/11 18/12/12
f 24/13/13 8/14/14 11/15/15 25/16/16
f 31/17/17 34/18/18 66/19/19 64/20/20
f 3/3/3 20/2/21 50/21/22 43/22/23
f 15/23/24 12/24/25 46/25/26 47/26/27
f 1/27/28 21/28/29 23/29/30 6/30/31
f 13/9/32 18/12/12 40/31/33 37/32/34
f 9/5/5 14/8/35 38/33/36 35/34/37
f 5/35/38 10/36/39 36/37/40 33/38/41
f 17/39/42 2/40/43 32/41/44 39/42/45
f 33/38/41 36/37/40 70/43/46 67/44/47
f 19/45/48 16/46/49 48/47/50 49/48/51
f 11/15/15 8/14/14 42/49/52 45/50/53
f 7/51/54 4/52/55 44/53/56 41/54/57
f 17/39/58 30/1/1 22/4/4 2/40/43
f 51/55/59 54/56/60 82/57/61 79/58/62
f 5/35/38 24/13/13 25/16/16 10/36/39
f 21/28/29 4/52/63 7/51/54 23/29/30
f 26/6/6 12/24/25 15/23/24 27/7/7
f 28/10/10 16/46/49 19/45/48 29/11/11
f 57/59/64 56/60/65 84/61/66 85/62/67
f 43/22/23 50/21/22 60/63/68 53/64/69
f 47/26/70 46/25/71 56/60/65 57/59/64
f 49/48/72 48/47/73 58/65/74 59/66/75
f 45/50/53 42/49/52 52/67/76 55/68/77
f 79/58/78 82/57/61 92/69/79 89/70/80
f 37/32/34 40/31/33 76/71/81 74/72/82
f 39/42/83 32/41/44 63/73/84 77/74/85
f 41/54/57 44/53/56 54/56/86 51/55/59
f 35/34/87 38/33/88 73/75/89 71/76/90
f 85/62/91 84/61/66 94/77/92 99/78/93
f 59/66/75 58/65/74 86/79/94 87/80/95
f 55/68/96 52/67/76 80/81/97 83/82/98
f 61/83/99 65/84/100 121/85/101 118/86/102
f 53/64/69 60/63/68 88/87/103 81/88/104
f 95/89/105 90/90/106 105/91/107 109/92/108
f 87/80/95 86/79/94 98/93/109 102/94/110
f 83/82/111 80/81/97 90/90/112 95/89/105
f 89/70/80 92/69/113 106/95/114 103/96/115
f 81/88/104 88/87/103 101/97/116 91/98/117
f 119/99/118 123/100/119 126/101/120 129/102/121 132/103/122
f 104/104/123 108/105/124 116/106/125 113/107/126 110/108/127
f 91/98/117 101/97/128 117/109/129 107/110/130
f 96/111/131 93/112/132 111/113/133 112/114/134
f 100/115/135 97/116/136 114/117/137 115/118/138
f 71/76/90 73/75/89 127/119/139 125/120/140
f 68/121/141 69/122/142 124/123/143 122/124/144
f 72/125/145 75/126/146 130/127/147 128/128/148
f 78/129/149 62/130/150 120/131/151 131/132/152
f 61/133/153 62/134/154 63/135/155 64/136/156
f 65/84/100 66/19/157 67/44/158 68/121/159
f 69/122/160 70/43/161 71/76/90
f 72/125/162 73/75/89 74/72/82
f 75/126/163 76/71/81 77/74/85 78/129/149
f 93/112/164 94/77/165 95/89/105
f 96/111/131 97/116/166 98/93/109 99/78/93
f 100/115/135 101/97/116 102/94/110
f 103/96/115 104/137/123 105/138/107
f 106/139/114 107/140/167 108/141/168
f 109/92/169 110/142/127 111/143/133
f 112/114/134 113/144/170 114/145/137
f 115/118/138 116/146/125 117/147/171
f 118/86/172 119/148/173 120/149/174
f 121/85/175 122/150/176 123/151/119
f 124/152/177 125/120/178 126/153/120
f 127/154/139 128/155/179 129/156/121
f 130/127/147 131/157/180 132/158/122
f 22/4/4 3/3/3 4/159/63 21/160/29
f 24/13/13 5/35/38 6/30/31 23/29/30
f 26/6/6 9/5/5 10/36/39 25/16/16
f 28/10/10 13/9/9 14/8/181 27/7/182
f 30/1/183 17/39/58 18/12/12 29/11/11
f 2/40/43 22/4/4 21/160/29 1/161/28
f 8/14/14 24/13/13 23/29/30 7/51/54
f 12/24/25 26/6/6 25/16/16 11/15/15
f 16/46/49 28/10/10 27/7/7 15/23/24
f 20/2/21 30/1/183 29/11/11 19/45/184
f 13/9/9 37/32/34 38/33/36 14/8/181
f 36/37/40 10/36/39 9/5/5 35/34/37
f 17/39/42 39/42/45 40/31/33 18/12/12
f 34/18/18 6/30/31 5/35/38 33/38/41
f 1/162/28 31/163/17 32/41/185 2/40/43
f 7/51/54 41/54/57 42/49/186 8/14/14
f 46/25/26 12/24/187 11/15/15 45/50/53
f 19/45/184 49/48/51 50/21/22 20/2/21
f 44/164/188 4/159/63 3/3/3 43/22/23
f 48/47/73 16/46/189 15/23/190 47/26/27
f 47/26/27 57/59/191 58/65/192 48/47/73
f 60/63/193 50/21/22 49/48/72 59/66/75
f 41/54/194 51/55/59 52/67/195 42/49/196
f 56/60/65 46/25/71 45/50/53 55/68/77
f 54/165/86 44/164/56 43/22/23 53/64/69
f 64/20/20 66/19/19 65/84/100 61/83/153
f 67/44/47 70/43/46 69/122/160 68/121/159
f 74/72/82 76/71/81 75/126/163 72/125/197
f 77/74/198 63/73/199 62/130/154 78/129/149
f 31/163/17 64/136/156 63/73/200 32/41/44
f 76/71/81 40/31/33 39/42/45 77/74/198
f 37/32/34 74/72/82 73/75/89 38/33/88
f 70/43/201 36/37/202 35/34/37 71/76/90
f 33/38/203 67/44/47 66/19/19 34/18/18
f 59/66/75 87/80/95 88/87/103 60/63/68
f 82/166/61 54/165/204 53/64/69 81/88/205
f 55/68/77 83/82/111 84/61/66 56/60/65
f 86/79/206 58/65/74 57/59/191 85/62/91
f 80/81/97 52/67/76 51/55/59 79/58/62
f 99/78/207 94/77/92 93/112/164 96/111/131
f 102/94/110 98/93/109 97/116/166 100/115/208
f 87/80/209 102/94/110 101/97/116 88/87/103
f 92/167/79 82/166/61 81/88/205 91/98/210
f 83/82/111 95/89/105 94/77/92 84/61/66
f 98/93/109 86/79/94 85/62/91 99/78/93
f 90/90/211 80/81/97 79/58/62 89/70/80
f 103/96/115 106/95/114 108/168/212 104/137/123
f 109/92/169 105/91/107 104/169/123 110/142/127
f 112/114/134 111/113/133 110/170/127 113/144/126
f 115/118/138 114/117/213 113/171/170 116/146/214
f 107/110/167 117/109/215 116/172/125 108/141/216
f 91/98/117 107/110/167 106/173/114 92/167/79
f 105/91/107 90/90/112 89/70/80 103/96/115
f 96/111/131 112/114/134 114/117/213 97/116/136
f 117/109/129 101/97/128 100/115/208 115/118/138
f 111/113/133 93/112/164 95/89/105 109/92/169
f 118/86/172 121/85/175 123/151/119 119/148/118
f 122/124/176 124/123/177 126/174/120 123/175/119
f 125/120/178 127/119/139 129/176/217 126/153/218
f 128/128/179 130/127/147 132/158/122 129/156/121
f 131/132/180 120/131/174 119/177/118 132/178/122
f 78/129/149 131/132/219 130/127/147 75/126/146
f 127/119/139 73/75/89 72/125/197 128/128/220
f 71/76/90 125/120/178 124/123/177 69/122/160
f 121/85/221 65/84/100 68/121/222 122/124/223
f 61/179/224 118/180/172 120/131/225 62/130/154
f 1/27/28 6/30/31 34/18/18 31/17/17
