# Blender v2.93.1 OBJ File: 'NewPlayerHomeBed2.blend'
# www.blender.org
mtllib Eggplant.mtl
o EggplantMesh_Cylinder.019
v 0.111683 0.149729 -0.157489
v -0.000390 0.058536 -0.213611
v 0.173797 0.045617 -0.043209
v 0.111750 0.150012 0.065966
v -0.000167 0.061206 0.128332
v -0.112210 0.149969 0.065849
v -0.177733 0.021948 -0.042865
v -0.113116 0.140357 -0.158012
v -0.034917 0.283955 -0.045693
v 0.100817 0.146500 -0.146666
v -0.000167 0.055512 -0.198234
v 0.158474 0.042326 -0.043262
v 0.100817 0.146500 0.055300
v -0.000167 0.057665 0.113065
v -0.101150 0.146500 0.055300
v -0.162386 0.018770 -0.042714
v -0.102086 0.137233 -0.147326
v -0.056083 0.238939 -0.045698
v -0.039730 0.238981 -0.006151
v -0.000167 0.238984 0.010247
v 0.039393 0.238986 -0.006145
v 0.055754 0.238953 -0.045688
v 0.039365 0.238954 -0.085235
v -0.000178 0.238921 -0.101594
v -0.039701 0.238943 -0.085228
v -0.024754 0.283981 -0.021117
v -0.000167 0.283982 -0.010926
v 0.024417 0.283984 -0.021113
v 0.034585 0.283963 -0.045687
v 0.024400 0.283964 -0.070264
v -0.000174 0.283944 -0.080431
v -0.024736 0.283957 -0.070260
v -0.000176 0.392104 -0.045725
v -0.000185 0.227362 -0.140257
v -0.000248 0.171323 -0.192804
v -0.106857 0.172083 -0.152032
v -0.067001 0.227415 -0.112537
v -0.147882 0.171414 -0.045086
v -0.094704 0.227405 -0.045708
v -0.107445 0.172374 0.061236
v -0.066980 0.227509 0.021079
v -0.000167 0.171803 0.103075
v -0.000167 0.227514 0.048763
v 0.107022 0.172407 0.061313
v 0.066632 0.227520 0.021080
v 0.147786 0.171544 -0.045067
v 0.094343 0.227439 -0.045691
v 0.106948 0.172351 -0.152787
v 0.066645 0.227440 -0.112528
v -0.000181 0.366183 -0.070576
v -0.017747 0.366193 -0.063302
v 0.017394 0.366197 -0.063305
v 0.024678 0.366197 -0.045728
v 0.017406 0.366212 -0.028153
v -0.000176 0.366211 -0.020868
v -0.017760 0.366210 -0.028156
v -0.025029 0.366191 -0.045733
v -0.000167 -0.115226 -0.259117
v 0.100817 0.146500 -0.146666
v -0.000167 0.146500 -0.188495
v 0.142645 0.146500 -0.045683
v 0.100817 0.146500 0.055300
v -0.000167 0.146500 0.097129
v -0.101150 0.146500 0.055300
v -0.142978 0.146500 -0.045683
v -0.101150 0.146500 -0.146666
v -0.000167 -0.342245 -0.269156
v -0.000167 -0.234655 -0.296780
v 0.147962 -0.249956 -0.237362
v 0.110074 -0.353632 -0.224936
v 0.209319 -0.286896 -0.093913
v 0.155737 -0.381124 -0.118178
v 0.147962 -0.323836 0.049535
v 0.110074 -0.408615 -0.011421
v -0.000167 -0.339137 0.108954
v -0.000167 -0.420002 0.032800
v -0.148295 -0.323836 0.049535
v -0.110407 -0.408615 -0.011421
v -0.209652 -0.286896 -0.093913
v -0.156070 -0.381124 -0.118178
v -0.148295 -0.249956 -0.237362
v -0.110407 -0.353632 -0.224936
v -0.000167 0.204312 -0.149185
v -0.073353 0.204312 -0.118870
v -0.103668 0.204312 -0.045683
v -0.073353 0.204312 0.027504
v -0.000167 0.204312 0.057819
v 0.073020 0.204312 0.027504
v 0.103335 0.204312 -0.045683
v 0.073020 0.204312 -0.118870
v 0.137960 -0.411738 -0.126062
v 0.097504 -0.436095 -0.031477
v -0.000167 -0.446184 0.007701
v -0.097837 -0.436095 -0.031477
v -0.138293 -0.411738 -0.126062
v -0.097837 -0.387381 -0.220646
v -0.000167 -0.377293 -0.259825
v 0.097504 -0.387381 -0.220646
v 0.068320 -0.473012 -0.112547
v -0.000167 -0.489848 -0.146176
v 0.028201 -0.483016 -0.073696
v -0.028535 -0.483016 -0.073696
v -0.068653 -0.473012 -0.112547
v -0.068653 -0.458863 -0.167491
v -0.028535 -0.448858 -0.206341
v 0.028201 -0.448858 -0.206341
v 0.068320 -0.458863 -0.167491
v 0.143231 -0.130038 -0.201596
v -0.143565 -0.130038 -0.201596
v 0.202629 -0.165799 -0.062729
v 0.143231 -0.201559 0.076138
v -0.000167 -0.216371 0.133659
v -0.143564 -0.201559 0.076138
v -0.202962 -0.165799 -0.062729
v -0.000167 -0.040162 -0.208476
v -0.119544 -0.035635 -0.159629
v 0.119211 -0.035635 -0.159629
v 0.168659 -0.024705 -0.041704
v 0.119211 -0.013776 0.076222
v -0.000167 -0.009248 0.125068
v -0.119544 -0.013776 0.076222
v -0.168992 -0.024705 -0.041704
vt 0.859788 0.774288
vt 0.672742 0.778498
vt 0.703224 0.771609
vt 0.824970 0.764495
vt 0.576681 0.778724
vt 0.606112 0.772007
vt 0.518894 0.774782
vt 0.535363 0.765349
vt 0.468627 0.769016
vt 0.474649 0.755609
vt 0.419700 0.764767
vt 0.415998 0.748388
vt 0.343898 0.685145
vt 0.264139 0.695184
vt 0.252969 0.580170
vt 0.342563 0.652023
vt 0.311374 0.768496
vt 0.221410 0.774288
vt 0.186592 0.764495
vt 0.282731 0.754676
vt 0.481495 0.697231
vt 0.415321 0.685388
vt 0.420397 0.530990
vt 0.483060 0.674289
vt 0.170959 0.711595
vt 0.168450 0.689081
vt 0.549110 0.712139
vt 0.558336 0.601917
vt 0.623903 0.723572
vt 0.625806 0.701807
vt 0.710499 0.721782
vt 0.708607 0.597975
vt 0.072121 0.721782
vt 0.070229 0.597975
vt 0.369000 0.764581
vt 0.354316 0.748078
vt 0.456477 0.815439
vt 0.492713 0.819023
vt 0.462261 0.901464
vt 0.439625 0.898901
vt 0.168461 0.685092
vt 0.253455 0.578000
vt 0.068584 0.592770
vt 0.623901 0.696328
vt 0.706962 0.592770
vt 0.558085 0.597493
vt 0.483347 0.671558
vt 0.421970 0.529673
vt 0.344165 0.650816
vt 0.525620 0.821473
vt 0.419356 0.812799
vt 0.347196 0.815116
vt 0.323375 0.818716
vt 0.527923 0.821332
vt 0.382343 0.812683
vt 0.961753 0.818716
vt 0.428868 0.903115
vt 0.470538 0.903216
vt 0.366655 0.898670
vt 0.367510 0.901244
vt 0.413057 0.897012
vt 0.386965 0.896930
vt 0.064846 0.771609
vt 0.413499 0.926216
vt 0.341176 0.473511
vt 0.344324 0.660321
vt 0.262561 0.670379
vt 0.244446 0.480865
vt 0.043958 0.103065
vt 0.056851 0.044858
vt 0.098626 0.057715
vt 0.609872 0.083083
vt 0.695229 0.044858
vt 0.682336 0.103065
vt 0.498674 0.079107
vt 0.647795 0.037899
vt 0.371234 0.093467
vt 0.325202 0.040916
vt 0.286010 0.117751
vt 0.268654 0.052139
vt 0.103636 0.127349
vt 0.140253 0.068939
vt 0.161053 0.141709
vt 0.179860 0.741580
vt 0.066440 0.749370
vt 0.071247 0.695840
vt 0.168461 0.685092
vt 0.704818 0.749370
vt 0.611643 0.749724
vt 0.623901 0.696328
vt 0.709625 0.695840
vt 0.540027 0.742434
vt 0.550578 0.686270
vt 0.477456 0.731772
vt 0.483347 0.671558
vt 0.416495 0.723982
vt 0.416275 0.660809
vt 0.351921 0.723628
vt 0.276854 0.730918
vt 0.149605 0.502793
vt 0.705734 0.526450
vt 0.632015 0.537978
vt 0.562734 0.530623
vt 0.495010 0.508695
vt 0.423827 0.485038
vt 0.067356 0.526450
vt 0.233486 0.279645
vt 0.158992 0.285674
vt 0.160477 0.177076
vt 0.224187 0.172589
vt 0.088945 0.263896
vt 0.099295 0.160868
vt 0.727323 0.263896
vt 0.658136 0.227067
vt 0.674601 0.133459
vt 0.737673 0.160868
vt 0.582894 0.196762
vt 0.600007 0.110905
vt 0.495469 0.190732
vt 0.497300 0.106418
vt 0.401543 0.212511
vt 0.382585 0.122626
vt 0.313642 0.249340
vt 0.294675 0.150035
vt 0.220404 0.137733
vt 0.225066 0.064996
vt 0.158300 0.030450
vt 0.796678 0.030450
vt 0.963580 0.040916
vt 0.182428 0.071955
vt 0.742014 0.127349
vt 0.154248 0.408120
vt 0.077793 0.387037
vt 0.415083 0.337293
vt 0.328396 0.372946
vt 0.497812 0.316210
vt 0.574556 0.322047
vt 0.645693 0.351384
vt 0.716171 0.387037
vt 0.239527 0.402283
vn 0.4248 0.7991 -0.4254
vn 0.6014 0.7989 -0.0006
vn 0.6241 0.7813 -0.0004
vn 0.4373 0.7851 -0.4386
vn 0.4255 0.7990 0.4249
vn 0.4368 0.7871 0.4355
vn -0.0001 0.7989 0.6014
vn -0.0002 0.7837 0.6211
vn -0.4256 0.7990 0.4247
vn -0.4376 0.7868 0.4353
vn -0.4257 0.7990 0.4247
vn -0.6014 0.7989 -0.0007
vn -0.6261 0.7798 -0.0018
vn -0.6583 0.4352 -0.6142
vn -0.0104 0.4441 -0.8959
vn -0.0085 -0.0162 -0.9998
vn -0.7234 0.0125 -0.6904
vn -0.0002 0.7989 -0.6014
vn 0.4247 0.7991 -0.4255
vn -0.0019 0.7778 -0.6285
vn -0.6527 0.4593 0.6025
vn -0.9069 0.4211 -0.0093
vn -0.9994 0.0349 -0.0070
vn -0.7252 0.0219 0.6882
vn 0.6357 0.4591 -0.6206
vn 0.7126 -0.0083 -0.7015
vn -0.0004 0.4738 0.8806
vn -0.7252 0.0219 0.6881
vn -0.0001 0.0074 1.0000
vn 0.6339 0.4717 0.6129
vn 0.7147 0.0113 0.6994
vn 0.8936 0.4489 -0.0006
vn 0.6338 0.4718 0.6129
vn 0.9999 0.0107 -0.0000
vn 0.8936 0.4488 -0.0006
vn 0.9999 0.0106 0.0000
vn -0.4249 0.7991 -0.4253
vn -0.4404 0.7822 -0.4407
vn -0.6813 0.2693 0.6807
vn -0.0001 0.2694 0.9630
vn -0.0001 0.2132 0.9770
vn -0.6911 0.2131 0.6906
vn -0.0085 -0.0163 -0.9998
vn 0.2976 -0.8832 -0.3624
vn 0.0390 -0.9958 0.0831
vn 0.9999 0.0107 0.0001
vn -0.1190 -0.9929 0.0040
vn 0.2991 -0.8763 0.3777
vn 0.7146 0.0113 0.6994
vn -0.0001 0.0073 1.0000
vn 0.0019 -0.9978 -0.0666
vn 0.2990 -0.8763 0.3777
vn -0.7252 0.0220 0.6882
vn -0.2604 -0.8553 0.4479
vn -0.7253 0.0219 0.6881
vn -0.9994 0.0349 -0.0071
vn 0.1743 -0.9839 0.0396
vn -0.7233 0.0124 -0.6904
vn -0.2359 -0.8804 -0.4113
vn -0.7234 0.0125 -0.6903
vn 0.6811 0.2693 0.6808
vn -0.9070 0.4211 -0.0094
vn -0.6583 0.4352 -0.6141
vn -0.6014 0.7989 -0.0006
vn -0.6813 0.2692 0.6807
vn -0.9632 0.2690 -0.0005
vn 0.4248 0.7991 -0.4255
vn -0.0001 0.2687 -0.9632
vn 0.6808 0.2689 -0.6813
vn 0.9631 0.2691 -0.0004
vn 0.6811 0.2694 0.6808
vn -0.4256 0.7991 0.4247
vn -0.6015 0.7989 -0.0006
vn -0.6810 0.2688 -0.6812
vn -0.0001 0.7989 -0.6014
vn 0.9771 0.2129 -0.0004
vn 0.6910 0.2132 0.6907
vn -0.0001 0.2123 -0.9772
vn 0.6907 0.2125 -0.6912
vn -0.9771 0.2127 -0.0005
vn 0.6812 0.2693 0.6808
vn -0.0001 0.2133 0.9770
vn 0.9631 0.2691 -0.0005
vn 0.6907 0.2126 -0.6911
vn -0.6909 0.2124 -0.6911
vn -0.6909 0.2124 -0.6910
vn -0.4405 0.7822 -0.4407
vn -0.6584 0.4352 -0.6141
vn -0.9069 0.4212 -0.0094
vn -0.0004 0.4738 0.8807
vn -0.0002 0.7838 0.6211
vn 0.4372 0.7851 -0.4387
vn 0.6357 0.4590 -0.6206
vn -0.0001 1.0000 -0.0005
vn 0.6907 0.2126 -0.6912
vn -0.0001 1.0000 -0.0006
vn -0.0000 1.0000 -0.0005
vn -0.0002 1.0000 -0.0005
vn -0.9771 0.2127 -0.0004
vn -0.7010 0.2493 -0.6681
vn -0.6683 0.2962 -0.6824
vn 0.0000 0.2861 -0.9582
vn -0.0000 0.2741 -0.9617
vn 0.5438 -0.7546 0.3672
vn 0.2139 -0.9318 0.2932
vn 0.5163 -0.8564 0.0003
vn -0.0000 -0.8108 0.5853
vn -0.5438 -0.7546 0.3672
vn -0.2139 -0.9318 0.2932
vn -0.7690 -0.6190 -0.1594
vn -0.5163 -0.8564 0.0003
vn -0.5438 -0.4834 -0.6860
vn -0.5163 -0.7497 -0.4139
vn 0.7690 -0.6190 -0.1594
vn 0.5163 -0.7497 -0.4139
vn 0.5438 -0.4834 -0.6860
vn 0.5847 0.5623 -0.5847
vn 0.8269 0.5623 0.0000
vn 0.9481 0.3178 -0.0122
vn 0.6682 0.2962 -0.6824
vn 0.5847 0.5623 0.5847
vn 0.6713 0.3351 0.6612
vn -0.0000 0.5623 0.8269
vn 0.0000 0.3409 0.9401
vn -0.5847 0.5623 0.5847
vn -0.6713 0.3351 0.6612
vn -0.8269 0.5623 -0.0000
vn -0.9481 0.3178 -0.0122
vn -0.5847 0.5623 -0.5847
vn -0.6682 0.2962 -0.6824
vn -0.0000 0.5623 -0.8269
vn 0.6683 0.2962 -0.6824
vn 0.7010 0.2493 -0.6681
vn 0.9816 0.1879 0.0333
vn 0.6834 0.1250 0.7192
vn -0.0000 0.3408 0.9401
vn -0.0000 0.0988 0.9951
vn -0.6834 0.1250 0.7192
vn -0.9816 0.1879 0.0333
vn -0.7011 0.2492 -0.6681
vn 0.7011 0.2492 -0.6681
vn 0.0000 0.0613 -0.9981
vn 0.6943 -0.0104 -0.7196
vn 0.6184 -0.3155 -0.7198
vn -0.0000 -0.2516 -0.9678
vn 0.9819 -0.1836 -0.0473
vn 0.8745 -0.4697 -0.1210
vn 0.6943 -0.3567 0.6251
vn 0.6184 -0.6239 0.4779
vn 0.0000 -0.4284 0.9036
vn -0.0000 -0.6878 0.7259
vn -0.6943 -0.3567 0.6251
vn -0.6184 -0.6239 0.4779
vn -0.9819 -0.1836 -0.0473
vn -0.8745 -0.4697 -0.1210
vn -0.6943 -0.0104 -0.7196
vn -0.6184 -0.3155 -0.7198
vn 0.0000 -0.4272 -0.9041
vn -0.2138 -0.6743 -0.7068
vn 0.0000 -0.9684 -0.2494
vn 0.5163 -0.7498 -0.4139
vn -0.2138 -0.9318 0.2932
vn 0.2138 -0.9318 0.2932
vn -0.5163 -0.7498 -0.4139
vn -0.2139 -0.6743 -0.7068
vn 0.2138 -0.6743 -0.7068
vn 0.2139 -0.6743 -0.7068
vn -0.0000 -0.4272 -0.9042
vn 0.0000 -0.8108 0.5854
vn 0.6183 -0.6240 0.4779
vn 0.7691 -0.6190 -0.1594
vn 0.8745 -0.4698 -0.1209
vn 0.6183 -0.3155 -0.7198
vn -0.0000 -0.2517 -0.9678
vn -0.6183 -0.3155 -0.7198
vn -0.7691 -0.6190 -0.1594
vn -0.8745 -0.4698 -0.1209
vn -0.6183 -0.6240 0.4779
vn -0.6184 -0.6239 0.4778
vn 0.6184 -0.6239 0.4778
vn 0.6943 -0.0105 -0.7196
vn 0.7046 0.3134 -0.6367
vn 0.9887 0.1414 0.0506
vn -0.9887 0.1414 0.0506
vn -0.7046 0.3134 -0.6367
vn -0.6943 -0.0105 -0.7196
vn -0.6873 -0.0023 0.7263
vn -0.9886 0.1415 0.0506
vn -0.0000 -0.4285 0.9036
vn 0.0000 -0.0547 0.9985
vn -0.6874 -0.0023 0.7263
vn 0.6874 -0.0023 0.7263
vn 0.9886 0.1415 0.0506
vn 0.6873 -0.0023 0.7263
vn 0.0000 0.0612 -0.9981
vn -0.0000 0.3941 -0.9191
vn 0.7011 0.2493 -0.6681
vn -0.7011 0.2493 -0.6681
vn 0.0000 0.2742 -0.9617
usemtl Vine
s off
f 23/1/1 22/2/2 47/3/3 49/4/4
f 22/2/2 21/5/5 45/6/6 47/3/3
f 21/5/5 20/7/7 43/8/8 45/6/6
f 20/7/7 19/9/9 41/10/10 43/8/8
f 19/9/11 18/11/12 39/12/13 41/10/10
f 36/13/14 35/14/15 2/15/16 8/16/17
f 24/17/18 23/18/19 49/19/4 34/20/20
f 40/21/21 38/22/22 7/23/23 6/24/24
f 35/14/15 48/25/25 1/26/26 2/15/16
f 42/27/27 40/21/21 6/24/28 5/28/29
f 44/29/30 42/27/27 5/28/29 4/30/31
f 46/31/32 44/29/33 4/30/31 3/32/34
f 48/25/25 46/33/35 3/34/36 1/26/26
f 18/11/12 25/35/37 37/36/38 39/12/13
f 26/37/39 27/38/40 55/39/41 56/40/42
f 2/15/43 1/26/26 10/41/44 11/42/45
f 1/26/26 3/34/46 12/43/47 10/41/44
f 3/32/36 4/30/31 13/44/48 12/45/47
f 4/30/49 5/28/50 14/46/51 13/44/52
f 5/28/50 6/24/53 15/47/54 14/46/51
f 6/24/55 7/23/56 16/48/57 15/47/54
f 7/23/56 8/16/58 17/49/59 16/48/57
f 8/16/60 2/15/43 11/42/45 17/49/59
f 20/7/7 21/5/5 28/50/61 27/38/40
f 38/22/62 36/13/63 8/16/58 7/23/23
f 18/11/64 19/9/9 26/37/65 9/51/66
f 23/18/67 24/17/18 31/52/68 30/53/69
f 21/5/5 22/2/2 29/54/70 28/50/71
f 19/9/72 20/7/7 27/38/40 26/37/39
f 25/35/37 18/11/73 9/51/66 32/55/74
f 24/17/75 25/35/37 32/55/74 31/52/68
f 22/2/2 23/1/1 30/56/69 29/54/70
f 28/50/71 29/54/70 53/57/76 54/58/77
f 30/53/69 31/52/68 50/59/78 52/60/79
f 9/51/66 26/37/39 56/40/42 57/61/80
f 27/38/40 28/50/81 54/58/77 55/39/82
f 29/54/83 30/53/69 52/60/84 53/57/76
f 31/52/68 32/55/74 51/62/85 50/59/78
f 32/55/74 9/51/66 57/61/80 51/62/86
f 35/14/15 36/13/63 37/36/87 34/20/20
f 36/13/88 38/22/62 39/12/13 37/36/87
f 38/22/89 40/21/21 41/10/10 39/12/13
f 40/21/21 42/27/90 43/8/91 41/10/10
f 42/27/27 44/29/33 45/6/6 43/8/8
f 44/29/33 46/31/32 47/3/3 45/6/6
f 46/33/35 48/25/25 49/19/92 47/63/3
f 48/25/93 35/14/15 34/20/20 49/19/4
f 25/35/37 24/17/18 34/20/20 37/36/87
f 33/64/94 50/59/78 51/62/85
f 33/64/94 52/60/95 50/59/78
f 33/64/96 53/57/76 52/60/95
f 33/64/94 54/58/77 53/57/76
f 33/64/97 55/39/82 54/58/77
f 33/64/98 56/40/42 55/39/82
f 33/64/94 57/61/99 56/40/42
f 33/64/94 51/62/86 57/61/80
usemtl Eggplant
f 116/65/100 66/66/101 60/67/102 115/68/103
f 92/69/104 101/70/105 99/71/106
f 93/72/107 101/73/105 92/74/104
f 94/75/108 102/76/109 93/72/107
f 95/77/110 103/78/111 94/75/108
f 96/79/112 104/80/113 95/77/110
f 91/81/114 107/82/115 98/83/116
f 92/69/104 99/71/106 91/81/114
f 90/84/117 89/85/118 61/86/119 59/87/120
f 89/88/118 88/89/121 62/90/122 61/91/119
f 88/89/121 87/92/123 63/93/124 62/90/122
f 87/92/123 86/94/125 64/95/126 63/93/124
f 86/94/125 85/96/127 65/97/128 64/95/126
f 85/96/127 84/98/129 66/66/130 65/97/128
f 83/99/131 90/84/117 59/87/132 60/67/102
f 115/68/103 60/67/102 59/87/132 117/100/133
f 118/101/134 61/91/119 62/90/122 119/102/135
f 119/102/135 62/90/122 63/93/136 120/103/137
f 120/103/137 63/93/136 64/95/126 121/104/138
f 121/104/138 64/95/126 65/97/128 122/105/139
f 122/105/139 65/97/128 66/66/101 116/65/140
f 117/100/141 59/87/132 61/86/119 118/106/134
f 68/107/142 69/108/143 70/109/144 67/110/145
f 69/108/143 71/111/146 72/112/147 70/109/144
f 71/113/146 73/114/148 74/115/149 72/116/147
f 73/114/148 75/117/150 76/118/151 74/115/149
f 75/117/150 77/119/152 78/120/153 76/118/151
f 77/119/152 79/121/154 80/122/155 78/120/153
f 79/121/154 81/123/156 82/124/157 80/122/155
f 81/123/156 68/107/142 67/110/145 82/124/157
f 97/125/158 105/126/159 96/79/112
f 84/98/129 83/99/131 60/67/102 66/66/101
f 99/71/106 100/127/160 107/82/161
f 101/70/105 100/127/160 99/71/106
f 102/76/162 100/128/160 101/73/163
f 103/129/111 100/128/160 102/76/109
f 104/80/164 100/127/160 103/78/111
f 105/126/165 100/127/160 104/80/164
f 106/130/166 100/127/160 105/126/159
f 107/82/115 100/127/160 106/130/167
f 98/83/116 106/130/166 97/125/158
f 91/81/114 99/71/106 107/82/115
f 98/83/116 107/82/115 106/130/167
f 97/125/168 106/130/166 105/126/159
f 96/79/112 105/126/165 104/80/113
f 95/77/110 104/80/113 103/78/111
f 94/75/108 103/129/111 102/76/109
f 93/72/169 102/76/162 101/73/163
f 74/115/170 92/74/104 91/131/171 72/116/147
f 72/112/172 91/81/171 98/83/116 70/109/173
f 70/109/144 98/83/116 97/125/168 67/110/174
f 67/110/174 97/125/168 96/79/112 82/124/157
f 82/124/175 96/79/112 95/77/176 80/122/177
f 80/122/155 95/77/176 94/75/108 78/120/178
f 78/120/179 94/75/108 93/72/169 76/118/151
f 76/118/151 93/72/169 92/74/104 74/115/180
f 69/108/181 108/132/182 110/133/183 71/111/146
f 79/121/154 114/134/184 109/135/185 81/123/186
f 77/119/152 113/136/187 114/134/188 79/121/154
f 75/117/189 112/137/190 113/136/191 77/119/152
f 73/114/148 111/138/192 112/137/190 75/117/189
f 71/113/146 110/139/193 111/138/194 73/114/148
f 68/107/195 58/140/196 108/132/182 69/108/181
f 81/123/186 109/135/185 58/140/196 68/107/195
f 108/132/182 117/100/197 118/106/134 110/133/193
f 114/134/188 122/105/139 116/65/198 109/135/185
f 113/136/191 121/104/138 122/105/139 114/134/184
f 112/137/190 120/103/137 121/104/138 113/136/191
f 111/138/194 119/102/135 120/103/137 112/137/190
f 110/139/183 118/101/134 119/102/135 111/138/192
f 58/140/196 115/68/199 117/100/133 108/132/182
f 109/135/185 116/65/100 115/68/199 58/140/196
