# Blender v2.91.2 OBJ File: 'KoboShed.blend'
# www.blender.org
mtllib Bench.mtl
o Bench_Cube.025
v 0.137212 0.493309 12.501695
v 0.137212 0.493309 4.901695
v 0.837212 0.493309 12.501695
v 0.837212 0.493309 4.901695
v 0.137212 -0.036237 4.901695
v 0.837212 -0.036237 4.901695
v 0.137212 -0.036237 12.501695
v 0.137212 -0.036237 12.026694
v 0.837212 0.493309 5.376696
v 0.137212 0.493309 5.376696
v 0.137212 0.493309 12.026694
v 0.837212 0.493309 12.026694
v 0.137212 0.493309 9.090989
v 0.137212 0.493309 8.312402
v 0.837212 0.493309 8.312402
v 0.837212 0.493309 9.090989
v 0.837212 0.693309 9.090989
v 0.837212 -0.036237 5.376696
v 0.837212 -0.036237 12.501695
v 0.137212 -0.036237 5.376696
v 0.837212 -0.036237 12.026694
v 0.837212 -0.036237 8.312402
v 0.837212 -0.036237 9.090989
v 0.137212 -0.036237 9.090989
v 0.137212 -0.036237 8.312402
v 0.137212 0.693309 5.376696
v 0.137212 0.693309 4.901695
v 0.837212 0.693309 4.901695
v 0.837212 0.693309 12.026694
v 0.837212 0.693309 12.501695
v 0.137212 0.693309 12.501695
v 0.837212 0.693309 5.376696
v 0.137212 0.693309 12.026694
v 0.137212 0.693309 8.312402
v 0.137212 0.693309 9.090989
v 0.837212 0.693309 8.312402
v 0.194417 0.818132 5.376696
v 0.802809 0.807092 5.376696
v 0.194417 0.818132 12.026694
v 0.802809 0.807092 12.026694
v 0.171615 0.807092 9.090989
v 0.802809 0.807092 9.090989
v 0.802809 0.807092 8.312402
v 0.194417 0.818132 8.312402
v 0.194417 0.818132 4.958899
v 0.780008 0.818132 4.958899
v 0.780008 0.818132 12.444491
v 0.194417 0.818132 12.444491
v 0.171615 0.807092 5.376696
v 0.171615 0.807092 4.936098
v 0.802809 0.807092 4.936098
v 0.780008 0.818132 12.026694
v 0.802809 0.807092 12.467292
v 0.171615 0.807092 12.467292
v 0.780008 0.818132 5.376696
v 0.171615 0.807092 12.026694
v 0.171615 0.807092 8.312402
v 0.194417 0.818132 9.090989
v 0.780008 0.818132 9.090989
v 0.780008 0.818132 8.312402
v 0.171615 0.699474 12.467292
v 0.165450 0.693309 12.473456
v 0.171615 0.699474 4.936098
v 0.165450 0.693309 4.929934
v 0.802809 0.699474 12.467292
v 0.808974 0.693309 12.473456
v 0.802809 0.699474 4.936098
v 0.808974 0.693309 4.929934
v 0.165450 0.693309 5.376696
v 0.171615 0.699474 5.376696
v 0.802809 0.699474 5.376696
v 0.808974 0.693309 5.376696
v 0.808974 0.693309 12.026694
v 0.802809 0.699474 12.026694
v 0.171615 0.699474 12.026694
v 0.165450 0.693309 12.026694
v 0.171615 0.699474 8.312402
v 0.165450 0.693309 8.312402
v 0.165450 0.693309 9.090989
v 0.171615 0.699474 9.090989
v 0.808974 0.693309 8.312402
v 0.802809 0.699474 8.312402
v 0.802809 0.699474 9.090989
v 0.808974 0.693309 9.090989
vt 0.375000 0.234375
vt 0.625000 0.234375
vt 0.625000 0.250000
vt 0.375000 0.250000
vt 0.625000 0.500000
vt 0.375000 0.500000
vt 0.375000 0.734375
vt 0.625000 0.734375
vt 0.625000 0.750000
vt 0.375000 0.750000
vt 0.625000 1.000000
vt 0.375000 1.000000
vt 0.375000 0.612194
vt 0.375000 0.637806
vt 0.375000 0.637806
vt 0.375000 0.612194
vt 0.864915 0.637806
vt 0.864915 0.612194
vt 0.875000 0.612194
vt 0.875000 0.637806
vt 0.625000 0.637806
vt 0.125000 0.637806
vt 0.125000 0.734375
vt 0.125000 0.515625
vt 0.375000 0.515625
vt 0.125000 0.612194
vt 0.625000 0.515625
vt 0.125000 0.612194
vt 0.864915 0.734375
vt 0.875000 0.734375
vt 0.375000 0.015625
vt 0.625000 0.015625
vt 0.625000 0.112194
vt 0.375000 0.112194
vt 0.375000 0.000000
vt 0.625000 0.000000
vt 0.637287 0.515625
vt 0.637287 0.501132
vt 0.637287 0.501132
vt 0.637287 0.515625
vt 0.862713 0.501132
vt 0.862713 0.515625
vt 0.862713 0.515625
vt 0.862713 0.501132
vt 0.625000 0.612194
vt 0.864915 0.515625
vt 0.875000 0.515625
vt 0.375000 0.250000
vt 0.375000 0.234375
vt 0.625000 0.137806
vt 0.375000 0.137806
vt 0.375000 1.000000
vt 0.375000 0.750000
vt 0.375000 0.734375
vt 0.125000 0.734375
vt 0.375000 0.015625
vt 0.375000 0.000000
vt 0.125000 0.637806
vt 0.375000 0.515625
vt 0.375000 0.500000
vt 0.375000 0.137806
vt 0.375000 0.112194
vt 0.125000 0.515625
vt 0.864915 0.500929
vt 0.875000 0.500000
vt 0.637287 0.748868
vt 0.637287 0.734375
vt 0.637287 0.734375
vt 0.637287 0.748868
vt 0.862713 0.734375
vt 0.862713 0.748868
vt 0.862713 0.748868
vt 0.862713 0.734375
vt 0.862713 0.612194
vt 0.862713 0.612194
vt 0.635085 0.749071
vt 0.864915 0.749071
vt 0.875000 0.750000
vt 0.637287 0.637806
vt 0.637287 0.612194
vt 0.637287 0.612194
vt 0.637287 0.637806
vt 0.862713 0.637806
vt 0.862713 0.637806
vt 0.645430 0.734375
vt 0.854570 0.734375
vt 0.854570 0.748118
vt 0.645430 0.748118
vt 0.645430 0.501882
vt 0.854570 0.501882
vt 0.854570 0.515625
vt 0.645430 0.515625
vt 0.854570 0.612194
vt 0.645430 0.612194
vt 0.645430 0.637806
vt 0.854570 0.637806
vt 0.635085 0.637806
vt 0.635085 0.734375
vt 0.635085 0.500929
vt 0.635085 0.612194
vt 0.635085 0.515625
vn -1.0000 0.0000 0.0000
vn 0.0000 0.0000 -1.0000
vn 1.0000 0.0000 0.0000
vn 0.0000 0.0000 1.0000
vn 0.0000 1.0000 0.0000
vn 0.0000 -1.0000 0.0000
vn -0.4358 0.9001 0.0000
vn 0.0000 0.9000 -0.4358
vn 0.4358 0.9001 0.0000
vn 0.0000 0.9000 0.4358
vn -0.7071 0.7071 0.0000
vn 0.0000 0.7071 -0.7071
vn 0.7071 0.7071 0.0000
vn 0.0000 0.7071 0.7071
usemtl None
s off
f 10/1/1 26/2/1 27/3/1 2/4/1
f 2/4/2 27/3/2 28/5/2 4/6/2
f 12/7/3 29/8/3 30/9/3 3/10/3
f 3/10/4 30/9/4 31/11/4 1/12/4
f 15/13/3 16/14/3 23/15/3 22/16/3
f 79/17/5 78/18/5 34/19/5 35/20/5
f 16/14/3 17/21/3 29/8/3 12/7/3
f 13/22/6 16/14/6 12/7/6 11/23/6
f 10/24/6 9/25/6 15/13/6 14/26/6
f 4/6/3 28/5/3 32/27/3 9/25/3
f 14/26/2 15/13/2 22/16/2 25/28/2
f 76/29/5 79/17/5 35/20/5 33/30/5
f 11/31/1 33/32/1 35/33/1 13/34/1
f 1/35/1 31/36/1 33/32/1 11/31/1
f 71/37/3 67/38/3 51/39/3 38/40/3
f 63/41/1 70/42/1 49/43/1 50/44/1
f 9/25/3 32/27/3 36/45/3 15/13/3
f 78/18/5 69/46/5 26/47/5 34/19/5
f 10/1/1 2/4/1 5/48/1 20/49/1
f 17/21/3 16/14/3 15/13/3 36/45/3
f 34/50/1 14/51/1 13/34/1 35/33/1
f 14/51/1 34/50/1 26/2/1 10/1/1
f 3/10/4 1/12/4 7/52/4 19/53/4
f 11/23/2 12/7/2 21/54/2 8/55/2
f 1/35/1 11/31/1 8/56/1 7/57/1
f 16/14/4 13/22/4 24/58/4 23/15/4
f 4/6/3 9/25/3 18/59/3 6/60/3
f 12/7/3 3/10/3 19/53/3 21/54/3
f 2/4/2 4/6/2 6/60/2 5/48/2
f 13/34/1 14/51/1 25/61/1 24/62/1
f 9/25/4 10/24/4 20/63/4 18/59/4
f 67/38/2 63/41/2 50/44/2 51/39/2
f 69/46/5 64/64/5 27/65/5 26/47/5
f 65/66/3 74/67/3 40/68/3 53/69/3
f 75/70/1 61/71/1 54/72/1 56/73/1
f 70/42/1 77/74/1 57/75/1 49/43/1
f 66/76/5 62/77/5 31/78/5 30/9/5
f 83/79/3 82/80/3 43/81/3 42/82/3
f 82/80/3 71/37/3 38/40/3 43/81/3
f 77/74/1 80/83/1 41/84/1 57/75/1
f 80/83/1 75/70/1 56/73/1 41/84/1
f 74/67/3 83/79/3 42/82/3 40/68/3
f 52/85/5 39/86/5 48/87/5 47/88/5
f 46/89/5 45/90/5 37/91/5 55/92/5
f 55/92/5 37/91/5 44/93/5 60/94/5
f 59/95/5 58/96/5 39/86/5 52/85/5
f 58/96/5 59/95/5 60/94/5 44/93/5
f 62/77/5 76/29/5 33/30/5 31/78/5
f 84/97/5 73/98/5 29/8/5 17/21/5
f 64/64/5 68/99/5 28/5/5 27/65/5
f 81/100/5 84/97/5 17/21/5 36/45/5
f 68/99/5 72/101/5 32/27/5 28/5/5
f 72/101/5 81/100/5 36/45/5 32/27/5
f 73/98/5 66/76/5 30/9/5 29/8/5
f 37/91/7 45/90/7 50/44/7 49/43/7
f 45/90/8 46/89/8 51/39/8 50/44/8
f 52/85/9 47/88/9 53/69/9 40/68/9
f 47/88/10 48/87/10 54/72/10 53/69/10
f 46/89/9 55/92/9 38/40/9 51/39/9
f 48/87/7 39/86/7 56/73/7 54/72/7
f 58/96/7 44/93/7 57/75/7 41/84/7
f 60/94/9 59/95/9 42/82/9 43/81/9
f 44/93/7 37/91/7 49/43/7 57/75/7
f 39/86/7 58/96/7 41/84/7 56/73/7
f 59/95/9 52/85/9 40/68/9 42/82/9
f 55/92/9 60/94/9 43/81/9 38/40/9
f 70/42/11 63/41/11 64/64/11 69/46/11
f 63/41/12 67/38/12 68/99/12 64/64/12
f 74/67/13 65/66/13 66/76/13 73/98/13
f 65/66/14 61/71/14 62/77/14 66/76/14
f 67/38/13 71/37/13 72/101/13 68/99/13
f 61/71/11 75/70/11 76/29/11 62/77/11
f 78/18/11 79/17/11 80/83/11 77/74/11
f 84/97/13 81/100/13 82/80/13 83/79/13
f 77/74/11 70/42/11 69/46/11 78/18/11
f 75/70/11 80/83/11 79/17/11 76/29/11
f 73/98/13 84/97/13 83/79/13 74/67/13
f 81/100/13 72/101/13 71/37/13 82/80/13
f 61/71/4 65/66/4 53/69/4 54/72/4
