# File produced by Open Asset Import Library (http://www.assimp.sf.net)
# (assimp v3.1.128981410)

mtllib BigACUnit.mtl

# vertex positions
v 9.659711 5.083869 -13.368767
v 8.979650 5.083869 -13.368767
v 8.979650 5.083869 -16.368767
v 9.659710 5.083869 -16.368767
v 8.979650 5.083869 -19.368767
v 8.718945 5.344574 -19.368767
v 8.718945 7.083869 -19.368767
v 9.659709 7.083869 -19.368767
v 9.659709 5.083869 -19.368767
v 9.659711 7.083869 -13.368767
v 8.718946 7.083869 -13.368767
v 8.718946 5.344574 -13.368767
v 8.718946 6.904923 -16.273975
v 8.718946 5.523520 -16.273975
v 9.366234 5.523520 -16.273975
v 8.799393 6.904923 -16.273975
v 8.718946 7.083869 -16.368767
v 9.659710 7.083869 -16.368767
v 8.718946 5.344574 -16.368767
v 8.718946 6.904923 -16.463558
v 8.718945 6.904923 -19.189819
v 8.799392 6.904923 -19.189819
v 8.799393 6.904923 -16.463558
v 8.718946 5.428729 -13.452921
v 8.718946 5.428729 -16.368767
v 8.718945 6.999715 -19.284613
v 8.718946 6.999715 -16.368767
v 8.718946 6.999715 -13.452921
v 8.718945 5.428729 -19.284613
v 8.718946 5.523520 -16.463558
v 8.718945 5.523520 -19.189819
v 8.718946 6.904923 -13.547712
v 8.718946 5.523520 -13.547712
v 9.366234 5.523520 -16.463558
v 9.366233 5.523520 -19.189821
v 9.366235 5.523520 -13.547713
v 8.799394 6.904923 -13.547712
v 8.938503 5.973772 -19.252739
v 9.107004 6.100778 -19.252739
v 9.107006 6.100778 -13.491796
v 8.938505 5.973772 -13.491796
v 8.989331 6.160571 -13.491796
v 8.820830 6.033565 -13.491796
v 8.989329 6.160571 -19.252739
v 8.820828 6.033565 -19.252739
v 8.863338 6.129210 -19.252739
v 9.031838 6.256216 -19.252739
v 9.031840 6.256216 -13.491796
v 8.863339 6.129210 -13.491796
v 8.914165 6.316010 -13.491796
v 8.745665 6.189003 -13.491796
v 8.914164 6.316010 -19.252739
v 8.745663 6.189003 -19.252739
v 8.846742 6.289632 -19.252739
v 9.015243 6.416637 -19.252739
v 9.015244 6.416637 -13.491796
v 8.846744 6.289632 -13.491796
v 8.897571 6.476431 -13.491796
v 8.729070 6.349425 -13.491796
v 8.897569 6.476431 -19.252739
v 8.729068 6.349425 -19.252739
v 8.838456 6.448336 -19.252739
v 9.006957 6.575342 -19.252739
v 9.006959 6.575342 -13.491796
v 8.838458 6.448336 -13.491796
v 8.889284 6.635135 -13.491796
v 8.720783 6.508129 -13.491796
v 8.889282 6.635135 -19.252739
v 8.720781 6.508129 -19.252739
v 8.850887 6.795316 -19.252739
v 9.019388 6.922322 -19.252739
v 9.019390 6.922322 -13.491796
v 8.850889 6.795316 -13.491796
v 8.901716 6.982115 -13.491796
v 8.733215 6.855109 -13.491796
v 8.901714 6.982115 -19.252739
v 8.733213 6.855109 -19.252739
v 8.837095 6.621671 -19.234673
v 9.005596 6.748677 -19.234673
v 9.005598 6.748677 -13.473730
v 8.837097 6.621671 -13.473730
v 8.887923 6.808470 -13.473730
v 8.719422 6.681464 -13.473730
v 8.887921 6.808470 -19.234673
v 8.719420 6.681464 -19.234673
v 8.980806 5.802773 -19.252739
v 9.149307 5.929778 -19.252739
v 9.149309 5.929778 -13.491796
v 8.980808 5.802773 -13.491796
v 9.031634 5.989572 -13.491796
v 8.863133 5.862566 -13.491796
v 9.031632 5.989572 -19.252739
v 8.863132 5.862566 -19.252739
v 9.074726 5.661560 -19.252739
v 9.243227 5.788566 -19.252739
v 9.243229 5.788566 -13.491796
v 9.074728 5.661560 -13.491796
v 9.125555 5.848359 -13.491796
v 8.957054 5.721353 -13.491796
v 9.125553 5.848359 -19.252739
v 8.957052 5.721353 -19.252739
v 9.160279 5.513142 -19.252739
v 9.328780 5.640147 -19.252739
v 9.328782 5.640147 -13.491796
v 9.160281 5.513142 -13.491796
v 9.211108 5.699941 -13.491796
v 9.042607 5.572935 -13.491796
v 9.211106 5.699941 -19.252739
v 9.042605 5.572935 -19.252739

# UV coordinates
vt 0.000000 0.222001
vt 0.074812 0.230902
vt 0.194727 0.497194
vt 0.121195 0.516968
vt 0.224403 0.787262
vt 0.261795 0.794977
vt 0.328107 0.950503
vt 0.236151 0.989147
vt 0.156359 0.806014
vt 0.261352 0.000000
vt 0.261958 0.099530
vt 0.108559 0.219759
vt 0.491022 0.280728
vt 0.412594 0.427035
vt 0.337550 0.417599
vt 0.481568 0.284977
vt 0.509802 0.267245
vt 0.555118 0.169440
vt 0.842683 0.236191
vt 0.819927 0.328431
vt 0.235786 0.486253
vt 0.511792 0.288662
vt 0.797342 0.342321
vt 0.795681 0.350147
vt 0.514667 0.297739
vt 0.119445 0.223590
vt 0.245061 0.483644
vt 0.809312 0.334968
vt 0.505569 0.276172
vt 0.263019 0.109586
vt 0.271608 0.790339
vt 0.332767 0.938853
vt 0.416659 0.439102
vt 0.431183 0.431967
vt 0.282546 0.784563
vt 0.337957 0.925645
vt 0.255910 0.493224
vt 0.264382 0.120926
vt 0.131607 0.227968
vt 0.251709 0.470111
vt 0.490299 0.454949
vt 0.769170 0.500031
vt 0.196994 0.232348
vt 0.262998 0.128722
vt 0.349865 0.772192
vt 0.345395 0.922590
vt 0.323034 0.487905
vt 0.833031 0.802739
vt 0.872170 0.875909
vt 0.621095 0.971385
vt 0.617178 0.966514
vt 0.620798 0.975506
vt 0.577247 0.986986
vt 0.888257 0.923163
vt 0.910679 0.999998
vt 0.913007 0.953714
vt 0.805654 0.758580
vt 0.638071 0.804281
vt 0.630839 0.806634
vt 0.686257 0.530814
vt 0.787838 0.576082
vt 0.624168 0.494616
vt 0.627462 0.510575
vt 0.607211 0.510249
vt 0.624039 0.819356
vt 0.610971 0.846064
vt 0.844320 0.612715
vt 0.762338 0.696777
vt 0.842521 0.656593
vt 0.970008 0.893340
vt 0.966481 0.899808
vt 0.973584 0.892058
vt 0.988059 0.939275
vt 0.901357 0.638017
vt 0.997207 0.613920
vt 0.940549 0.611262
vt 0.753765 0.704980
vt 0.535772 0.478509
vt 0.562585 0.476896
vt 0.562685 0.958337
vt 0.535768 0.959686
vt 0.589571 0.968818
vt 0.579551 0.957226
vt 0.606356 0.956168
vt 0.579429 0.476051
vt 0.606356 0.474704
vt 0.518912 0.479101
vt 0.546383 0.466147
vt 0.518929 0.960526
vt 0.448084 0.503272
vt 0.474674 0.501532
vt 0.474684 0.987105
vt 0.448108 0.988264
vt 0.457946 0.999999
vt 0.431374 0.989454
vt 0.518069 0.984740
vt 0.491380 0.986196
vt 0.491369 0.500617
vt 0.518058 0.499157
vt 0.431374 0.503920
vt 0.458598 0.490740
vt 0.981241 0.311985
vt 0.976241 0.329345
vt 0.895349 0.582481
vt 0.773556 0.524774
vt 0.812213 0.575477
vt 0.762519 0.517946
vt 0.997109 0.611994
vt 0.977430 0.611433
vt 0.981666 0.320248
vt 0.997109 0.281177
vt 0.056914 0.990325
vt 0.035196 0.986591
vt 0.035209 0.390488
vt 0.056928 0.394221
vt 0.012629 0.370439
vt 0.021615 0.388482
vt 0.000000 0.384372
vt 0.021612 0.983780
vt 0.000000 0.980471
vt 0.013607 0.999470
vt 0.070514 0.396557
vt 0.070499 0.992661
vt 0.952155 0.011863
vt 0.923871 0.096976
vt 0.666319 0.019717
vt 0.664240 0.012650
vt 0.664697 0.023152
vt 0.621074 0.000000
vt 0.895404 0.151714
vt 0.844667 0.236529
vt 0.886609 0.198346
vt 0.952417 0.000000
vt 0.366061 0.452271
vt 0.390618 0.452894
vt 0.390512 0.980446
vt 0.366094 0.979485
vt 0.375815 0.993726
vt 0.350721 0.979422
vt 0.430368 0.981473
vt 0.405850 0.980841
vt 0.406041 0.453652
vt 0.430535 0.453980
vt 0.415567 0.439892
vt 0.350721 0.451884

# vertex normals
vn 0.000000 -1.000000 0.000000
vn 0.000000 0.000000 -1.000000
vn 0.000000 0.000000 1.000000
vn 0.000000 1.000000 0.000000
vn -0.707107 -0.707107 0.000000
vn -1.000000 0.000000 0.000000
vn -0.925143 -0.379618 0.000000
vn 0.601886 -0.798582 0.000000
vn -0.601886 0.798582 0.000000
vn -0.453004 -0.891508 0.000000
vn 0.453004 0.891508 0.000000

# Mesh
g BigACUnit_Cube.052
usemtl None
f 4/4/1 1/1/1 2/2/1 3/3/1
f 8/8/2 9/9/2 5/5/2 6/6/2 7/7/2
f 1/1/3 10/10/3 11/11/3 12/12/3 2/2/3
f 15/15/3 16/16/3 13/13/3 14/14/3
f 18/18/4 8/19/4 7/20/4 17/17/4
f 3/3/5 2/2/5 12/12/5 19/21/5
f 9/9/1 4/4/1 3/3/1 5/5/1
f 5/5/5 3/3/5 19/21/5 6/6/5
f 10/10/4 18/18/4 17/17/4 11/11/4
f 22/24/1 23/25/1 20/22/1 21/23/1
f 24/26/6 25/27/6 19/21/6 12/12/6
f 27/29/6 17/17/6 7/20/6 26/28/6
f 11/11/6 17/17/6 27/29/6 28/30/6
f 19/21/6 25/27/6 29/31/6 6/6/6
f 11/11/6 28/30/6 24/26/6 12/12/6
f 26/32/6 7/7/6 6/6/6 29/31/6
f 27/29/6 20/22/6 30/34/6 25/33/6
f 20/22/6 27/29/6 26/28/6 21/23/6
f 21/36/6 26/32/6 29/31/6 31/35/6
f 25/27/6 30/37/6 31/35/6 29/31/6
f 28/30/6 32/38/6 33/39/6 24/26/6
f 28/30/6 27/29/6 13/13/6 32/38/6
f 13/13/6 27/29/6 25/33/6 14/14/6
f 33/39/6 14/40/6 25/27/6 24/26/6
f 35/42/7 34/41/7 23/25/7 22/24/7
f 15/15/7 36/43/7 37/44/7 16/16/7
f 23/25/2 34/41/2 30/34/2 20/22/2
f 36/43/4 15/15/4 14/40/4 33/39/4
f 35/45/3 22/46/3 21/36/3 31/35/3
f 34/47/4 35/45/4 31/35/4 30/37/4
f 16/16/1 37/44/1 32/38/1 13/13/1
f 37/44/2 36/43/2 33/39/2 32/38/2
f 39/49/8 40/50/8 41/51/8 38/48/8
f 40/50/3 42/52/3 43/53/3 41/51/3
f 42/52/9 44/54/9 45/55/9 43/53/9
f 44/54/2 39/49/2 38/56/2 45/55/2
f 38/48/10 41/51/10 43/53/10 45/57/10
f 40/50/11 39/49/11 44/54/11 42/52/11
f 47/59/8 48/60/8 49/61/8 46/58/8
f 48/60/3 50/63/3 51/64/3 49/62/3
f 50/63/9 52/65/9 53/66/9 51/64/9
f 52/65/2 47/59/2 46/58/2 53/66/2
f 46/58/10 49/61/10 51/67/10 53/66/10
f 48/60/11 47/59/11 52/65/11 50/63/11
f 55/69/8 56/70/8 57/71/8 54/68/8
f 56/70/3 58/72/3 59/73/3 57/71/3
f 58/72/9 60/74/9 61/75/9 59/73/9
f 60/74/2 55/69/2 54/76/2 61/75/2
f 54/68/10 57/71/10 59/73/10 61/77/10
f 56/70/11 55/69/11 60/74/11 58/72/11
f 63/79/8 64/80/8 65/81/8 62/78/8
f 64/80/3 66/83/3 67/84/3 65/82/3
f 66/83/9 68/85/9 69/86/9 67/84/9
f 68/88/2 63/79/2 62/78/2 69/87/2
f 62/78/10 65/81/10 67/89/10 69/87/10
f 64/80/11 63/79/11 68/85/11 66/83/11
f 71/91/8 72/92/8 73/93/8 70/90/8
f 72/92/3 74/94/3 75/95/3 73/93/3
f 74/97/9 76/98/9 77/99/9 75/96/9
f 76/101/2 71/91/2 70/90/2 77/100/2
f 70/90/10 73/93/10 75/95/10 77/100/10
f 72/92/11 71/91/11 76/98/11 74/97/11
f 79/103/8 80/104/8 81/105/8 78/102/8
f 80/104/3 82/106/3 83/107/3 81/105/3
f 82/109/9 84/110/9 85/111/9 83/108/9
f 84/110/2 79/103/2 78/102/2 85/111/2
f 78/102/10 81/105/10 83/107/10 85/111/10
f 80/104/11 79/103/11 84/110/11 82/109/11
f 87/113/8 88/114/8 89/115/8 86/112/8
f 88/114/3 90/117/3 91/118/3 89/116/3
f 90/117/9 92/119/9 93/120/9 91/118/9
f 92/119/2 87/113/2 86/121/2 93/120/2
f 86/112/10 89/115/10 91/122/10 93/123/10
f 88/114/11 87/113/11 92/119/11 90/117/11
f 95/125/8 96/126/8 97/127/8 94/124/8
f 96/126/3 98/128/3 99/129/3 97/127/3
f 98/128/9 100/130/9 101/131/9 99/129/9
f 100/130/2 95/125/2 94/132/2 101/131/2
f 94/124/10 97/127/10 99/129/10 101/133/10
f 96/126/11 95/125/11 100/130/11 98/128/11
f 103/135/8 104/136/8 105/137/8 102/134/8
f 104/136/3 106/138/3 107/139/3 105/137/3
f 106/141/9 108/142/9 109/143/9 107/140/9
f 108/142/2 103/135/2 102/144/2 109/143/2
f 102/134/10 105/137/10 107/139/10 109/145/10
f 104/136/11 103/135/11 108/142/11 106/141/11
