# File produced by Open Asset Import Library (http://www.assimp.sf.net)
# (assimp v3.1.128981410)

mtllib Leatherbench.mtl

# vertex positions
v 0.137212 0.493309 5.376697
v 0.137212 0.693309 5.376697
v 0.137212 0.693309 4.901695
v 0.137212 0.493309 4.901695
v 0.837212 0.693309 4.901695
v 0.837212 0.493309 4.901695
v 0.837212 0.493309 12.026694
v 0.837212 0.693309 12.026694
v 0.837212 0.693309 12.501695
v 0.837212 0.493309 12.501695
v 0.137212 0.693309 12.501695
v 0.137212 0.493309 12.501695
v 0.837212 0.493309 8.312402
v 0.837212 0.493309 9.090989
v 0.837212 -0.036237 9.090989
v 0.837212 -0.036237 8.312402
v 0.165450 0.693309 9.090989
v 0.165450 0.693309 8.312402
v 0.137212 0.693309 8.312402
v 0.137212 0.693309 9.090989
v 0.837212 0.693309 9.090989
v 0.137212 0.493309 9.090989
v 0.137212 0.493309 12.026694
v 0.837212 0.493309 5.376697
v 0.137212 0.493309 8.312402
v 0.837212 0.693309 5.376697
v 0.137212 -0.036237 8.312402
v 0.165450 0.693309 12.026694
v 0.137212 0.693309 12.026694
v 0.802809 0.699474 5.376697
v 0.802809 0.699474 4.936098
v 0.802809 0.807092 4.936098
v 0.802809 0.807092 5.376697
v 0.171615 0.699474 4.936098
v 0.171615 0.699474 5.376697
v 0.171615 0.807092 5.376697
v 0.171615 0.807092 4.936098
v 0.837212 0.693309 8.312402
v 0.165450 0.693309 5.376697
v 0.137212 -0.036237 4.901695
v 0.137212 -0.036237 5.376697
v 0.137212 -0.036237 12.501695
v 0.837212 -0.036237 12.501695
v 0.837212 -0.036237 12.026694
v 0.137212 -0.036237 12.026694
v 0.137212 -0.036237 9.090989
v 0.837212 -0.036237 5.376697
v 0.837212 -0.036237 4.901695
v 0.165450 0.693309 4.929935
v 0.802809 0.699474 12.467292
v 0.802809 0.699474 12.026694
v 0.802809 0.807092 12.026694
v 0.802809 0.807092 12.467292
v 0.171615 0.699474 12.026694
v 0.171615 0.699474 12.467292
v 0.171615 0.807092 12.467292
v 0.171615 0.807092 12.026694
v 0.171615 0.699474 8.312402
v 0.171615 0.807092 8.312402
v 0.808974 0.693309 12.473456
v 0.165450 0.693309 12.473456
v 0.802809 0.699474 9.090989
v 0.802809 0.699474 8.312402
v 0.802809 0.807092 8.312402
v 0.802809 0.807092 9.090989
v 0.171615 0.699474 9.090989
v 0.171615 0.807092 9.090989
v 0.780008 0.818132 12.026694
v 0.194417 0.818132 12.026694
v 0.194417 0.818132 12.444491
v 0.780008 0.818132 12.444491
v 0.780008 0.818132 4.958899
v 0.194417 0.818132 4.958899
v 0.194417 0.818132 5.376697
v 0.780008 0.818132 5.376697
v 0.194417 0.818132 8.312402
v 0.780008 0.818132 8.312402
v 0.780008 0.818132 9.090989
v 0.194417 0.818132 9.090989
v 0.808974 0.693309 9.090989
v 0.808974 0.693309 12.026694
v 0.808974 0.693309 4.929935
v 0.808974 0.693309 8.312402
v 0.808974 0.693309 5.376697

# UV coordinates
vt 0.763504 0.862526
vt 0.771457 0.833341
vt 0.826051 0.834156
vt 0.837473 0.852541
vt 0.878447 0.754997
vt 0.896623 0.776980
vt 0.295272 0.144952
vt 0.271816 0.162598
vt 0.235356 0.120309
vt 0.247825 0.098301
vt 0.152537 0.093693
vt 0.160557 0.068323
vt 0.525389 0.522508
vt 0.472017 0.462032
vt 0.518904 0.402623
vt 0.580079 0.468242
vt 0.351908 0.560359
vt 0.438668 0.654160
vt 0.436600 0.657691
vt 0.348695 0.562703
vt 0.450229 0.480052
vt 0.325688 0.578682
vt 0.231614 0.621637
vt 0.051646 0.306355
vt 0.129205 0.244423
vt 0.713838 0.947194
vt 0.392062 0.784573
vt 0.422296 0.683060
vt 0.890320 0.730675
vt 0.827791 0.709315
vt 0.841563 0.684232
vt 0.332546 0.796866
vt 0.347163 0.716860
vt 0.159509 0.230052
vt 0.155806 0.231817
vt 0.127027 0.170185
vt 0.147783 0.163096
vt 0.825221 0.713879
vt 0.872172 0.755745
vt 0.856729 0.762279
vt 0.817213 0.727503
vt 0.824684 0.829715
vt 0.773046 0.828063
vt 0.777799 0.812808
vt 0.819690 0.817721
vt 0.509921 0.546489
vt 0.772667 0.829304
vt 0.873138 0.905281
vt 0.811572 0.930855
vt 0.184404 0.000000
vt 0.277315 0.035821
vt 0.000000 0.269607
vt 0.056469 0.207974
vt 0.066694 0.153355
vt 0.309979 0.648584
vt 0.236884 0.687101
vt 0.896155 0.630098
vt 0.937460 0.678819
vt 0.338837 0.072779
vt 0.944235 0.831467
vt 0.755685 0.999999
vt 0.825089 0.830792
vt 0.233547 0.125921
vt 0.267508 0.165827
vt 0.254472 0.175336
vt 0.228977 0.140157
vt 0.160653 0.229509
vt 0.152716 0.166021
vt 0.164746 0.171541
vt 0.174685 0.222866
vt 0.439311 0.653071
vt 0.447301 0.639763
vt 0.233913 0.124693
vt 0.151669 0.165436
vt 0.446203 0.483438
vt 0.507060 0.550889
vt 0.498678 0.563695
vt 0.434473 0.493357
vt 0.352899 0.559628
vt 0.365066 0.550427
vt 0.251369 0.177516
vt 0.178087 0.221209
vt 0.167944 0.173218
vt 0.227900 0.143770
vt 0.852994 0.762531
vt 0.817487 0.812724
vt 0.778994 0.809152
vt 0.815346 0.730715
vt 0.449232 0.636624
vt 0.496693 0.566718
vt 0.431719 0.495687
vt 0.367901 0.548245
vt 0.447152 0.482640
vt 0.268524 0.165066
vt 0.873543 0.755585
vt 0.507737 0.549850
vt 0.825829 0.712803

# vertex normals
vn -1.000000 0.000000 0.000000
vn 0.000000 0.000000 -1.000000
vn 1.000000 0.000000 0.000000
vn 0.000000 0.000000 1.000000
vn 0.000000 1.000000 0.000000
vn 0.000000 -1.000000 0.000000
vn -0.435778 0.900054 0.000000
vn 0.000000 0.900035 -0.435817
vn 0.435778 0.900054 0.000000
vn 0.000000 0.900035 0.435817
vn -0.707107 0.707107 0.000000
vn 0.000000 0.707107 -0.707107
vn 0.707107 0.707107 0.000000
vn 0.000000 0.707107 0.707107

# Mesh
g Bench_Cube.025
usemtl None
f 2/2/1 3/3/1 4/4/1 1/1/1
f 5/5/2 6/6/2 4/4/2 3/3/2
f 8/8/3 9/9/3 10/10/3 7/7/3
f 10/10/4 9/9/4 11/11/4 12/12/4
f 13/13/3 14/14/3 15/15/3 16/16/3
f 17/17/5 18/18/5 19/19/5 20/20/5
f 21/21/3 8/8/3 7/7/3 14/14/3
f 14/23/6 7/24/6 23/25/6 22/22/6
f 24/26/6 13/27/6 25/28/6 1/1/6
f 5/5/3 26/30/3 24/31/3 6/29/3
f 13/27/2 16/32/2 27/33/2 25/28/2
f 28/34/5 17/17/5 20/20/5 29/35/5
f 29/35/1 20/20/1 22/22/1 23/25/1
f 11/37/1 29/35/1 23/25/1 12/36/1
f 32/40/3 33/41/3 30/38/3 31/39/3
f 36/44/1 37/45/1 34/42/1 35/43/1
f 26/30/3 38/46/3 13/13/3 24/31/3
f 18/18/5 39/47/5 2/2/5 19/19/5
f 1/1/1 4/4/1 40/48/1 41/49/1
f 38/46/3 21/21/3 14/14/3 13/13/3
f 20/20/1 19/19/1 25/28/1 22/22/1
f 19/19/1 2/2/1 1/1/1 25/28/1
f 43/51/4 10/10/4 12/12/4 42/50/4
f 7/24/2 44/52/2 45/53/2 23/25/2
f 12/36/1 23/25/1 45/53/1 42/54/1
f 15/56/4 14/23/4 22/22/4 46/55/4
f 6/29/3 24/31/3 47/57/3 48/58/3
f 7/7/3 10/10/3 43/51/3 44/59/3
f 6/6/2 48/60/2 40/48/2 4/4/2
f 22/22/1 25/28/1 27/33/1 46/55/1
f 47/61/4 24/26/4 1/1/4 41/49/4
f 32/40/2 31/39/2 34/42/2 37/45/2
f 39/47/5 49/62/5 3/3/5 2/2/5
f 52/65/3 53/66/3 50/63/3 51/64/3
f 56/69/1 57/70/1 54/67/1 55/68/1
f 59/72/1 36/44/1 35/43/1 58/71/1
f 9/9/5 60/73/5 61/74/5 11/37/5
f 64/77/3 65/78/3 62/75/3 63/76/3
f 33/41/3 64/77/3 63/76/3 30/38/3
f 67/80/1 59/72/1 58/71/1 66/79/1
f 57/70/1 67/80/1 66/79/1 54/67/1
f 65/78/3 52/65/3 51/64/3 62/75/3
f 71/84/5 68/81/5 69/82/5 70/83/5
f 75/88/5 72/85/5 73/86/5 74/87/5
f 77/90/5 75/88/5 74/87/5 76/89/5
f 68/81/5 78/91/5 79/92/5 69/82/5
f 78/91/5 77/90/5 76/89/5 79/92/5
f 61/74/5 28/34/5 29/35/5 11/37/5
f 8/8/5 21/21/5 80/93/5 81/94/5
f 82/95/5 5/5/5 3/3/5 49/62/5
f 21/21/5 38/46/5 83/96/5 80/93/5
f 26/30/5 5/5/5 82/95/5 84/97/5
f 38/46/5 26/30/5 84/97/5 83/96/5
f 9/9/5 8/8/5 81/94/5 60/73/5
f 74/87/7 73/86/7 37/45/7 36/44/7
f 72/85/8 32/40/8 37/45/8 73/86/8
f 53/66/9 52/65/9 68/81/9 71/84/9
f 53/66/10 71/84/10 70/83/10 56/69/10
f 33/41/9 32/40/9 72/85/9 75/88/9
f 70/83/7 69/82/7 57/70/7 56/69/7
f 79/92/7 76/89/7 59/72/7 67/80/7
f 65/78/9 64/77/9 77/90/9 78/91/9
f 76/89/7 74/87/7 36/44/7 59/72/7
f 69/82/7 79/92/7 67/80/7 57/70/7
f 52/65/9 65/78/9 78/91/9 68/81/9
f 64/77/9 33/41/9 75/88/9 77/90/9
f 35/43/11 34/42/11 49/62/11 39/47/11
f 31/39/12 82/95/12 49/62/12 34/42/12
f 60/73/13 81/94/13 51/64/13 50/63/13
f 60/73/14 50/63/14 55/68/14 61/74/14
f 84/97/13 82/95/13 31/39/13 30/38/13
f 55/68/11 54/67/11 28/34/11 61/74/11
f 66/79/11 58/71/11 18/18/11 17/17/11
f 80/93/13 83/96/13 63/76/13 62/75/13
f 58/71/11 35/43/11 39/47/11 18/18/11
f 54/67/11 66/79/11 17/17/11 28/34/11
f 81/94/13 80/93/13 62/75/13 51/64/13
f 83/96/13 84/97/13 30/38/13 63/76/13
f 50/63/4 53/66/4 56/69/4 55/68/4
