# Blender v2.91.2 OBJ File: 'OldButton.blend'
# www.blender.org
mtllib OldButton.mtl
o Cube.024_Cube.030
v 6.128180 14.590901 19.458918
v 6.128180 14.590901 13.500027
v 9.597157 14.590901 19.458918
v 9.597157 14.590901 13.500027
v 5.462668 14.590901 12.668139
v 5.462668 14.590901 20.290806
v 10.262669 14.590901 12.668139
v 10.262669 14.590901 20.290806
v 6.183441 14.707632 13.594952
v 6.183441 14.707632 19.363991
v 9.541896 14.707632 13.594952
v 9.541896 14.707632 19.363991
v 5.541656 14.790902 20.192070
v 5.462668 14.725085 20.290806
v 5.541656 14.790902 12.766874
v 5.462668 14.725085 12.668139
v 10.183681 14.790902 20.192070
v 10.262669 14.725085 20.290806
v 10.183681 14.790902 12.766874
v 10.262669 14.725085 12.668139
vt 0.629114 0.503238
vt 0.870886 0.503238
vt 0.870886 0.746762
vt 0.629114 0.746762
vt 0.375000 0.500000
vt 0.620886 0.500000
vt 0.620886 0.750000
vt 0.375000 0.750000
vt 0.375000 0.000000
vt 0.620886 0.000000
vt 0.620886 0.250000
vt 0.375000 0.250000
vt 0.159662 0.722717
vt 0.159662 0.527283
vt 0.159662 0.527283
vt 0.159662 0.722717
vt 0.125000 0.750000
vt 0.125000 0.500000
vt 0.340338 0.527283
vt 0.340338 0.722717
vt 0.340338 0.527283
vt 0.340338 0.722717
vt 0.875000 0.500000
vt 0.875000 0.750000
vt 0.625000 0.500000
vt 0.625000 0.750000
vt 0.620886 1.000000
vt 0.375000 1.000000
vn 0.0000 1.0000 0.0000
vn 1.0000 0.0000 0.0000
vn -1.0000 0.0000 0.0000
vn 0.9038 -0.4279 0.0000
vn 0.0000 0.0000 -1.0000
vn 0.0000 -1.0000 0.0000
vn 0.0000 -0.6309 -0.7758
vn 0.0000 -0.6309 0.7759
vn -0.9038 -0.4279 0.0000
vn -0.6401 0.7683 0.0000
vn 0.0000 0.8321 -0.5547
vn 0.6401 0.7683 0.0000
vn 0.0000 0.8321 0.5547
vn 0.0000 0.0000 1.0000
usemtl None
s off
f 19/1/1 15/2/1 13/3/1 17/4/1
f 7/5/2 20/6/2 18/7/2 8/8/2
f 6/9/3 14/10/3 16/11/3 5/12/3
f 1/13/4 2/14/4 9/15/4 10/16/4
f 5/12/5 16/11/5 20/6/5 7/5/5
f 2/14/6 1/13/6 6/17/6 5/18/6
f 4/19/6 2/14/6 5/18/6 7/5/6
f 3/20/6 4/19/6 7/5/6 8/8/6
f 1/13/6 3/20/6 8/8/6 6/17/6
f 9/15/6 11/21/6 12/22/6 10/16/6
f 3/20/7 1/13/7 10/16/7 12/22/7
f 2/14/8 4/19/8 11/21/8 9/15/8
f 4/19/9 3/20/9 12/22/9 11/21/9
f 13/3/10 15/2/10 16/23/10 14/24/10
f 15/2/11 19/1/11 20/25/11 16/23/11
f 19/1/12 17/4/12 18/7/12 20/6/12
f 17/4/13 13/3/13 14/24/13 18/26/13
f 8/8/14 18/7/14 14/27/14 6/28/14
o Cylinder.010_Cylinder.018
v 0.018211 0.393580 -0.142342
v 0.015300 0.278812 -0.142431
v 0.008270 0.197721 -0.061467
v 0.001241 0.197811 0.053123
v -0.001671 0.279027 0.134213
v 0.001241 0.393795 0.134302
v 0.008270 0.474885 0.053339
v 0.015300 0.474796 -0.061251
v 0.189395 0.390484 -0.134868
v 0.214684 0.384236 -0.106616
v 0.212065 0.281027 -0.106697
v 0.186483 0.275716 -0.134957
v 0.207379 0.226813 -0.052785
v 0.179454 0.194626 -0.053993
v 0.200350 0.226902 0.061804
v 0.172424 0.194715 0.060596
v 0.198417 0.281200 0.115800
v 0.169513 0.275932 0.141686
v 0.201035 0.384409 0.115880
v 0.172424 0.390700 0.141776
v 0.205721 0.438623 0.061969
v 0.179454 0.471790 0.060812
v 0.212751 0.438534 -0.052620
v 0.186483 0.471701 -0.053778
vt 0.840022 0.325709
vt 0.956125 0.326554
vt 0.955156 0.381553
vt 0.839054 0.380708
vt 0.643084 0.172627
vt 0.643084 0.056522
vt 0.720852 0.055149
vt 0.720851 0.171255
vt 0.507504 0.059202
vt 0.507504 0.202688
vt 0.470882 0.165919
vt 0.470882 0.095972
vt 0.839047 0.192930
vt 0.955150 0.193775
vt 0.956122 0.248774
vt 0.840020 0.247929
vt 0.585284 0.202689
vt 0.585284 0.059202
vt 0.554590 0.646344
vt 0.670695 0.646344
vt 0.669323 0.724112
vt 0.553217 0.724112
vt 0.839025 0.519121
vt 0.955131 0.519121
vt 0.955699 0.574125
vt 0.839594 0.574125
vt 0.839594 0.441343
vt 0.955699 0.441343
vt 0.840966 0.386353
vt 0.957072 0.386353
vt 0.621906 0.165919
vt 0.621906 0.095972
vt 0.639959 0.091921
vt 0.639958 0.169701
vt 0.688778 0.656565
vt 0.687863 0.708453
vt 0.507180 0.036922
vt 0.584960 0.036922
vt 0.974239 0.457003
vt 0.973862 0.508898
vt 0.452181 0.169701
vt 0.452181 0.091921
vt 0.653305 0.037848
vt 0.705193 0.036933
vt 0.584959 0.224700
vt 0.507180 0.224700
vt 0.974224 0.264567
vt 0.974224 0.316463
vn 0.0436 -0.0003 -0.9990
vn -0.0181 0.7072 0.7068
vn 0.9978 -0.0254 0.0612
vn 0.0181 0.9998 0.0003
vn 0.0181 -0.7072 -0.7068
vn -0.0436 0.0003 0.9990
vn 0.0436 0.7067 -0.7062
vn -0.0436 -0.7067 0.7062
vn -0.0181 -0.9998 -0.0003
vn 0.7430 -0.0183 -0.6691
vn 0.6645 -0.5556 -0.4997
vn 0.7536 -0.6556 0.0467
vn 0.6099 -0.5484 0.5721
vn 0.6688 -0.0175 0.7432
vn 0.6323 0.5188 0.5753
vn 0.7822 0.6212 0.0475
vn 0.6875 0.5248 -0.5019
usemtl None
s off
f 21/29/15 29/30/15 32/31/15 22/32/15
f 26/33/16 40/34/16 42/35/16 27/36/16
f 35/37/17 41/38/17 39/39/17 37/40/17
f 27/41/18 42/42/18 44/43/18 28/44/18
f 43/45/17 41/38/17 35/37/17 33/46/17
f 22/47/19 32/48/19 34/49/19 23/50/19
f 25/51/20 38/52/20 40/53/20 26/54/20
f 28/44/21 44/43/21 29/30/21 21/29/21
f 24/55/22 36/56/22 38/52/22 25/51/22
f 23/57/23 34/58/23 36/56/23 24/55/23
f 30/59/24 31/60/24 32/61/24 29/62/24
f 31/63/25 33/64/25 34/49/25 32/48/25
f 33/46/26 35/37/26 36/65/26 34/66/26
f 35/67/27 37/68/27 38/52/27 36/56/27
f 37/40/28 39/39/28 40/69/28 38/70/28
f 39/71/29 41/72/29 42/35/29 40/34/29
f 41/38/30 43/45/30 44/73/30 42/74/30
f 43/75/31 30/76/31 29/30/31 44/43/31
f 30/59/17 43/45/17 33/46/17 31/60/17
o Cylinder.012_Cylinder.020
v 0.018211 0.048551 -0.142342
v 0.015300 -0.066217 -0.142431
v 0.008270 -0.147307 -0.061467
v 0.001241 -0.147218 0.053123
v -0.001671 -0.066002 0.134213
v 0.001241 0.048766 0.134302
v 0.008270 0.129856 0.053339
v 0.015300 0.129767 -0.061251
v 0.189395 0.045455 -0.134868
v 0.214684 0.039207 -0.106616
v 0.212065 -0.064002 -0.106697
v 0.186483 -0.069313 -0.134957
v 0.207379 -0.118216 -0.052785
v 0.179454 -0.150403 -0.053993
v 0.200350 -0.118127 0.061804
v 0.172424 -0.150314 0.060596
v 0.198417 -0.063829 0.115800
v 0.169513 -0.069097 0.141686
v 0.201035 0.039380 0.115880
v 0.172424 0.045671 0.141776
v 0.205721 0.093594 0.061969
v 0.179454 0.126761 0.060812
v 0.212751 0.093505 -0.052620
v 0.186483 0.126672 -0.053778
vt 0.839988 0.134352
vt 0.956091 0.135196
vt 0.955122 0.190195
vt 0.839019 0.189350
vt 0.294973 0.185108
vt 0.294973 0.069002
vt 0.372741 0.067630
vt 0.372741 0.183735
vt 0.942660 0.976162
vt 0.942660 0.832675
vt 0.979282 0.869445
vt 0.979282 0.939392
vt 0.839013 0.001573
vt 0.955115 0.002418
vt 0.956088 0.057416
vt 0.839985 0.056571
vt 0.864880 0.832675
vt 0.864880 0.976162
vt 0.733579 0.254049
vt 0.617474 0.254049
vt 0.618847 0.176281
vt 0.734952 0.176281
vt 0.839022 0.710474
vt 0.955128 0.710474
vt 0.955696 0.765478
vt 0.839591 0.765478
vt 0.839591 0.632696
vt 0.955696 0.632696
vt 0.840963 0.577706
vt 0.957069 0.577706
vt 0.828258 0.869445
vt 0.828258 0.939392
vt 0.810206 0.943443
vt 0.810205 0.865663
vt 0.599391 0.243828
vt 0.600306 0.191940
vt 0.942984 0.998442
vt 0.865204 0.998442
vt 0.974236 0.648357
vt 0.973859 0.700252
vt 0.997983 0.865663
vt 0.997983 0.943443
vt 0.305194 0.050328
vt 0.357082 0.049413
vt 0.865204 0.810664
vt 0.942984 0.810664
vt 0.974190 0.073209
vt 0.974190 0.125105
vn 0.0436 -0.0003 -0.9990
vn -0.0181 0.7072 0.7068
vn 0.9978 -0.0254 0.0612
vn 0.0181 0.9998 0.0003
vn 0.0181 -0.7072 -0.7068
vn -0.0436 0.0003 0.9990
vn 0.0436 0.7067 -0.7062
vn -0.0436 -0.7067 0.7062
vn -0.0181 -0.9998 -0.0003
vn 0.7430 -0.0183 -0.6691
vn 0.6645 -0.5556 -0.4997
vn 0.7536 -0.6556 0.0467
vn 0.6099 -0.5484 0.5721
vn 0.6688 -0.0175 0.7432
vn 0.6323 0.5188 0.5753
vn 0.7822 0.6212 0.0475
vn 0.6875 0.5248 -0.5019
usemtl None
s off
f 45/77/32 53/78/32 56/79/32 46/80/32
f 50/81/33 64/82/33 66/83/33 51/84/33
f 59/85/34 65/86/34 63/87/34 61/88/34
f 51/89/35 66/90/35 68/91/35 52/92/35
f 67/93/34 65/86/34 59/85/34 57/94/34
f 46/95/36 56/96/36 58/97/36 47/98/36
f 49/99/37 62/100/37 64/101/37 50/102/37
f 52/92/38 68/91/38 53/78/38 45/77/38
f 48/103/39 60/104/39 62/100/39 49/99/39
f 47/105/40 58/106/40 60/104/40 48/103/40
f 54/107/41 55/108/41 56/109/41 53/110/41
f 55/111/42 57/112/42 58/97/42 56/96/42
f 57/94/43 59/85/43 60/113/43 58/114/43
f 59/115/44 61/116/44 62/100/44 60/104/44
f 61/88/45 63/87/45 64/117/45 62/118/45
f 63/119/46 65/120/46 66/83/46 64/82/46
f 65/86/47 67/93/47 68/121/47 66/122/47
f 67/123/48 54/124/48 53/78/48 68/91/48
f 54/107/34 67/93/34 57/94/34 55/108/34
o Cube.003_Cube.006
v 0.018451 0.059406 -0.168547
v 0.014998 -0.076674 -0.168652
v 0.006663 -0.172821 -0.072655
v -0.001671 -0.172715 0.063213
v -0.005123 -0.076418 0.159361
v -0.001671 0.059662 0.159466
v 0.006663 0.155809 0.063469
v 0.014998 0.155704 -0.072399
v 0.024939 0.048552 -0.142342
v 0.022027 -0.066216 -0.142431
v 0.014997 -0.147306 -0.061466
v 0.007968 -0.147218 0.053122
v 0.005056 -0.066001 0.134212
v 0.007968 0.048767 0.134302
v 0.014997 0.129857 0.053337
v 0.022027 0.129768 -0.061253
v 0.046038 0.054081 -0.155691
v 0.043469 0.049317 -0.144190
v 0.040528 -0.066786 -0.144278
v 0.042879 -0.071323 -0.155777
v 0.033340 -0.148794 -0.062380
v 0.035254 -0.159901 -0.067303
v 0.026150 -0.148705 0.053541
v 0.027633 -0.159778 0.057871
v 0.023177 -0.066559 0.135559
v 0.024476 -0.071063 0.146433
v 0.026115 0.049526 0.135651
v 0.027633 0.054291 0.146542
v 0.033338 0.131572 0.053749
v 0.035254 0.142889 0.058117
v 0.040528 0.131477 -0.062155
v 0.042879 0.142817 -0.067078
v 0.018451 0.404435 -0.168547
v 0.014998 0.268355 -0.168652
v 0.006663 0.172208 -0.072655
v -0.001671 0.172314 0.063213
v -0.005123 0.268611 0.159361
v -0.001671 0.404691 0.159466
v 0.006663 0.500838 0.063469
v 0.014998 0.500732 -0.072399
v 0.024939 0.393580 -0.142342
v 0.022027 0.278812 -0.142431
v 0.014997 0.197722 -0.061466
v 0.007968 0.197811 0.053122
v 0.005056 0.279028 0.134212
v 0.007968 0.393796 0.134302
v 0.014997 0.474886 0.053337
v 0.022027 0.474797 -0.061253
v 0.046038 0.399110 -0.155691
v 0.043469 0.394346 -0.144190
v 0.040528 0.278243 -0.144278
v 0.042879 0.273705 -0.155777
v 0.033340 0.196235 -0.062380
v 0.035254 0.185128 -0.067303
v 0.026150 0.196323 0.053541
v 0.027633 0.185251 0.057871
v 0.023177 0.278470 0.135559
v 0.024476 0.273966 0.146433
v 0.026115 0.394555 0.135651
v 0.027633 0.399320 0.146542
v 0.033338 0.476601 0.053749
v 0.035254 0.487918 0.058117
v 0.040528 0.476506 -0.062155
v 0.042879 0.487845 -0.067078
v 0.000000 0.604928 0.229929
v 0.000000 -0.604928 0.229929
v 0.000000 0.604928 -0.229929
v 0.000000 -0.604928 -0.229929
v 0.079670 0.527660 -0.172270
v 0.079670 0.527660 0.172270
v 0.079670 -0.527660 0.172270
v 0.079670 -0.527660 -0.172270
v 0.079670 0.573296 -0.217905
v 0.079670 0.573296 0.217905
v 0.079670 -0.573296 0.217905
v 0.079670 -0.573296 -0.217905
v 0.006108 0.527660 -0.172270
v 0.006108 0.527660 0.172270
v 0.006108 -0.527660 0.172270
v 0.006108 -0.527660 -0.172270
v 0.079670 -0.290677 0.057919
v 0.079670 -0.406515 0.057919
v 0.079670 -0.290677 -0.057919
v 0.079670 -0.406515 -0.057919
v 0.006108 -0.253470 -0.095126
v 0.006108 -0.253470 0.095126
v 0.006108 -0.443722 0.095126
v 0.006108 -0.443722 -0.095126
v 0.079670 -0.268905 -0.079691
v 0.079670 -0.268905 0.079691
v 0.079670 -0.428287 0.079691
v 0.079670 -0.428287 -0.079691
v 0.079670 -0.283123 -0.065473
v 0.079670 -0.283123 0.065473
v 0.079670 -0.414069 0.065473
v 0.079670 -0.414069 -0.065473
v 0.064758 -0.286958 -0.061638
v 0.064758 -0.286958 0.061638
v 0.064758 -0.410235 0.061638
v 0.064758 -0.410235 -0.061638
vt 0.290515 0.079050
vt 0.290568 0.157736
vt 0.278162 0.156357
vt 0.278162 0.078579
vt 0.136189 0.775936
vt 0.191704 0.775319
vt 0.191013 0.787658
vt 0.136126 0.788249
vt 0.057517 0.775962
vt 0.058346 0.788270
vt 0.001755 0.775319
vt 0.003236 0.787709
vt 0.196153 0.036918
vt 0.274829 0.036972
vt 0.275310 0.049443
vt 0.197530 0.049443
vt 0.983590 0.571542
vt 0.989937 0.627102
vt 0.977348 0.627170
vt 0.971126 0.572234
vt 0.989929 0.705786
vt 0.983631 0.761487
vt 0.971115 0.760011
vt 0.977344 0.704950
vt 0.557137 0.250069
vt 0.496946 0.246457
vt 0.498544 0.226194
vt 0.563858 0.230157
vt 0.412062 0.250087
vt 0.406404 0.230091
vt 0.971203 0.560900
vt 0.977975 0.500753
vt 0.998360 0.504869
vt 0.990991 0.570156
vt 0.977975 0.415799
vt 0.998343 0.412646
vt 0.971203 0.355779
vt 0.990949 0.347510
vt 0.702791 0.794915
vt 0.704618 0.709959
vt 0.724355 0.707918
vt 0.722415 0.800121
vt 0.702791 0.649972
vt 0.722355 0.642830
vt 0.035709 0.097004
vt 0.095808 0.036917
vt 0.099060 0.044770
vt 0.043415 0.100397
vt 0.035709 0.181960
vt 0.043409 0.179049
vt 0.095785 0.242009
vt 0.099034 0.234675
vt 0.180735 0.242000
vt 0.177701 0.234673
vt 0.240821 0.181947
vt 0.233340 0.179057
vt 0.240855 0.097006
vt 0.233361 0.100385
vt 0.180793 0.036922
vt 0.177742 0.044770
vt 0.497024 0.056115
vt 0.412036 0.056131
vt 0.407942 0.036922
vt 0.500165 0.036922
vt 0.206558 0.079052
vt 0.206611 0.157738
vt 0.194205 0.156359
vt 0.194205 0.078580
vt 0.136193 0.759300
vt 0.191709 0.758684
vt 0.191018 0.771022
vt 0.136130 0.771613
vt 0.057521 0.759326
vt 0.058351 0.771634
vt 0.001760 0.758684
vt 0.003240 0.771073
vt 0.099931 0.049397
vt 0.178607 0.049451
vt 0.179088 0.061923
vt 0.101308 0.061923
vt 0.225753 0.253398
vt 0.170194 0.259745
vt 0.170125 0.247157
vt 0.225061 0.240934
vt 0.091509 0.259737
vt 0.035808 0.253439
vt 0.037284 0.240923
vt 0.092345 0.247152
vt 0.399688 0.062932
vt 0.396076 0.123124
vt 0.375812 0.121525
vt 0.379776 0.056211
vt 0.399705 0.208008
vt 0.379710 0.213666
vt 0.970533 0.215626
vt 0.977305 0.155480
vt 0.997690 0.159595
vt 0.990321 0.224882
vt 0.977305 0.070526
vt 0.997672 0.067372
vt 0.970532 0.010506
vt 0.990279 0.002237
vt 0.255712 0.754535
vt 0.340668 0.756361
vt 0.342708 0.776099
vt 0.250505 0.774158
vt 0.400655 0.754535
vt 0.407796 0.774099
vt 0.449060 0.096976
vt 0.449064 0.181961
vt 0.441211 0.178708
vt 0.441212 0.100027
vt 0.388978 0.036912
vt 0.385593 0.044416
vt 0.304037 0.036944
vt 0.306927 0.044427
vt 0.243984 0.097028
vt 0.251310 0.100062
vt 0.243972 0.181979
vt 0.251306 0.178732
vt 0.304020 0.242057
vt 0.306929 0.234368
vt 0.388976 0.242059
vt 0.385583 0.234353
vt 0.743167 0.040335
vt 0.743183 0.125323
vt 0.723974 0.129416
vt 0.723974 0.037193
vt 0.716536 0.642033
vt 0.001564 0.642033
vt 0.001572 0.592263
vt 0.716544 0.592263
vt 0.719712 0.612869
vt 0.719712 0.301326
vt 0.775186 0.309599
vt 0.775186 0.604851
vt 0.313351 0.701810
vt 0.001806 0.701810
vt 0.009836 0.646349
vt 0.305090 0.646349
vt 0.002292 0.827304
vt 0.821962 0.827304
vt 0.800518 0.881624
vt 0.023709 0.881624
vt 0.781579 0.821960
vt 0.781579 0.002291
vt 0.835906 0.023705
vt 0.835907 0.800512
vt 0.747522 0.265702
vt 0.747374 0.032454
vt 0.778268 0.001560
vt 0.778455 0.296597
vt 0.032641 0.265702
vt 0.001747 0.296597
vt 0.032493 0.032454
vt 0.001560 0.001560
vt 0.716587 0.534317
vt 0.001706 0.534317
vt 0.001558 0.301069
vt 0.716439 0.301069
vt 0.716544 0.587958
vt 0.001571 0.587958
vt 0.001564 0.538184
vt 0.716538 0.538184
vt 0.315763 0.646342
vt 0.549182 0.646342
vt 0.549156 0.696033
vt 0.315737 0.696033
vt 0.550117 0.750116
vt 0.316700 0.750116
vt 0.316671 0.700428
vt 0.550089 0.700428
vt 0.095859 0.080602
vt 0.174339 0.080602
vt 0.174339 0.159082
vt 0.095859 0.159082
vt 0.120316 0.755886
vt 0.012336 0.755886
vt 0.001921 0.706661
vt 0.130815 0.706661
vt 0.727737 0.725666
vt 0.727737 0.617686
vt 0.776980 0.607196
vt 0.776980 0.736091
vt 0.134128 0.706660
vt 0.242107 0.706660
vt 0.252468 0.755548
vt 0.123576 0.755548
vt 0.558230 0.727460
vt 0.666208 0.727460
vt 0.676770 0.776338
vt 0.547879 0.776338
vt 0.181455 0.075676
vt 0.092740 0.075676
vt 0.083107 0.066043
vt 0.191088 0.066043
vt 0.092740 0.164392
vt 0.083107 0.174024
vt 0.181455 0.164392
vt 0.191088 0.174024
vt 0.263609 0.175475
vt 0.263609 0.091957
vt 0.273483 0.089381
vt 0.273483 0.178095
vt 0.401838 0.163004
vt 0.401838 0.079484
vt 0.411792 0.076897
vt 0.411792 0.165612
vt 0.414916 0.175532
vt 0.414916 0.092015
vt 0.424787 0.089392
vt 0.424787 0.178105
vt 0.068541 0.163019
vt 0.068541 0.079499
vt 0.078499 0.076894
vt 0.078499 0.165609
vt 0.354276 0.198638
vt 0.275798 0.198638
vt 0.273254 0.188761
vt 0.356771 0.188761
vt 0.053977 0.172450
vt 0.053977 0.093970
vt 0.063939 0.091443
vt 0.063939 0.174962
vt 0.066716 0.178359
vt 0.145194 0.178359
vt 0.147692 0.188239
vt 0.064174 0.188239
vt 0.219694 0.091895
vt 0.219694 0.170375
vt 0.209737 0.172885
vt 0.209737 0.089366
vn 0.0813 0.9967 0.0042
vn 0.0740 0.7059 -0.7044
vn 0.0741 -0.0011 -0.9972
vn 0.0818 -0.7077 -0.7017
vn 0.0926 -0.9957 0.0065
vn 0.0921 0.6996 0.7086
vn 0.0993 -0.7013 0.7059
vn 0.4155 -0.6605 -0.6254
vn 0.4077 -0.9128 0.0257
vn 0.4019 -0.6397 0.6552
vn 0.4019 -0.0109 0.9156
vn 0.4077 0.6272 0.6636
vn 0.4155 0.9092 0.0248
vn 0.4208 0.6485 -0.6344
vn 0.0993 -0.0033 0.9951
vn 0.9776 -0.0248 0.2088
vn 0.9812 0.0868 0.1722
vn 0.9869 0.1496 0.0605
vn 0.9917 0.1071 -0.0717
vn 0.9915 -0.0249 -0.1280
vn 0.9866 -0.1498 -0.0641
vn 0.9812 -0.1833 0.0604
vn 0.9776 -0.1301 0.1652
vn 0.4208 -0.0100 -0.9071
vn 0.0000 0.0000 1.0000
vn 0.3690 -0.9294 0.0000
vn 0.3690 0.9294 0.0000
vn 0.1492 0.0000 -0.9888
vn 0.1492 0.0000 0.9888
vn 1.0000 0.0000 0.0000
vn 0.0000 0.0000 -1.0000
vn 0.0000 1.0000 0.0000
vn 0.0000 -1.0000 0.0000
vn -1.0000 -0.0000 0.0000
vn -0.2054 -0.0000 0.9787
vn -0.2054 -0.0000 -0.9787
vn -0.2054 0.9787 0.0000
vn -0.2054 -0.9787 0.0000
vn -0.2491 0.9685 0.0000
vn -0.2491 -0.0000 0.9685
vn -0.2491 -0.9685 0.0000
vn -0.2491 -0.0000 -0.9685
vn -0.2420 -0.9703 0.0000
vn -0.2420 -0.0000 -0.9703
vn -0.2420 0.9703 0.0000
vn -0.2420 -0.0000 0.9703
usemtl None
s off
f 91/125/49 89/126/49 79/127/49 80/128/49
f 93/129/50 91/130/50 80/131/50 81/132/50
f 95/133/51 93/129/51 81/132/51 82/134/51
f 97/135/52 95/133/52 82/134/52 83/136/52
f 99/137/53 97/138/53 83/139/53 84/140/53
f 89/141/54 87/142/54 78/143/54 79/144/54
f 86/145/55 99/146/55 84/147/55 77/148/55
f 88/149/56 90/150/56 71/151/56 70/152/56
f 90/150/57 92/153/57 72/154/57 71/151/57
f 92/155/58 94/156/58 73/157/58 72/158/58
f 94/156/59 96/159/59 74/160/59 73/157/59
f 96/159/60 98/161/60 75/162/60 74/160/60
f 98/163/61 100/164/61 76/165/61 75/166/61
f 100/164/62 85/167/62 69/168/62 76/165/62
f 87/142/63 86/145/63 77/148/63 78/143/63
f 88/169/64 85/170/64 86/171/64 87/172/64
f 90/173/65 88/169/65 87/172/65 89/174/65
f 92/175/66 90/173/66 89/174/66 91/176/66
f 94/177/67 92/175/67 91/176/67 93/178/67
f 96/179/68 94/177/68 93/178/68 95/180/68
f 98/181/69 96/179/69 95/180/69 97/182/69
f 100/183/70 98/181/70 97/182/70 99/184/70
f 85/170/71 100/183/71 99/184/71 86/171/71
f 85/185/72 88/186/72 70/187/72 69/188/72
f 123/189/49 121/190/49 111/191/49 112/192/49
f 125/193/50 123/194/50 112/195/50 113/196/50
f 127/197/51 125/193/51 113/196/51 114/198/51
f 129/199/52 127/197/52 114/198/52 115/200/52
f 131/201/53 129/202/53 115/203/53 116/204/53
f 121/205/54 119/206/54 110/207/54 111/208/54
f 118/209/55 131/210/55 116/211/55 109/212/55
f 120/213/56 122/214/56 103/215/56 102/216/56
f 122/214/57 124/217/57 104/218/57 103/215/57
f 124/219/58 126/220/58 105/221/58 104/222/58
f 126/220/59 128/223/59 106/224/59 105/221/59
f 128/223/60 130/225/60 107/226/60 106/224/60
f 130/227/61 132/228/61 108/229/61 107/230/61
f 132/228/62 117/231/62 101/232/62 108/229/62
f 119/206/63 118/209/63 109/212/63 110/207/63
f 120/233/64 117/234/64 118/235/64 119/236/64
f 122/237/65 120/233/65 119/236/65 121/238/65
f 124/239/66 122/237/66 121/238/66 123/240/66
f 126/241/67 124/239/67 123/240/67 125/242/67
f 128/243/68 126/241/68 125/242/68 127/244/68
f 130/245/69 128/243/69 127/244/69 129/246/69
f 132/247/70 130/245/70 129/246/70 131/248/70
f 117/234/71 132/247/71 131/248/71 118/235/71
f 117/249/72 120/250/72 102/251/72 101/252/72
f 140/253/73 137/254/73 145/255/73 148/256/73
f 134/257/74 136/258/74 144/259/74 143/260/74
f 135/261/75 133/262/75 142/263/75 141/264/75
f 136/265/76 135/266/76 141/267/76 144/268/76
f 133/269/77 134/270/77 143/271/77 142/272/77
f 138/273/78 137/274/78 141/275/78 142/276/78
f 139/277/78 138/273/78 142/276/78 143/278/78
f 140/279/78 139/277/78 143/278/78 144/280/78
f 137/274/78 140/279/78 144/280/78 141/275/78
f 146/281/78 147/282/78 148/283/78 145/284/78
f 138/285/79 139/286/79 147/287/79 146/288/79
f 139/289/80 140/290/80 148/291/80 147/292/80
f 137/293/81 138/294/81 146/295/81 145/296/81
f 149/297/82 151/298/82 152/299/82 150/300/82
f 160/301/83 157/302/83 153/303/83 156/304/83
f 158/305/84 159/306/84 155/307/84 154/308/84
f 159/309/85 160/310/85 156/311/85 155/312/85
f 157/313/86 158/314/86 154/315/86 153/316/86
f 161/317/82 162/318/82 158/319/82 157/320/82
f 162/318/82 163/321/82 159/322/82 158/319/82
f 163/321/82 164/323/82 160/324/82 159/322/82
f 164/323/82 161/317/82 157/320/82 160/324/82
f 165/325/87 166/326/87 162/327/87 161/328/87
f 166/329/88 167/330/88 163/331/88 162/332/88
f 167/333/89 168/334/89 164/335/89 163/336/89
f 168/337/90 165/338/90 161/339/90 164/340/90
f 151/341/91 149/342/91 166/343/91 165/344/91
f 149/345/92 150/346/92 167/347/92 166/348/92
f 150/349/93 152/350/93 168/351/93 167/352/93
f 152/353/94 151/354/94 165/355/94 168/356/94
