# File produced by Open Asset Import Library (http://www.assimp.sf.net)
# (assimp v3.1.128981410)

mtllib WallShelf.mtl

# vertex positions
v 2.580920 0.565121 -20.809788
v 2.580920 0.701780 -20.809788
v 2.580920 0.701780 -20.868769
v 2.580920 0.565121 -20.868769
v 2.664675 0.701780 -20.868769
v 2.580920 1.157104 -20.868769
v 2.664675 1.157104 -20.868769
v 6.580920 0.565121 -20.809788
v 6.580920 0.701780 -20.809788
v 6.580920 0.701780 -20.250422
v 6.580920 0.565121 -20.250422
v 6.497166 0.439405 -20.868769
v 6.580920 0.439405 -20.868769
v 6.497165 0.565121 -20.250422
v 6.580920 0.701780 -20.868769
v 6.580920 1.157104 -20.868769
v 6.580920 1.157104 -20.809788
v 6.497166 0.701780 -20.250422
v 6.497165 1.157104 -20.809788
v 6.497166 0.916511 -20.250422
v 6.580920 0.916511 -20.250422
v 2.664675 0.565121 -20.250422
v 2.664675 0.701780 -20.250422
v 2.580920 0.701780 -20.250422
v 2.580920 0.565121 -20.250422
v 2.664675 0.701780 -20.809788
v 6.497165 0.701780 -20.809788
v 6.497166 0.565121 -20.868769
v 2.664675 0.565121 -20.868769
v 2.664675 1.157104 -20.809788
v 2.580920 1.157104 -20.809788
v 2.580920 0.916511 -20.250422
v 2.664675 0.916511 -20.250422
v 2.580920 0.439405 -20.868769
v 2.664675 0.439405 -20.868769
v 6.580920 0.565121 -20.868769
v 6.497165 0.701780 -20.868769
v 6.497165 1.157104 -20.868769

# UV coordinates
vt 0.801799 0.989725
vt 0.818204 0.972408
vt 0.825676 0.980526
vt 0.808821 0.999999
vt 0.836229 0.991292
vt 0.870877 0.881765
vt 0.880998 0.893754
vt 0.009524 0.168221
vt 0.029569 0.145762
vt 0.124452 0.237576
vt 0.113429 0.258646
vt 0.019085 0.351114
vt 0.008474 0.336538
vt 0.133093 0.268347
vt 0.022487 0.134492
vt 0.115543 0.078613
vt 0.125479 0.086412
vt 0.155643 0.245666
vt 0.146080 0.084189
vt 0.147612 0.201335
vt 0.134153 0.201632
vt 0.717071 0.854771
vt 0.737972 0.830804
vt 0.746353 0.862776
vt 0.729384 0.874368
vt 0.824729 0.736476
vt 0.245600 0.154700
vt 0.038529 0.368407
vt 0.620677 0.951998
vt 0.866802 0.851497
vt 0.863274 0.873908
vt 0.776260 0.857091
vt 0.776070 0.840225
vt 0.653662 0.980924
vt 0.639099 0.970942
vt 0.000000 0.000000
vt 0.025908 0.381993
vt 0.006724 0.364597
vt 0.606878 0.964542
vt 0.625685 0.983558
vt 0.012828 0.117838
vt 0.112233 0.060925
vt 0.013494 0.094398
vt 0.000000 0.094398
vt 0.000000 0.000000
vt 0.013494 0.000000
vt 0.013494 0.268134
vt 0.000000 0.268134
vt 0.000000 0.173737
vt 0.013494 0.173737
vt 0.876294 0.859755
vt 0.396478 0.000000
vt 0.975829 0.581583
vt 0.904902 0.654289
vt 0.325601 0.072665
vt 0.000000 0.158387
vt 0.895710 0.663709
vt 0.316425 0.082076

# vertex normals
vn -1.000000 0.000000 0.000000
vn 0.000000 0.000000 -1.000000
vn 1.000000 0.000000 0.000000
vn 0.000000 -0.979961 0.199192
vn 0.000000 0.000000 1.000000
vn 0.000000 0.918632 0.395114
vn 0.000000 1.000000 0.000000
vn 0.000000 -1.000000 0.000000

# Mesh
g Cube.002_Cube.001
usemtl None
f 2/2/1 3/3/1 4/4/1 1/1/1
f 7/7/2 5/5/2 3/3/2 6/6/2
f 9/9/3 10/10/3 11/11/3 8/8/3
f 13/13/4 11/11/4 14/14/4 12/12/4
f 16/16/3 17/17/3 9/9/3 15/15/3
f 11/11/5 10/10/5 18/18/5 14/14/5
f 21/21/6 17/17/6 19/19/6 20/20/6
f 22/22/5 23/23/5 24/24/5 25/25/5
f 18/18/7 27/27/7 26/26/7 23/23/7
f 28/28/8 14/14/8 22/22/8 29/29/8
f 14/14/5 18/18/5 23/23/5 22/22/5
f 33/33/6 30/30/6 31/31/6 32/32/6
f 35/35/4 22/22/4 25/25/4 34/34/4
f 29/29/3 22/22/3 35/35/3
f 14/14/1 28/28/1 12/12/1
f 25/36/1 1/36/1 4/36/1 34/36/1
f 36/37/2 13/38/2 12/12/2 28/28/2
f 29/29/2 35/35/2 34/40/2 4/39/2
f 8/36/3 11/36/3 13/36/3 36/36/3
f 32/32/1 31/31/1 2/2/1 24/24/1
f 16/16/2 15/15/2 37/41/2 38/42/2
f 18/18/1 20/20/1 19/19/1 27/27/1
f 7/45/3 30/46/3 26/43/3 5/44/3
f 23/23/5 33/33/5 32/32/5 24/24/5
f 10/10/5 21/21/5 20/20/5 18/18/5
f 30/30/3 33/33/3 23/23/3 26/26/3
f 19/49/1 38/50/1 37/47/1 27/48/1
f 31/31/1 6/6/1 3/3/1 2/2/1
f 30/30/7 7/51/7 6/6/7 31/31/7
f 38/55/2 37/52/2 5/53/2 7/54/2
f 17/17/7 16/16/7 38/42/7 19/19/7
f 17/17/3 21/21/3 10/10/3 9/9/3
f 15/15/3 9/9/3 8/8/3 36/56/3
f 24/24/1 2/2/1 1/1/1 25/25/1
f 19/58/7 38/55/7 7/54/7 30/57/7
f 27/27/5 19/58/5 30/57/5 26/26/5
