# File produced by Open Asset Import Library (http://www.assimp.sf.net)
# (assimp v3.1.128981410)

mtllib WoodPlank.mtl

# vertex positions
v -0.637607 0.150000 5.915513
v -1.000000 0.150000 5.915513
v -1.000000 0.150000 8.000000
v -0.639111 0.150000 7.938936
v -0.639111 0.050000 7.938936
v -1.000000 0.050000 8.000000
v -1.000000 0.050000 -5.396801
v -1.000000 0.150000 -5.396801
v -1.000000 0.150000 -8.000000
v -1.000000 0.050000 -8.000000
v 0.737440 0.050000 5.915513
v 1.000000 0.050000 5.915513
v 1.000000 0.050000 8.000000
v 0.737440 0.050000 8.000000
v 1.000000 0.150000 5.915513
v 1.000000 0.150000 8.000000
v 0.737440 0.050000 -8.000000
v 0.737440 0.150000 -8.000000
v 1.000000 0.150000 -8.000000
v 1.000000 0.050000 -8.000000
v 1.000000 0.050000 5.388698
v 1.000000 0.150000 5.388698
v 1.000000 0.150000 5.794194
v 1.000000 0.050000 5.794194
v 0.737440 0.050000 5.388698
v 0.749480 0.050000 5.787379
v -1.000000 0.050000 5.915513
v -0.908281 0.150000 5.742282
v -0.908281 0.050000 5.742282
v -0.637607 0.150000 5.388698
v -1.000000 0.150000 5.388698
v -0.562507 0.150000 5.751688
v -0.637607 0.150000 -5.008333
v -1.000000 0.150000 -5.008333
v 0.737440 0.050000 -5.008333
v 1.000000 0.050000 -5.008333
v 1.000000 0.150000 -5.008333
v -1.000000 0.050000 5.388698
v 1.000000 0.050000 -5.396801
v 1.000000 0.150000 -5.396801
v 0.926106 0.150000 -5.273370
v 0.926106 0.050000 -5.273370
v 0.737440 0.050000 -5.396801
v 0.673246 0.050000 -5.272063
v -0.637607 0.150000 -5.396801
v -1.000000 0.150000 -5.263413
v -0.650996 0.150000 -5.265217
v -1.000000 0.050000 -5.008333
v -1.000000 0.050000 -5.263413
v -0.637607 0.150000 -8.000000
v -0.548909 0.150000 -5.265745
v -0.531603 0.150000 -5.008333
v -0.650996 0.050000 -5.265217
v -0.637607 0.050000 -5.008333
v -0.637607 0.050000 -8.000000
v -0.637607 0.050000 -5.396801
v -0.531603 0.150000 -8.000000
v -0.531603 0.150000 -5.396801
v -0.461365 0.150000 5.754440
v -0.531603 0.150000 5.915513
v -0.562507 0.050000 5.751688
v -0.637607 0.050000 5.915513
v -0.637607 0.050000 5.388698
v -0.531603 0.150000 5.388698
v -0.531603 0.050000 8.000000
v -0.531603 0.150000 8.000000
v 0.619582 0.150000 5.915513
v 0.619582 0.150000 8.000000
v 0.619582 0.050000 8.000000
v 0.619582 0.150000 5.388698
v 0.637028 0.150000 5.784320
v 0.619582 0.150000 -5.008333
v 0.619582 0.150000 -5.396801
v 0.559743 0.150000 -5.271476
v 0.619582 0.150000 -8.000000
v -0.548909 0.050000 -5.265745
v -0.531603 0.050000 -5.008333
v -0.531603 0.050000 -8.000000
v -0.531603 0.050000 -5.396801
v -0.461365 0.050000 5.754440
v -0.531603 0.050000 5.915513
v -0.531603 0.050000 5.388698
v 0.673246 0.150000 -5.272063
v 0.737440 0.150000 -5.008333
v 0.737440 0.150000 -5.396801
v 0.749480 0.150000 5.787379
v 0.737440 0.150000 5.915513
v 0.737440 0.150000 5.388698
v 0.737440 0.150000 8.000000
v 0.630928 0.050000 -5.271844
v 0.693498 0.050000 -5.008333
v 0.678432 0.050000 -7.962014
v 0.693498 0.050000 -5.396801
v 0.707554 0.050000 5.786238
v 0.693498 0.050000 5.915513
v 0.693498 0.050000 5.388698
v 0.678432 0.150000 -7.962014
v 0.693498 0.050000 8.000000
v 0.619582 0.050000 5.915513
v 0.619582 0.050000 -8.000000
v 0.619582 0.050000 5.388698
v 0.637028 0.050000 5.784320
v 0.619582 0.050000 -5.008333
v 0.619582 0.050000 -5.396801
v 0.559743 0.050000 -5.271476
v 0.630928 0.150000 -5.271844
v 0.693498 0.150000 -5.008333
v 0.693498 0.150000 -5.396801
v 0.707554 0.150000 5.786238
v 0.693498 0.150000 5.915513
v 0.693498 0.150000 5.388698
v 0.693498 0.150000 8.000000

# UV coordinates
vt 0.750158 0.796888
vt 0.769714 0.778647
vt 0.877821 0.886940
vt 0.857785 0.905120
vt 0.866286 0.912394
vt 0.885374 0.883912
vt 0.209636 0.186378
vt 0.196864 0.206219
vt 0.148889 0.149783
vt 0.149951 0.146659
vt 0.866372 0.682045
vt 0.880070 0.667973
vt 0.990646 0.776173
vt 0.977105 0.790355
vt 0.657269 0.889978
vt 0.662651 0.884572
vt 0.771997 0.992350
vt 0.769321 0.999999
vt 0.105946 0.089332
vt 0.100202 0.105303
vt 0.092312 0.098182
vt 0.094259 0.094109
vt 0.630345 0.862371
vt 0.635439 0.857022
vt 0.656231 0.878144
vt 0.650533 0.883309
vt 0.839611 0.654435
vt 0.853839 0.641227
vt 0.873946 0.661680
vt 0.860426 0.674752
vt 0.774849 0.773538
vt 0.758603 0.769827
vt 0.766473 0.762375
vt 0.721698 0.768903
vt 0.741062 0.749422
vt 0.737936 0.791510
vt 0.175136 0.238329
vt 0.207126 0.214525
vt 0.286514 0.051611
vt 0.300878 0.038591
vt 0.032216 0.305041
vt 0.037246 0.299658
vt 0.746428 0.744043
vt 0.063664 0.033790
vt 0.034691 0.066329
vt 0.011363 0.083760
vt 0.080102 0.011191
vt 0.152950 0.031495
vt 0.199363 0.039549
vt 0.147350 0.230527
vt 0.202324 0.207641
vt 0.162831 0.230641
vt 0.214911 0.205961
vt 0.209783 0.196813
vt 0.137811 0.155033
vt 0.000000 0.073568
vt 0.070672 0.000000
vt 0.149878 0.235931
vt 0.165414 0.244889
vt 0.228557 0.150091
vt 0.235486 0.171519
vt 0.138033 0.136438
vt 0.227751 0.113087
vt 0.132691 0.150188
vt 0.128659 0.231368
vt 0.732345 0.797429
vt 0.744500 0.802482
vt 0.788172 0.741961
vt 0.793319 0.754270
vt 0.766198 0.725121
vt 0.716051 0.774667
vt 0.901411 0.861358
vt 0.860506 0.918995
vt 0.855011 0.913921
vt 0.683195 0.864152
vt 0.794258 0.974584
vt 0.799427 0.979970
vt 0.654906 0.836784
vt 0.675253 0.858244
vt 0.060458 0.280794
vt 0.041993 0.200075
vt 0.055701 0.245420
vt 0.103979 0.107852
vt 0.232117 0.132590
vt 0.241204 0.161461
vt 0.135167 0.133146
vt 0.228573 0.103256
vt 0.794102 0.736503
vt 0.798967 0.748713
vt 0.771994 0.719537
vt 0.910368 0.858791
vt 0.037369 0.193929
vt 0.050397 0.285474
vt 0.033484 0.164509
vt 0.669446 0.864442
vt 0.676871 0.870435
vt 0.648853 0.843044
vt 0.788138 0.980860
vt 0.792022 0.987137
vt 0.225109 0.046547
vt 0.284686 0.054959
vt 0.108757 0.090087
vt 0.168810 0.035131
vt 0.858162 0.676896
vt 0.864064 0.684390
vt 0.837238 0.656658
vt 0.100967 0.108030
vt 0.974832 0.792734
vt 0.860176 0.688328
vt 0.971002 0.796740
vt 0.109180 0.093013
vt 0.833247 0.660411
vt 0.854349 0.680494
vt 0.281812 0.061118
vt 0.191266 0.041299
vt 0.248592 0.056311
vt 0.044206 0.220036
vt 0.053895 0.283647
vt 0.036635 0.178791
vt 0.671612 0.862130
vt 0.679231 0.868095
vt 0.651107 0.840707
vt 0.790423 0.978528
vt 0.795090 0.984411

# vertex normals
vn 0.000000 1.000000 0.000000
vn 0.166799 0.000000 0.985991
vn -1.000000 0.000000 0.000000
vn 0.000000 -1.000000 0.000000
vn 1.000000 0.000000 0.000000
vn 0.000000 0.000000 -1.000000
vn -0.883785 0.000000 -0.467892
vn -0.967964 0.000000 0.251091
vn 0.857978 0.000000 0.513687
vn 0.963255 0.000000 -0.268588
vn -0.493908 0.000000 0.869514
vn 0.000000 0.000000 1.000000
vn -0.541313 0.000000 -0.840821
vn 0.542293 0.000000 -0.840189

# Mesh
g Plank_Cube
usemtl Material
f 4/4/1 1/1/1 2/2/1
f 2/2/1 3/3/1 4/4/1
f 6/6/2 5/5/2 4/4/2
f 4/4/2 3/3/2 6/6/2
f 10/10/3 7/7/3 8/8/3
f 8/8/3 9/9/3 10/10/3
f 14/14/4 11/11/4 12/12/4
f 12/12/4 13/13/4 14/14/4
f 13/18/5 12/15/5 15/16/5
f 15/16/5 16/17/5 13/18/5
f 20/22/6 17/19/6 18/20/6
f 18/20/6 19/21/6 20/22/6
f 24/26/5 21/23/5 22/24/5
f 22/24/5 23/25/5 24/26/5
f 26/30/4 25/27/4 21/28/4
f 21/28/4 24/29/4 26/30/4
f 29/33/7 27/31/7 2/2/7
f 2/2/7 28/32/7 29/33/7
f 32/36/1 30/34/1 31/35/1
f 31/35/1 28/32/1 32/36/1
f 30/34/1 33/37/1 34/38/1
f 34/38/1 31/35/1 30/34/1
f 25/27/4 35/39/4 36/40/4
f 36/40/4 21/28/4 25/27/4
f 21/23/5 36/41/5 37/42/5
f 37/42/5 22/24/5 21/23/5
f 38/43/8 29/33/8 28/32/8
f 28/32/8 31/35/8 38/43/8
f 27/31/3 6/6/3 3/3/3
f 3/3/3 2/2/3 27/31/3
f 12/15/5 24/26/5 23/25/5
f 23/25/5 15/16/5 12/15/5
f 11/11/4 26/30/4 24/29/4
f 24/29/4 12/12/4 11/11/4
f 1/1/1 32/36/1 28/32/1
f 28/32/1 2/2/1 1/1/1
f 42/47/9 39/44/9 40/45/9
f 40/45/9 41/46/9 42/47/9
f 44/49/4 43/48/4 39/44/4
f 39/44/4 42/47/4 44/49/4
f 47/52/1 45/50/1 8/8/1
f 8/8/1 46/51/1 47/52/1
f 49/54/3 48/53/3 34/38/3
f 34/38/3 46/51/3 49/54/3
f 45/50/1 50/55/1 9/9/1
f 9/9/1 8/8/1 45/50/1
f 43/48/4 17/19/4 20/22/4
f 20/22/4 39/44/4 43/48/4
f 39/44/5 20/22/5 19/21/5
f 19/21/5 40/45/5 39/44/5
f 7/7/3 49/54/3 46/51/3
f 46/51/3 8/8/3 7/7/3
f 48/53/3 38/43/3 31/35/3
f 31/35/3 34/38/3 48/53/3
f 36/57/10 42/47/10 41/46/10
f 41/46/10 37/56/10 36/57/10
f 35/39/4 44/49/4 42/47/4
f 42/47/4 36/57/4 35/39/4
f 33/37/1 47/52/1 46/51/1
f 46/51/1 34/38/1 33/37/1
f 52/59/1 51/58/1 47/52/1
f 47/52/1 33/37/1 52/59/1
f 48/53/4 49/54/4 53/60/4
f 53/60/4 54/61/4 48/53/4
f 7/7/4 10/10/4 55/62/4
f 55/62/4 56/63/4 7/7/4
f 58/65/1 57/64/1 50/55/1
f 50/55/1 45/50/1 58/65/1
f 51/58/1 58/65/1 45/50/1
f 45/50/1 47/52/1 51/58/1
f 49/54/4 7/7/4 56/63/4
f 56/63/4 53/60/4 49/54/4
f 60/67/1 59/66/1 32/36/1
f 32/36/1 1/1/1 60/67/1
f 27/31/4 29/33/4 61/68/4
f 61/68/4 62/69/4 27/31/4
f 38/43/4 48/53/4 54/61/4
f 54/61/4 63/70/4 38/43/4
f 64/71/1 52/59/1 33/37/1
f 33/37/1 30/34/1 64/71/1
f 59/66/1 64/71/1 30/34/1
f 30/34/1 32/36/1 59/66/1
f 29/33/4 38/43/4 63/70/4
f 63/70/4 61/68/4 29/33/4
f 55/62/6 10/10/6 9/9/6
f 9/9/6 50/55/6 55/62/6
f 6/6/4 27/31/4 62/69/4
f 62/69/4 5/72/4 6/6/4
f 5/5/11 65/73/11 66/74/11
f 66/74/11 4/4/11 5/5/11
f 66/74/1 60/67/1 1/1/1
f 1/1/1 4/4/1 66/74/1
f 68/76/1 67/75/1 60/67/1
f 60/67/1 66/74/1 68/76/1
f 65/73/12 69/77/12 68/76/12
f 68/76/12 66/74/12 65/73/12
f 71/79/1 70/78/1 64/71/1
f 64/71/1 59/66/1 71/79/1
f 70/78/1 72/80/1 52/59/1
f 52/59/1 64/71/1 70/78/1
f 67/75/1 71/79/1 59/66/1
f 59/66/1 60/67/1 67/75/1
f 74/82/1 73/81/1 58/65/1
f 58/65/1 51/58/1 74/82/1
f 73/81/1 75/83/1 57/64/1
f 57/64/1 58/65/1 73/81/1
f 72/80/1 74/82/1 51/58/1
f 51/58/1 52/59/1 72/80/1
f 54/61/4 53/60/4 76/84/4
f 76/84/4 77/85/4 54/61/4
f 56/63/4 55/62/4 78/86/4
f 78/86/4 79/87/4 56/63/4
f 53/60/4 56/63/4 79/87/4
f 79/87/4 76/84/4 53/60/4
f 62/69/4 61/68/4 80/88/4
f 80/88/4 81/89/4 62/69/4
f 63/70/4 54/61/4 77/85/4
f 77/85/4 82/90/4 63/70/4
f 61/68/4 63/70/4 82/90/4
f 82/90/4 80/88/4 61/68/4
f 78/86/6 55/62/6 50/55/6
f 50/55/6 57/64/6 78/86/6
f 5/72/4 62/69/4 81/89/4
f 81/89/4 65/91/4 5/72/4
f 37/56/1 41/46/1 83/92/1
f 83/92/1 84/93/1 37/56/1
f 40/45/1 19/21/1 18/20/1
f 18/20/1 85/94/1 40/45/1
f 41/46/1 40/45/1 85/94/1
f 85/94/1 83/92/1 41/46/1
f 15/16/1 23/25/1 86/95/1
f 86/95/1 87/96/1 15/16/1
f 22/24/1 37/42/1 84/93/1
f 84/93/1 88/97/1 22/24/1
f 23/25/1 22/24/1 88/97/1
f 88/97/1 86/95/1 23/25/1
f 14/99/12 13/18/12 16/17/12
f 16/17/12 89/98/12 14/99/12
f 16/17/1 15/16/1 87/96/1
f 87/96/1 89/98/1 16/17/1
f 91/101/4 90/100/4 44/49/4
f 44/49/4 35/39/4 91/101/4
f 93/103/4 92/102/4 17/19/4
f 17/19/4 43/48/4 93/103/4
f 90/100/4 93/103/4 43/48/4
f 43/48/4 44/49/4 90/100/4
f 95/105/4 94/104/4 26/30/4
f 26/30/4 11/11/4 95/105/4
f 96/106/4 91/101/4 35/39/4
f 35/39/4 25/27/4 96/106/4
f 94/104/4 96/106/4 25/27/4
f 25/27/4 26/30/4 94/104/4
f 17/19/13 92/102/13 97/107/13
f 97/107/13 18/20/13 17/19/13
f 98/108/4 95/105/4 11/11/4
f 11/11/4 14/14/4 98/108/4
f 69/110/4 99/109/4 95/105/4
f 95/105/4 98/108/4 69/110/4
f 92/102/14 100/111/14 75/83/14
f 75/83/14 97/107/14 92/102/14
f 102/113/4 101/112/4 96/106/4
f 96/106/4 94/104/4 102/113/4
f 101/112/4 103/114/4 91/101/4
f 91/101/4 96/106/4 101/112/4
f 99/109/4 102/113/4 94/104/4
f 94/104/4 95/105/4 99/109/4
f 105/116/4 104/115/4 93/103/4
f 93/103/4 90/100/4 105/116/4
f 104/115/4 100/111/4 92/102/4
f 92/102/4 93/103/4 104/115/4
f 103/114/4 105/116/4 90/100/4
f 90/100/4 91/101/4 103/114/4
f 84/93/1 83/92/1 106/117/1
f 106/117/1 107/118/1 84/93/1
f 85/94/1 18/20/1 97/107/1
f 97/107/1 108/119/1 85/94/1
f 83/92/1 85/94/1 108/119/1
f 108/119/1 106/117/1 83/92/1
f 87/96/1 86/95/1 109/120/1
f 109/120/1 110/121/1 87/96/1
f 88/97/1 84/93/1 107/118/1
f 107/118/1 111/122/1 88/97/1
f 86/95/1 88/97/1 111/122/1
f 111/122/1 109/120/1 86/95/1
f 98/124/12 14/99/12 89/98/12
f 89/98/12 112/123/12 98/124/12
f 89/98/1 87/96/1 110/121/1
f 110/121/1 112/123/1 89/98/1
f 77/85/4 76/84/4 105/116/4
f 105/116/4 103/114/4 77/85/4
f 79/87/4 78/86/4 100/111/4
f 100/111/4 104/115/4 79/87/4
f 76/84/4 79/87/4 104/115/4
f 104/115/4 105/116/4 76/84/4
f 81/89/4 80/88/4 102/113/4
f 102/113/4 99/109/4 81/89/4
f 82/90/4 77/85/4 103/114/4
f 103/114/4 101/112/4 82/90/4
f 80/88/4 82/90/4 101/112/4
f 101/112/4 102/113/4 80/88/4
f 100/111/6 78/86/6 57/64/6
f 57/64/6 75/83/6 100/111/6
f 65/91/4 81/89/4 99/109/4
f 99/109/4 69/110/4 65/91/4
f 107/118/1 106/117/1 74/82/1
f 74/82/1 72/80/1 107/118/1
f 108/119/1 97/107/1 75/83/1
f 75/83/1 73/81/1 108/119/1
f 106/117/1 108/119/1 73/81/1
f 73/81/1 74/82/1 106/117/1
f 110/121/1 109/120/1 71/79/1
f 71/79/1 67/75/1 110/121/1
f 111/122/1 107/118/1 72/80/1
f 72/80/1 70/78/1 111/122/1
f 109/120/1 111/122/1 70/78/1
f 70/78/1 71/79/1 109/120/1
f 69/77/12 98/124/12 112/123/12
f 112/123/12 68/76/12 69/77/12
f 112/123/1 110/121/1 67/75/1
f 67/75/1 68/76/1 112/123/1
