# Blender v2.91.2 OBJ File: 'NewPlayerHome_Out.blend'
# www.blender.org
mtllib FloorTatamiPad.mtl
o TatamiPad_Plane.003
v -14.889713 -0.462617 -3.889714
v -14.889713 -0.462617 3.889714
v -10.110287 -0.462617 3.889714
v -10.110287 -0.462617 -3.889714
v -14.889713 -0.462617 -1.944857
v -14.889713 -0.462617 0.000000
v -14.889713 -0.462617 1.944857
v -10.110287 -0.462617 -1.944857
v -10.110287 -0.462617 0.000000
v -10.110287 -0.462617 1.944857
v -10.173841 -0.462617 -2.008411
v -10.173841 -0.462617 -3.826159
v -14.826159 -0.462617 -3.826159
v -14.826159 -0.462617 -2.008412
v -10.173841 -0.462617 3.826159
v -10.173841 -0.462617 2.008412
v -14.826159 -0.462617 2.008411
v -14.826159 -0.462617 3.826159
v -10.173841 -0.462617 1.881302
v -10.173841 -0.462617 0.063555
v -14.826159 -0.462617 0.063555
v -14.826159 -0.462617 1.881302
v -10.173841 -0.462617 -0.063555
v -10.173841 -0.462617 -1.881302
v -14.826159 -0.462617 -1.881302
v -14.826159 -0.462617 -0.063555
v -14.826159 -0.493011 2.008411
v -14.826159 -0.493011 3.826159
v -10.173841 -0.493011 3.826159
v -10.173841 -0.493011 -3.826159
v -14.826159 -0.493011 -3.826159
v -10.173841 -0.493011 2.008412
v -14.826159 -0.493011 -2.008412
v -14.826159 -0.493011 -1.881302
v -14.826159 -0.493011 -0.063555
v -14.826159 -0.493011 0.063555
v -14.826159 -0.493011 1.881302
v -10.173841 -0.493011 -2.008411
v -10.173841 -0.493011 -1.881302
v -10.173841 -0.493011 -0.063555
v -10.173841 -0.493011 0.063555
v -10.173841 -0.493011 1.881302
vt 0.967833 0.003904
vt 0.967833 0.196596
vt 0.964611 0.196596
vt 0.964611 0.003904
vt 0.910854 0.003902
vt 0.910854 0.497076
vt 0.907632 0.497076
vt 0.907632 0.003902
vt 0.989195 0.003903
vt 0.989195 0.196595
vt 0.985973 0.196595
vt 0.985973 0.003903
vt 0.974950 0.003903
vt 0.974950 0.196595
vt 0.971728 0.196595
vt 0.971728 0.003903
vt 0.003902 0.210067
vt 0.003902 0.003901
vt 0.010639 0.010638
vt 0.010639 0.203330
vt 0.510550 0.003900
vt 0.503813 0.010638
vt 0.510550 0.210067
vt 0.503813 0.203330
vt 0.003902 0.828568
vt 0.003902 0.622401
vt 0.010639 0.629138
vt 0.010639 0.821831
vt 0.510550 0.622401
vt 0.503813 0.629138
vt 0.510550 0.828568
vt 0.503813 0.821831
vt 0.003902 0.416234
vt 0.010639 0.422971
vt 0.010639 0.615664
vt 0.510550 0.416234
vt 0.503813 0.422971
vt 0.503813 0.615664
vt 0.010639 0.216804
vt 0.010639 0.409497
vt 0.503813 0.216804
vt 0.503813 0.409497
vt 0.707140 0.497076
vt 0.514447 0.497076
vt 0.514447 0.003902
vt 0.707139 0.003902
vt 0.711034 0.003902
vt 0.903727 0.003902
vt 0.903727 0.497076
vt 0.711034 0.497076
vt 0.514447 0.502924
vt 0.707139 0.502924
vt 0.707139 0.996098
vt 0.514447 0.996098
vt 0.711034 0.502924
vt 0.903727 0.502924
vt 0.903727 0.996098
vt 0.711034 0.996098
vt 0.946467 0.003902
vt 0.946468 0.497076
vt 0.943246 0.497076
vt 0.943246 0.003902
vt 0.932223 0.003902
vt 0.932224 0.497076
vt 0.929002 0.497076
vt 0.929001 0.003902
vt 0.014538 0.023860
vt 0.207231 0.023860
vt 0.207231 0.027081
vt 0.014538 0.027082
vt 0.917973 0.003902
vt 0.917973 0.497076
vt 0.914751 0.497076
vt 0.914751 0.003902
vt 0.211130 0.023860
vt 0.403822 0.023860
vt 0.403822 0.027082
vt 0.211130 0.027082
vt 0.953587 0.003902
vt 0.953587 0.497076
vt 0.950366 0.497076
vt 0.950365 0.003902
vt 0.014539 0.015876
vt 0.207231 0.015876
vt 0.207231 0.019098
vt 0.014539 0.019098
vt 0.960711 0.003902
vt 0.960711 0.497076
vt 0.957489 0.497076
vt 0.957489 0.003902
vt 0.925097 0.003902
vt 0.925097 0.497076
vt 0.921875 0.497076
vt 0.921875 0.003902
vt 0.211129 0.015880
vt 0.403822 0.015880
vt 0.403822 0.019102
vt 0.211129 0.019102
vt 0.939343 0.003902
vt 0.939343 0.497076
vt 0.936121 0.497076
vt 0.936121 0.003902
vt 0.982072 0.003904
vt 0.982072 0.196596
vt 0.978850 0.196596
vt 0.978850 0.003904
vn 1.0000 0.0000 0.0000
vn 0.0000 0.0000 -1.0000
vn 0.0000 1.0000 0.0000
vn -0.0000 0.0000 1.0000
vn -1.0000 0.0000 0.0000
usemtl Material
s off
f 21/1/1 22/2/1 37/3/1 36/4/1
f 14/5/2 11/6/2 38/7/2 33/8/2
f 25/9/1 26/10/1 35/11/1 34/12/1
f 13/13/1 14/14/1 33/15/1 31/16/1
f 8/17/3 4/18/3 12/19/3 11/20/3
f 4/18/3 1/21/3 13/22/3 12/19/3
f 1/21/3 5/23/3 14/24/3 13/22/3
f 5/23/3 8/17/3 11/20/3 14/24/3
f 3/25/3 10/26/3 16/27/3 15/28/3
f 10/26/3 7/29/3 17/30/3 16/27/3
f 7/29/3 2/31/3 18/32/3 17/30/3
f 2/31/3 3/25/3 15/28/3 18/32/3
f 10/26/3 9/33/3 20/34/3 19/35/3
f 9/33/3 6/36/3 21/37/3 20/34/3
f 6/36/3 7/29/3 22/38/3 21/37/3
f 7/29/3 10/26/3 19/35/3 22/38/3
f 9/33/3 8/17/3 24/39/3 23/40/3
f 8/17/3 5/23/3 25/41/3 24/39/3
f 5/23/3 6/36/3 26/42/3 25/41/3
f 6/36/3 9/33/3 23/40/3 26/42/3
f 38/43/3 30/44/3 31/45/3 33/46/3
f 29/47/3 32/48/3 27/49/3 28/50/3
f 42/51/3 41/52/3 36/53/3 37/54/3
f 40/55/3 39/56/3 34/57/3 35/58/3
f 16/59/4 17/60/4 27/61/4 32/62/4
f 22/63/2 19/64/2 42/65/2 37/66/2
f 11/67/5 12/68/5 30/69/5 38/70/5
f 26/71/2 23/72/2 40/73/2 35/74/2
f 17/75/1 18/76/1 28/77/1 27/78/1
f 20/79/4 21/80/4 36/81/4 41/82/4
f 23/83/5 24/84/5 39/85/5 40/86/5
f 24/87/4 25/88/4 34/89/4 39/90/4
f 18/91/2 15/92/2 29/93/2 28/94/2
f 19/95/5 20/96/5 41/97/5 42/98/5
f 12/99/4 13/100/4 31/101/4 30/102/4
f 15/103/5 16/104/5 32/105/5 29/106/5
