# Blender v2.91.2 OBJ File: 'NewPlayerHome_Out.blend'
# www.blender.org
mtllib HallWindowSupports.mtl
o HallWindowSupports_Cube.074
v -13.753663 3.872568 -3.756550
v -11.106338 3.872568 -3.756550
v -13.753663 3.953642 -3.756550
v -13.753663 3.953642 -4.181309
v -11.106338 3.953642 -3.756550
v -11.106338 3.953642 -4.181309
v -11.155380 5.150012 -4.040724
v -11.155380 5.150012 -3.902738
v -13.704620 5.150012 -3.902738
v -13.704620 5.150012 -4.040724
v -13.753663 3.872568 -4.038210
v -13.753663 3.872568 -3.900224
v -11.106338 3.872568 -3.900224
v -11.106338 3.872568 -4.038210
v -13.753663 3.953642 -3.900224
v -13.753663 3.953642 -4.038210
v -11.106338 3.953642 -4.038210
v -11.106338 3.953642 -3.900224
v -11.106338 5.150012 -3.902738
v -11.106338 5.150012 -4.040724
v -13.753663 5.150012 -4.040724
v -13.753663 5.150012 -3.902738
v -11.155380 3.953642 -4.181309
v -13.704620 3.953642 -4.181309
v -11.155380 3.953642 -3.756550
v -13.704620 3.953642 -3.756550
v -11.155380 3.872568 -3.756550
v -13.704620 3.872568 -3.756550
v -13.704620 3.953642 -4.038210
v -11.155380 3.953642 -4.038210
v -13.704620 3.953642 -3.900224
v -11.155380 3.953642 -3.900224
v -11.155380 3.872568 -4.038210
v -13.704620 3.872568 -4.038210
v -11.155380 3.872568 -3.900224
v -13.704620 3.872568 -3.900224
v -11.106338 3.872568 -4.164541
v -11.106338 3.889336 -4.181309
v -13.753663 3.889336 -4.181309
v -13.753663 3.872568 -4.164541
v -13.704620 3.872568 -4.164541
v -13.704620 3.889336 -4.181309
v -11.155380 3.889336 -4.181309
v -11.155380 3.872568 -4.164541
v -11.106338 5.090194 -4.040598
v -11.155380 5.090194 -3.902612
v -11.155380 5.090194 -4.040598
v -11.106338 5.090194 -3.902612
v -13.704620 5.090194 -4.040598
v -13.753663 5.090194 -3.902612
v -13.753663 5.090194 -4.040598
v -13.704620 5.090194 -3.902612
v -13.753663 3.872568 3.756550
v -11.106338 3.872568 3.756550
v -13.753663 3.953642 3.756550
v -13.753663 3.953642 4.181309
v -11.106338 3.953642 3.756550
v -11.106338 3.953642 4.181309
v -11.155380 5.150012 4.040724
v -11.155380 5.150012 3.902738
v -13.704620 5.150012 3.902738
v -13.704620 5.150012 4.040724
v -13.753663 3.872568 4.038210
v -13.753663 3.872568 3.900224
v -11.106338 3.872568 3.900224
v -11.106338 3.872568 4.038210
v -13.753663 3.953642 3.900224
v -13.753663 3.953642 4.038210
v -11.106338 3.953642 4.038210
v -11.106338 3.953642 3.900224
v -11.106338 5.150012 3.902738
v -11.106338 5.150012 4.040724
v -13.753663 5.150012 4.040724
v -13.753663 5.150012 3.902738
v -11.155380 3.953642 4.181309
v -13.704620 3.953642 4.181309
v -11.155380 3.953642 3.756550
v -13.704620 3.953642 3.756550
v -11.155380 3.872568 3.756550
v -13.704620 3.872568 3.756550
v -13.704620 3.953642 4.038210
v -11.155380 3.953642 4.038210
v -13.704620 3.953642 3.900224
v -11.155380 3.953642 3.900224
v -11.155380 3.872568 4.038210
v -13.704620 3.872568 4.038210
v -11.155380 3.872568 3.900224
v -13.704620 3.872568 3.900224
v -11.106338 3.872568 4.164541
v -11.106338 3.889336 4.181309
v -13.753663 3.889336 4.181309
v -13.753663 3.872568 4.164541
v -13.704620 3.872568 4.164541
v -13.704620 3.889336 4.181309
v -11.155380 3.889336 4.181309
v -11.155380 3.872568 4.164541
v -11.106338 5.090194 4.040598
v -11.155380 5.090194 3.902612
v -11.155380 5.090194 4.040598
v -11.106338 5.090194 3.902612
v -13.704620 5.090194 4.040598
v -13.753663 5.090194 3.902612
v -13.753663 5.090194 4.040598
v -13.704620 5.090194 3.902612
vt 0.652947 0.044190
vt 0.652947 0.080856
vt 0.632257 0.080856
vt 0.632257 0.044190
vt 0.001953 0.977359
vt 0.014469 0.977359
vt 0.014469 0.998049
vt 0.001953 0.998049
vt 0.783059 0.014469
vt 0.783059 0.001953
vt 0.819577 0.001953
vt 0.819577 0.014469
vt 0.378797 0.096477
vt 0.415462 0.096477
vt 0.415462 0.117167
vt 0.378797 0.117167
vt 0.711180 0.677547
vt 0.711180 0.665030
vt 0.747845 0.665030
vt 0.747845 0.677547
vt 0.665030 0.840667
vt 0.665030 0.808427
vt 0.677547 0.808427
vt 0.677547 0.840667
vt 0.001953 0.912546
vt 0.001953 0.875881
vt 0.014469 0.875881
vt 0.014469 0.912546
vt 0.665031 0.977359
vt 0.677547 0.977359
vt 0.677547 0.998049
vt 0.665031 0.998049
vt 0.677547 0.875881
vt 0.665031 0.875881
vt 0.665031 0.912546
vt 0.677547 0.912546
vt 0.001953 0.840667
vt 0.014469 0.840667
vt 0.001953 0.808428
vt 0.014469 0.808428
vt 0.696711 0.326187
vt 0.709227 0.326187
vt 0.709227 0.341453
vt 0.696711 0.341453
vt 0.696711 0.655836
vt 0.709227 0.655836
vt 0.709227 0.672247
vt 0.696711 0.672247
vt 0.652893 0.084410
vt 0.652893 0.116649
vt 0.648614 0.120928
vt 0.632203 0.120928
vt 0.632203 0.084410
vt 0.033637 0.633891
vt 0.046153 0.633891
vt 0.046153 0.649156
vt 0.033637 0.649156
vt 0.046149 0.672247
vt 0.046149 0.655836
vt 0.492404 0.112887
vt 0.488125 0.117166
vt 0.455885 0.117166
vt 0.455885 0.096476
vt 0.492404 0.096476
vt 0.711179 0.014469
vt 0.711179 0.001953
vt 0.747845 0.001953
vt 0.747845 0.014469
vt 0.819578 0.665030
vt 0.783059 0.665030
vt 0.783059 0.677546
vt 0.819578 0.677546
vt 0.696715 0.633891
vt 0.709231 0.633891
vt 0.709231 0.649156
vt 0.696715 0.649156
vt 0.033633 0.326188
vt 0.046149 0.326188
vt 0.046149 0.341453
vt 0.033633 0.341453
vt 0.046149 0.651557
vt 0.696711 0.651557
vt 0.033633 0.651557
vt 0.033633 0.655836
vt 0.709227 0.651557
vt 0.033633 0.672247
vt 0.323759 0.055270
vt 0.323684 0.020056
vt 0.613731 0.020056
vt 0.613806 0.055270
vt 0.033637 0.343844
vt 0.046153 0.343844
vt 0.696711 0.036141
vt 0.709227 0.036141
vt 0.033633 0.036141
vt 0.046149 0.036141
vt 0.696715 0.343844
vt 0.709231 0.343844
vt 0.630303 0.058267
vt 0.630229 0.093481
vt 0.340183 0.093481
vt 0.340257 0.058267
vt 0.652514 0.915013
vt 0.652514 0.950227
vt 0.001952 0.950227
vt 0.001952 0.915013
vt 0.376850 0.096476
vt 0.376850 0.117166
vt 0.340185 0.117166
vt 0.340185 0.096476
vt 0.677547 0.953231
vt 0.677547 0.973921
vt 0.665031 0.973921
vt 0.665030 0.953231
vt 0.014469 0.769691
vt 0.014469 0.806210
vt 0.001953 0.806210
vt 0.001953 0.769691
vt 0.652396 0.020054
vt 0.652396 0.040744
vt 0.615731 0.040744
vt 0.615731 0.020054
vt 0.677547 0.697812
vt 0.677547 0.734477
vt 0.665031 0.734477
vt 0.665031 0.697812
vt 0.893403 0.014472
vt 0.893403 0.001956
vt 0.925643 0.001956
vt 0.925643 0.014472
vt 0.821524 0.677550
vt 0.821524 0.665034
vt 0.858190 0.665034
vt 0.858190 0.677550
vt 0.014469 0.953232
vt 0.014469 0.973921
vt 0.001953 0.973921
vt 0.001953 0.953232
vt 0.858189 0.014472
vt 0.858189 0.001956
vt 0.821524 0.014472
vt 0.821524 0.001956
vt 0.893404 0.677550
vt 0.893404 0.665034
vt 0.925643 0.665034
vt 0.925643 0.677550
vt 0.031680 0.032574
vt 0.016414 0.032574
vt 0.016414 0.020058
vt 0.031680 0.020058
vt 0.969048 0.665034
vt 0.985459 0.665034
vt 0.985459 0.677550
vt 0.969048 0.677550
vt 0.494357 0.117165
vt 0.494357 0.096475
vt 0.530875 0.096475
vt 0.530875 0.112886
vt 0.526597 0.117165
vt 0.001951 0.017215
vt 0.001951 0.001950
vt 0.014467 0.001950
vt 0.014467 0.017215
vt 0.969048 0.014472
vt 0.985459 0.014472
vt 0.453930 0.100759
vt 0.453930 0.117170
vt 0.417411 0.117170
vt 0.417411 0.096480
vt 0.449650 0.096480
vt 0.014469 0.697812
vt 0.014469 0.734477
vt 0.001953 0.734477
vt 0.001953 0.697812
vt 0.665031 0.769691
vt 0.665031 0.806210
vt 0.677547 0.769691
vt 0.677547 0.806210
vt 0.665029 0.017215
vt 0.665029 0.001950
vt 0.677545 0.001950
vt 0.677545 0.017215
vt 0.031680 0.695652
vt 0.016414 0.695652
vt 0.016414 0.683136
vt 0.031680 0.683136
vt 0.964769 0.665034
vt 0.964769 0.014472
vt 0.964769 0.001956
vt 0.969048 0.001956
vt 0.964769 0.677550
vt 0.985459 0.001956
vt 0.338155 0.131690
vt 0.048109 0.131690
vt 0.048183 0.096476
vt 0.338229 0.096476
vt 0.001951 0.307262
vt 0.014467 0.307262
vt 0.321726 0.032574
vt 0.321726 0.020058
vt 0.321726 0.695652
vt 0.321726 0.683136
vt 0.665029 0.307262
vt 0.677545 0.307262
vt 0.048108 0.058270
vt 0.338155 0.058270
vt 0.338230 0.093484
vt 0.048183 0.093484
vt 0.927601 0.652514
vt 0.927601 0.001952
vt 0.962815 0.001952
vt 0.962815 0.652514
vn -1.0000 0.0000 0.0000
vn 0.0000 0.0000 1.0000
vn 0.0000 1.0000 0.0000
vn 1.0000 0.0000 0.0000
vn 0.0000 -1.0000 0.0000
vn 0.0000 0.0021 1.0000
vn 0.0000 0.0000 -1.0000
vn 0.0000 -0.0021 -1.0000
vn 0.0000 -0.7071 -0.7071
vn 0.0000 0.0021 -1.0000
vn 0.0000 -0.0021 1.0000
vn 0.0000 -0.7071 0.7071
usemtl None
s off
f 12/1/1 1/2/1 3/3/1 15/4/1
f 1/5/2 28/6/2 26/7/2 3/8/2
f 30/9/3 17/10/3 6/11/3 23/12/3
f 2/13/4 13/14/4 18/15/4 5/16/4
f 3/17/3 26/18/3 31/19/3 15/20/3
f 33/21/5 44/22/5 37/23/5 14/24/5
f 1/25/5 12/26/5 36/27/5 28/28/5
f 27/29/2 2/30/2 5/31/2 25/32/2
f 33/21/5 14/24/5 13/33/5 35/34/5
f 27/35/5 35/34/5 13/33/5 2/36/5
f 11/37/5 34/38/5 36/27/5 12/26/5
f 11/37/5 40/39/5 41/40/5 34/38/5
f 46/41/6 48/42/6 19/43/6 8/44/6
f 42/45/7 39/46/7 4/47/7 24/48/7
f 14/49/4 37/50/4 38/51/4 6/52/4 17/53/4
f 45/54/8 47/55/8 7/56/8 20/57/8
f 42/45/7 24/48/7 23/58/7 43/59/7
f 39/60/1 40/61/1 11/62/1 16/63/1 4/64/1
f 25/65/3 5/66/3 18/67/3 32/68/3
f 30/9/3 23/12/3 24/69/3 29/70/3
f 29/70/3 31/19/3 32/68/3 30/9/3
f 33/21/5 35/34/5 36/27/5 34/38/5
f 35/34/5 27/35/5 28/28/5 36/27/5
f 27/29/2 25/32/2 26/7/2 28/6/2
f 44/22/5 33/21/5 34/38/5 41/40/5
f 25/65/3 32/68/3 31/19/3 26/18/3
f 16/71/3 29/70/3 24/69/3 4/72/3
f 49/73/8 51/74/8 21/75/8 10/76/8
f 50/77/6 52/78/6 9/79/6 22/80/6
f 42/45/9 43/59/9 44/81/9 41/82/9
f 37/83/9 44/81/9 43/59/9 38/84/9
f 41/82/9 40/85/9 39/46/9 42/45/9
f 38/84/7 43/59/7 23/58/7 6/86/7
f 30/87/1 32/88/1 46/89/1 47/90/1
f 17/91/8 30/92/8 47/55/8 45/54/8
f 32/93/6 18/94/6 48/42/6 46/41/6
f 15/95/6 31/96/6 52/78/6 50/77/6
f 29/97/8 16/98/8 51/74/8 49/73/8
f 31/99/4 29/100/4 49/101/4 52/102/4
f 47/103/5 46/104/5 52/105/5 49/106/5
f 46/41/6 8/44/6 9/79/6 52/78/6
f 7/56/8 47/55/8 49/73/8 10/76/8
f 64/107/1 67/108/1 55/109/1 53/110/1
f 53/111/7 55/112/7 78/113/7 80/114/7
f 82/115/3 75/116/3 58/117/3 69/118/3
f 54/119/4 57/120/4 70/121/4 65/122/4
f 55/123/3 67/124/3 83/125/3 78/126/3
f 85/127/5 66/128/5 89/129/5 96/130/5
f 53/131/5 80/132/5 88/133/5 64/134/5
f 79/135/7 77/136/7 57/137/7 54/138/7
f 85/127/5 87/139/5 65/140/5 66/128/5
f 79/141/5 54/142/5 65/140/5 87/139/5
f 63/143/5 64/134/5 88/133/5 86/144/5
f 63/143/5 86/144/5 93/145/5 92/146/5
f 98/147/10 60/148/10 71/149/10 100/150/10
f 94/151/2 76/152/2 56/153/2 91/154/2
f 66/155/4 69/156/4 58/157/4 90/158/4 89/159/4
f 97/160/11 72/161/11 59/162/11 99/163/11
f 94/151/2 95/164/2 75/165/2 76/152/2
f 91/166/1 56/167/1 68/168/1 63/169/1 92/170/1
f 77/171/3 84/172/3 70/173/3 57/174/3
f 82/115/3 81/175/3 76/176/3 75/116/3
f 81/175/3 82/115/3 84/172/3 83/125/3
f 85/127/5 86/144/5 88/133/5 87/139/5
f 87/139/5 88/133/5 80/132/5 79/141/5
f 79/135/7 80/114/7 78/113/7 77/136/7
f 96/130/5 93/145/5 86/144/5 85/127/5
f 77/171/3 78/126/3 83/125/3 84/172/3
f 68/177/3 56/178/3 76/176/3 81/175/3
f 101/179/11 62/180/11 73/181/11 103/182/11
f 102/183/10 74/184/10 61/185/10 104/186/10
f 94/151/12 93/187/12 96/188/12 95/164/12
f 89/189/12 90/190/12 95/164/12 96/188/12
f 93/187/12 94/151/12 91/154/12 92/191/12
f 90/190/2 58/192/2 75/165/2 95/164/2
f 82/193/1 99/194/1 98/195/1 84/196/1
f 69/197/11 97/160/11 99/163/11 82/198/11
f 84/199/10 98/147/10 100/150/10 70/200/10
f 67/201/10 102/183/10 104/186/10 83/202/10
f 81/203/11 101/179/11 103/182/11 68/204/11
f 83/205/4 104/206/4 101/207/4 81/208/4
f 99/209/5 101/210/5 104/211/5 98/212/5
f 98/147/10 104/186/10 61/185/10 60/148/10
f 59/162/11 62/180/11 101/179/11 99/163/11
