# Blender v2.93.1 OBJ File: 'NewPlayerHomeBed2.blend'
# www.blender.org
mtllib IceChest.mtl
o Chest_Cube.062
v -0.725937 0.000000 0.357197
v -0.725937 0.000000 -0.361556
v 0.725937 0.000000 0.357197
v 0.725937 0.000000 -0.361556
v -0.725937 0.490481 0.357197
v -0.725937 0.490481 -0.361556
v 0.725937 0.490481 -0.361556
v 0.725937 0.490481 0.357197
v -0.708616 0.017320 0.339876
v -0.708616 0.017320 -0.344236
v 0.708616 0.017320 0.339876
v 0.708616 0.017320 -0.344236
v -0.704724 0.490481 0.335984
v -0.704724 0.490481 -0.340344
v 0.704724 0.490481 -0.340344
v 0.704724 0.490481 0.335984
v -0.578108 0.000000 -0.361556
v -0.510703 0.000000 -0.361556
v 0.510703 0.000000 -0.361556
v 0.578108 0.000000 -0.361556
v -0.578108 0.000000 0.357197
v -0.510703 0.000000 0.357197
v 0.510703 0.000000 0.357197
v 0.578108 0.000000 0.357197
v -0.578108 0.490481 0.357197
v -0.510703 0.490481 0.357197
v 0.510703 0.490481 0.357197
v 0.578108 0.490481 0.357197
v 0.578108 0.490481 -0.361556
v 0.510703 0.490481 -0.361556
v -0.510703 0.490481 -0.361556
v -0.578108 0.490481 -0.361556
v 0.578108 0.017320 -0.344236
v 0.510703 0.017320 -0.344236
v -0.510703 0.017320 -0.344236
v -0.578108 0.017320 -0.344236
v 0.578108 0.017320 0.339876
v 0.510703 0.017320 0.339876
v -0.510703 0.017320 0.339876
v -0.578108 0.017320 0.339876
v 0.578108 0.490481 0.335984
v 0.510703 0.490481 0.335984
v -0.510703 0.490481 0.335984
v -0.578108 0.490481 0.335984
v -0.578108 0.490481 -0.340344
v -0.510703 0.490481 -0.340344
v 0.510703 0.490481 -0.340344
v 0.578108 0.490481 -0.340344
v -0.510703 0.495927 -0.367003
v -0.578108 0.495927 -0.367003
v -0.578108 0.495927 -0.334852
v -0.510703 0.495927 -0.334852
v 0.510703 0.495927 -0.334852
v 0.578108 0.495927 -0.334852
v 0.578108 0.495927 -0.367003
v 0.510703 0.495927 -0.367003
v 0.510703 0.495927 0.362643
v 0.578108 0.495927 0.362643
v 0.578108 0.495927 0.330493
v 0.510703 0.495927 0.330493
v -0.510703 0.495927 0.330493
v -0.578108 0.495927 0.330493
v -0.578108 0.495927 0.362643
v -0.510703 0.495927 0.362643
v -0.510703 0.022767 0.334385
v -0.578108 0.022767 0.334385
v 0.578108 0.022767 0.334385
v 0.510703 0.022767 0.334385
v 0.578108 0.022767 -0.338744
v 0.510703 0.022767 -0.338744
v -0.510703 0.022767 -0.338744
v -0.578108 0.022767 -0.338744
v -0.578108 -0.005447 0.362643
v -0.510703 -0.005447 0.362643
v 0.510703 -0.005447 0.362643
v 0.578108 -0.005447 0.362643
v 0.510703 -0.005447 -0.367003
v 0.578108 -0.005447 -0.367003
v -0.578108 -0.005447 -0.367003
v -0.510703 -0.005447 -0.367003
v -0.639423 0.472811 0.367727
v -0.582198 0.472811 0.367727
v -0.502206 0.472811 0.367727
v -0.444981 0.472811 0.367727
v -0.639423 0.363617 0.357727
v -0.582198 0.363617 0.357727
v -0.639423 0.472811 0.357727
v -0.582198 0.472811 0.357727
v -0.502206 0.363617 0.357727
v -0.444981 0.363617 0.357727
v -0.502206 0.472811 0.357727
v -0.444981 0.472811 0.357727
v 0.448104 0.472811 0.367727
v 0.505329 0.472811 0.367727
v 0.585321 0.472811 0.367727
v 0.642546 0.472811 0.367727
v 0.448104 0.363617 0.357727
v 0.505329 0.363617 0.357727
v 0.448104 0.472811 0.357727
v 0.505329 0.472811 0.357727
v 0.585321 0.363617 0.357727
v 0.642546 0.363617 0.357727
v 0.585321 0.472811 0.357727
v 0.642546 0.472811 0.357727
v -0.639423 0.363617 0.360062
v -0.639423 0.371281 0.367727
v -0.582198 0.371281 0.367727
v -0.582198 0.363617 0.360062
v -0.502206 0.363617 0.360062
v -0.502206 0.371281 0.367727
v -0.444981 0.371281 0.367727
v -0.444981 0.363617 0.360062
v 0.448104 0.363617 0.360062
v 0.448104 0.371281 0.367727
v 0.505329 0.371281 0.367727
v 0.505329 0.363617 0.360062
v 0.585321 0.363617 0.360062
v 0.585321 0.371281 0.367727
v 0.642546 0.371281 0.367727
v 0.642546 0.363617 0.360062
v -0.610811 0.440644 0.367727
v -0.610811 0.440644 0.383521
v -0.594705 0.431345 0.367727
v -0.594705 0.431345 0.383521
v -0.594705 0.412747 0.367727
v -0.594705 0.412747 0.383521
v -0.610811 0.403448 0.367727
v -0.610811 0.403448 0.383521
v -0.626917 0.412747 0.367727
v -0.626917 0.412747 0.383521
v -0.626917 0.431345 0.367727
v -0.626917 0.431345 0.383521
v -0.473270 0.440644 0.367727
v -0.473270 0.440644 0.383521
v -0.457164 0.431345 0.367727
v -0.457164 0.431345 0.383521
v -0.457164 0.412747 0.367727
v -0.457164 0.412747 0.383521
v -0.473270 0.403448 0.367727
v -0.473270 0.403448 0.383521
v -0.489376 0.412747 0.367727
v -0.489376 0.412747 0.383521
v -0.489376 0.431345 0.367727
v -0.489376 0.431345 0.383521
v 0.476151 0.440644 0.367727
v 0.476151 0.440644 0.383521
v 0.492257 0.431345 0.367727
v 0.492257 0.431345 0.383521
v 0.492257 0.412747 0.367727
v 0.492257 0.412747 0.383521
v 0.476151 0.403448 0.367727
v 0.476151 0.403448 0.383521
v 0.460045 0.412747 0.367727
v 0.460045 0.412747 0.383521
v 0.460045 0.431345 0.367727
v 0.460045 0.431345 0.383521
v 0.613692 0.440644 0.367727
v 0.613692 0.440644 0.383521
v 0.629798 0.431345 0.367727
v 0.629798 0.431345 0.383521
v 0.629798 0.412747 0.367727
v 0.629798 0.412747 0.383521
v 0.613692 0.403448 0.367727
v 0.613692 0.403448 0.383521
v 0.597586 0.412747 0.367727
v 0.597586 0.412747 0.383521
v 0.597586 0.431345 0.367727
v 0.597586 0.431345 0.383521
v -0.166202 0.458589 -0.361556
v 0.166202 0.458589 -0.361556
v 0.166202 0.458589 -0.371556
v -0.166202 0.458589 -0.371556
v 0.166202 0.362069 -0.371556
v -0.166202 0.362069 -0.371556
v 0.166202 0.362069 -0.361556
v -0.166202 0.362069 -0.361556
v 0.126947 0.458589 -0.369552
v -0.126947 0.458589 -0.369552
v -0.126947 0.458589 -0.363560
v 0.126947 0.458589 -0.363560
v -0.128952 0.362069 -0.371556
v 0.128952 0.362069 -0.371556
v -0.128952 0.362069 -0.361556
v 0.128952 0.362069 -0.361556
v -0.000000 0.458589 -0.363560
v -0.000000 0.306443 -0.361556
v -0.000000 0.306443 -0.371556
v -0.000000 0.458589 -0.369552
v -0.000000 0.458589 -0.361556
v -0.128952 0.458589 -0.361556
v -0.000000 0.458589 -0.371556
v 0.128952 0.458589 -0.371556
v 0.128952 0.458589 -0.361556
v -0.128952 0.458589 -0.371556
v -0.000000 0.444682 -0.369552
v -0.000000 0.444682 -0.363560
v -0.126947 0.444682 -0.363560
v 0.126947 0.444682 -0.369552
v 0.126947 0.444682 -0.363560
v -0.126947 0.444682 -0.369552
v 0.147577 0.425520 -0.388416
v 0.147577 0.425520 -0.371556
v 0.160732 0.417924 -0.388416
v 0.160732 0.417924 -0.371556
v 0.160732 0.402733 -0.388416
v 0.160732 0.402733 -0.371556
v 0.147577 0.395138 -0.388416
v 0.147577 0.395138 -0.371556
v 0.134421 0.402733 -0.388416
v 0.134421 0.402733 -0.371556
v 0.134421 0.417924 -0.388416
v 0.134421 0.417924 -0.371556
v -0.150701 0.425520 -0.388416
v -0.150701 0.425520 -0.371556
v -0.137545 0.417924 -0.388416
v -0.137545 0.417924 -0.371556
v -0.137545 0.402733 -0.388416
v -0.137545 0.402733 -0.371556
v -0.150701 0.395138 -0.388416
v -0.150701 0.395138 -0.371556
v -0.163857 0.402733 -0.388416
v -0.163857 0.402733 -0.371556
v -0.163857 0.417924 -0.388416
v -0.163857 0.417924 -0.371556
vt 0.351522 0.750000
vt 0.351522 0.500000
vt 0.351522 0.500000
vt 0.351522 0.750000
vt 0.375000 0.785315
vt 0.583251 0.784819
vt 0.583251 0.784819
vt 0.375000 0.785315
vt 0.375000 0.962545
vt 0.583251 0.962545
vt 0.583251 0.962545
vt 0.375000 0.962545
vt 0.583251 0.462545
vt 0.583251 0.465181
vt 0.583251 0.465181
vt 0.583251 0.462545
vt 0.583251 0.287455
vt 0.375000 0.287455
vt 0.375000 0.287455
vt 0.583251 0.287455
vt 0.375000 0.275900
vt 0.583251 0.275900
vt 0.583251 0.275900
vt 0.375000 0.275900
vt 0.583251 0.772917
vt 0.375000 0.773478
vt 0.375000 0.773478
vt 0.583251 0.772917
vt 0.583251 0.974100
vt 0.375000 0.974100
vt 0.375000 0.974100
vt 0.583251 0.974100
vt 0.583251 0.477083
vt 0.583251 0.474100
vt 0.583251 0.474100
vt 0.583251 0.477083
vt 0.375000 0.462545
vt 0.375000 0.462545
vt 0.583251 0.965181
vt 0.375000 0.964685
vt 0.375000 0.964685
vt 0.583251 0.965181
vt 0.375000 0.285315
vt 0.583251 0.284819
vt 0.583251 0.284819
vt 0.375000 0.285315
vt 0.375000 0.474100
vt 0.375000 0.474100
vt 0.375000 0.976522
vt 0.583251 0.977083
vt 0.583251 0.977083
vt 0.375000 0.976522
vt 0.583251 0.272917
vt 0.375000 0.273478
vt 0.375000 0.273478
vt 0.583251 0.272917
vt 0.583251 0.775900
vt 0.583251 0.787455
vt 0.339685 0.500000
vt 0.339685 0.750000
vt 0.148478 0.500000
vt 0.148478 0.750000
vt 0.160315 0.750000
vt 0.160315 0.500000
vt 0.375000 0.476522
vt 0.375000 0.464685
vt 0.375000 0.775900
vt 0.375000 0.787455
vt 0.349100 0.500000
vt 0.349100 0.750000
vt 0.337545 0.750000
vt 0.337545 0.500000
vt 0.150900 0.750000
vt 0.150900 0.500000
vt 0.162455 0.500000
vt 0.162455 0.750000
vt 0.583251 0.775900
vt 0.375000 0.775900
vt 0.583251 0.787455
vt 0.375000 0.787455
vt 0.339685 0.500000
vt 0.339685 0.750000
vt 0.349100 0.500000
vt 0.349100 0.750000
vt 0.148478 0.500000
vt 0.148478 0.750000
vt 0.337545 0.750000
vt 0.337545 0.500000
vt 0.160315 0.750000
vt 0.160315 0.500000
vt 0.150900 0.750000
vt 0.150900 0.500000
vt 0.375000 0.476522
vt 0.375000 0.464685
vt 0.162455 0.500000
vt 0.162455 0.750000
vt 1.000000 0.000000
vt 0.000000 0.000000
vt 0.000000 0.000000
vt 1.000000 0.000000
vt 1.000000 0.000000
vt 0.000000 0.000000
vt 0.000000 0.000000
vt 1.000000 0.000000
vt 0.000000 0.070191
vt 1.000000 0.070191
vt 1.000000 1.000000
vt 0.000000 1.000000
vt 1.000000 1.000000
vt 0.000000 0.070191
vt 0.000000 1.000000
vt 0.000000 1.000000
vt 0.000000 1.000000
vt 1.000000 0.070191
vt 1.000000 1.000000
vt 1.000000 1.000000
vt 0.000000 0.000000
vt 0.000000 0.070191
vt 0.000000 1.000000
vt 0.000000 1.000000
vt 0.000000 0.000000
vt 1.000000 0.000000
vt 1.000000 0.000000
vt 1.000000 0.000000
vt 0.000000 0.000000
vt 0.000000 0.000000
vt 1.000000 0.000000
vt 1.000000 0.070191
vt 1.000000 1.000000
vt 1.000000 1.000000
vt 0.000000 0.070191
vt 0.000000 1.000000
vt 0.000000 1.000000
vt 1.000000 0.070191
vt 1.000000 1.000000
vt 1.000000 1.000000
vt 1.000000 0.500000
vt 1.000000 1.000000
vt 0.833333 1.000000
vt 0.833333 0.500000
vt 0.666667 1.000000
vt 0.666667 0.500000
vt 0.500000 1.000000
vt 0.500000 0.500000
vt 0.333333 1.000000
vt 0.333333 0.500000
vt 0.457846 0.370000
vt 0.250000 0.490000
vt 0.042154 0.370000
vt 0.042154 0.130000
vt 0.250000 0.010000
vt 0.457846 0.130000
vt 0.166667 1.000000
vt 0.166667 0.500000
vt -0.000000 1.000000
vt -0.000000 0.500000
vt 1.000000 0.500000
vt 1.000000 1.000000
vt 0.833333 1.000000
vt 0.833333 0.500000
vt 0.666667 1.000000
vt 0.666667 0.500000
vt 0.500000 1.000000
vt 0.500000 0.500000
vt 0.333333 1.000000
vt 0.333333 0.500000
vt 0.457846 0.370000
vt 0.250000 0.490000
vt 0.042154 0.370000
vt 0.042154 0.130000
vt 0.250000 0.010000
vt 0.457846 0.130000
vt 0.166667 1.000000
vt 0.166667 0.500000
vt -0.000000 1.000000
vt -0.000000 0.500000
vt 1.000000 0.500000
vt 1.000000 1.000000
vt 0.833333 1.000000
vt 0.833333 0.500000
vt 0.666667 1.000000
vt 0.666667 0.500000
vt 0.500000 1.000000
vt 0.500000 0.500000
vt 0.333333 1.000000
vt 0.333333 0.500000
vt 0.457846 0.370000
vt 0.250000 0.490000
vt 0.042154 0.370000
vt 0.042154 0.130000
vt 0.250000 0.010000
vt 0.457846 0.130000
vt 0.166667 1.000000
vt 0.166667 0.500000
vt -0.000000 1.000000
vt -0.000000 0.500000
vt 1.000000 0.500000
vt 1.000000 1.000000
vt 0.833333 1.000000
vt 0.833333 0.500000
vt 0.666667 1.000000
vt 0.666667 0.500000
vt 0.500000 1.000000
vt 0.500000 0.500000
vt 0.333333 1.000000
vt 0.333333 0.500000
vt 0.457846 0.370000
vt 0.250000 0.490000
vt 0.042154 0.370000
vt 0.042154 0.130000
vt 0.250000 0.010000
vt 0.457846 0.130000
vt 0.166667 1.000000
vt 0.166667 0.500000
vt -0.000000 1.000000
vt -0.000000 0.500000
vt 0.000000 0.000000
vt 0.000000 0.000000
vt 0.000000 0.000000
vt 0.000000 0.000000
vt 0.000000 0.000000
vt 0.000000 0.000000
vt 0.000000 0.000000
vt 0.000000 0.000000
vt 0.000000 0.000000
vt 0.000000 0.000000
vt 0.100216 0.000000
vt 0.167327 0.000000
vt 0.671234 0.000000
vt 0.399784 0.000000
vt 0.500000 0.000000
vt 0.843906 0.000000
vt 0.100216 0.000000
vt 0.399784 0.000000
vt 0.671234 0.000000
vt 0.167327 0.000000
vt 1.000000 0.500000
vt 1.000000 1.000000
vt 0.833333 1.000000
vt 0.833333 0.500000
vt 0.666667 1.000000
vt 0.666667 0.500000
vt 0.500000 1.000000
vt 0.500000 0.500000
vt 0.333333 1.000000
vt 0.333333 0.500000
vt 0.166667 1.000000
vt 0.166667 0.500000
vt -0.000000 1.000000
vt -0.000000 0.500000
vt 0.750000 0.490000
vt 0.957846 0.370000
vt 0.957846 0.130000
vt 0.750000 0.010000
vt 0.542154 0.130000
vt 0.542154 0.370000
vt 1.000000 0.500000
vt 1.000000 1.000000
vt 0.833333 1.000000
vt 0.833333 0.500000
vt 0.666667 1.000000
vt 0.666667 0.500000
vt 0.500000 1.000000
vt 0.500000 0.500000
vt 0.333333 1.000000
vt 0.333333 0.500000
vt 0.166667 1.000000
vt 0.166667 0.500000
vt -0.000000 1.000000
vt -0.000000 0.500000
vt 0.750000 0.490000
vt 0.957846 0.370000
vt 0.957846 0.130000
vt 0.750000 0.010000
vt 0.542154 0.130000
vt 0.542154 0.370000
vt 0.943250 0.000000
vt 0.943250 0.000000
vt 0.943250 0.000000
vt 0.943250 0.000000
vt 0.056750 0.000000
vt 0.056750 0.000000
vt 0.056750 0.000000
vt 0.056750 0.000000
vt 0.843906 0.000000
vt 0.843906 0.000000
vt 0.156094 0.000000
vt 0.156094 0.000000
vt 0.156094 0.000000
vt 0.500000 0.000000
vt 0.500000 0.000000
vt 0.033106 0.000000
vt 0.033106 0.000000
vt 0.128333 0.000000
vt 0.128333 0.000000
vt 0.375000 0.500000
vt 0.583251 0.500000
vt 0.583251 0.750000
vt 0.375000 0.750000
vt 0.583251 0.250000
vt 0.375000 0.250000
vt 0.375000 0.000000
vt 0.583251 0.000000
vt 0.375000 0.500000
vt 0.375000 0.750000
vt 0.583251 0.750000
vt 0.583251 0.500000
vt 0.125000 0.750000
vt 0.125000 0.500000
vt 0.583251 0.250000
vt 0.583251 0.000000
vt 0.375000 0.000000
vt 0.375000 0.250000
vt 0.375000 1.000000
vt 0.583251 1.000000
vt 0.583251 1.000000
vt 0.375000 1.000000
vt 0.125000 0.750000
vt 0.125000 0.500000
vn 1.0000 0.0000 0.0000
vn -1.0000 0.0000 0.0000
vn 0.0000 1.0000 0.0000
vn 0.0000 -0.0082 -1.0000
vn 0.0000 -0.0082 1.0000
vn 0.0000 0.0000 1.0000
vn 0.0000 -1.0000 0.0000
vn 0.0000 0.0000 -1.0000
vn 0.0000 -0.7071 0.7071
vn 0.5000 0.8660 0.0000
vn 0.5000 -0.8660 0.0000
vn -0.5000 -0.8660 0.0000
vn -0.5000 0.8660 0.0000
vn -0.2022 -0.9793 0.0000
vn 0.2022 -0.9793 0.0000
vn -0.3961 -0.9182 0.0000
vn 0.3961 -0.9182 0.0000
vn -1.0000 -0.0082 0.0000
vn 1.0000 -0.0082 0.0000
usemtl Metal
s off
f 37/1/1 33/2/1 69/3/1 67/4/1
f 38/5/2 42/6/2 60/7/2 68/8/2
f 22/9/1 26/10/1 64/11/1 74/12/1
f 30/13/2 47/14/2 53/15/2 56/16/2
f 31/17/1 18/18/1 80/19/1 49/20/1
f 17/21/2 32/22/2 50/23/2 79/24/2
f 41/25/1 37/26/1 67/27/1 59/28/1
f 25/29/2 21/30/2 73/31/2 63/32/2
f 48/33/1 29/34/1 55/35/1 54/36/1
f 19/37/2 30/13/2 56/16/2 77/38/2
f 43/39/1 39/40/1 65/41/1 61/42/1
f 35/43/1 46/44/1 52/45/1 71/46/1
f 29/34/1 20/47/1 78/48/1 55/35/1
f 40/49/2 44/50/2 62/51/2 66/52/2
f 45/53/2 36/54/2 72/55/2 51/56/2
f 46/44/1 31/17/1 49/20/1 52/45/1
f 50/23/3 51/56/3 52/45/3 49/20/3
f 54/36/3 55/35/3 56/16/3 53/15/3
f 58/57/3 59/28/3 60/7/3 57/58/3
f 62/51/3 63/32/3 64/11/3 61/42/3
f 66/52/4 62/51/4 61/42/4 65/41/4
f 59/28/4 67/27/4 68/8/4 60/7/4
f 67/4/3 69/3/3 70/59/3 68/60/3
f 72/61/3 66/62/3 65/63/3 71/64/3
f 69/65/5 54/36/5 53/15/5 70/66/5
f 51/56/5 72/55/5 71/46/5 52/45/5
f 63/32/6 73/31/6 74/12/6 64/11/6
f 76/67/6 58/57/6 57/58/6 75/68/6
f 78/69/7 76/70/7 75/71/7 77/72/7
f 73/73/7 79/74/7 80/75/7 74/76/7
f 55/35/8 78/48/8 77/38/8 56/16/8
f 79/24/8 50/23/8 49/20/8 80/19/8
f 28/77/1 41/25/1 59/28/1 58/57/1
f 24/78/1 28/77/1 58/57/1 76/67/1
f 27/79/2 23/80/2 75/68/2 57/58/2
f 34/81/2 38/82/2 68/60/2 70/59/2
f 42/6/2 27/79/2 57/58/2 60/7/2
f 20/83/1 24/84/1 76/70/1 78/69/1
f 36/85/2 40/86/2 66/62/2 72/61/2
f 44/50/2 25/29/2 63/32/2 62/51/2
f 23/87/2 19/88/2 77/72/2 75/71/2
f 39/89/1 35/90/1 71/64/1 65/63/1
f 21/91/2 17/92/2 79/74/2 73/73/2
f 32/22/2 45/53/2 51/56/2 50/23/2
f 33/93/1 48/33/1 54/36/1 69/65/1
f 26/10/1 43/39/1 61/42/1 64/11/1
f 47/14/2 34/94/2 70/66/2 53/15/2
f 18/95/1 22/96/1 74/76/1 80/75/1
f 108/97/7 105/98/7 85/99/7 86/100/7
f 112/101/7 109/102/7 89/103/7 90/104/7
f 106/105/6 107/106/6 82/107/6 81/108/6
f 88/109/1 108/97/1 86/100/1
f 109/102/2 110/110/2 83/111/2 91/112/2
f 81/108/3 82/107/3 88/109/3 87/113/3
f 110/110/6 111/114/6 84/115/6 83/111/6
f 92/116/1 112/101/1 90/104/1
f 113/117/2 114/118/2 93/119/2 99/120/2 97/121/2
f 83/111/3 84/115/3 92/116/3 91/112/3
f 116/122/7 113/117/7 97/121/7 98/123/7
f 120/124/7 117/125/7 101/126/7 102/127/7
f 114/118/6 115/128/6 94/129/6 93/119/6
f 94/129/1 115/128/1 116/122/1 98/123/1 100/130/1
f 117/125/2 118/131/2 95/132/2 103/133/2 101/126/2
f 93/119/3 94/129/3 100/130/3 99/120/3
f 118/131/6 119/134/6 96/135/6 95/132/6
f 96/135/1 119/134/1 120/124/1 102/127/1 104/136/1
f 95/132/3 96/135/3 104/136/3 103/133/3
f 105/98/9 108/97/9 107/106/9 106/105/9
f 111/114/9 110/110/9 109/102/9 112/101/9
f 113/117/9 116/122/9 115/128/9 114/118/9
f 119/134/9 118/131/9 117/125/9 120/124/9
f 105/98/2 106/105/2 81/108/2 87/113/2
f 84/115/1 111/114/1 112/101/1 92/116/1
f 89/103/2 109/102/2 91/112/2
f 85/99/2 105/98/2 87/113/2
f 82/107/1 107/106/1 108/97/1 88/109/1
f 121/137/10 122/138/10 124/139/10 123/140/10
f 123/140/1 124/139/1 126/141/1 125/142/1
f 125/142/11 126/141/11 128/143/11 127/144/11
f 127/144/12 128/143/12 130/145/12 129/146/12
f 124/147/6 122/148/6 132/149/6 130/150/6 128/151/6 126/152/6
f 129/146/2 130/145/2 132/153/2 131/154/2
f 131/154/13 132/153/13 122/155/13 121/156/13
f 133/157/10 134/158/10 136/159/10 135/160/10
f 135/160/1 136/159/1 138/161/1 137/162/1
f 137/162/11 138/161/11 140/163/11 139/164/11
f 139/164/12 140/163/12 142/165/12 141/166/12
f 136/167/6 134/168/6 144/169/6 142/170/6 140/171/6 138/172/6
f 141/166/2 142/165/2 144/173/2 143/174/2
f 143/174/13 144/173/13 134/175/13 133/176/13
f 145/177/10 146/178/10 148/179/10 147/180/10
f 147/180/1 148/179/1 150/181/1 149/182/1
f 149/182/11 150/181/11 152/183/11 151/184/11
f 151/184/12 152/183/12 154/185/12 153/186/12
f 148/187/6 146/188/6 156/189/6 154/190/6 152/191/6 150/192/6
f 153/186/2 154/185/2 156/193/2 155/194/2
f 155/194/13 156/193/13 146/195/13 145/196/13
f 157/197/10 158/198/10 160/199/10 159/200/10
f 159/200/1 160/199/1 162/201/1 161/202/1
f 161/202/11 162/201/11 164/203/11 163/204/11
f 163/204/12 164/203/12 166/205/12 165/206/12
f 160/207/6 158/208/6 168/209/6 166/210/6 164/211/6 162/212/6
f 165/206/2 166/205/2 168/213/2 167/214/2
f 167/214/13 168/213/13 158/215/13 157/216/13
f 190/217/6 169/218/6 176/219/6 183/220/6
f 170/221/6 193/222/6 184/223/6 175/224/6
f 189/225/6 186/226/6 184/223/6 193/222/6
f 190/217/6 183/220/6 186/226/6 189/225/6
f 185/227/3 179/228/3 190/217/3 189/225/3
f 178/229/3 188/230/3 191/231/3 194/232/3
f 179/228/3 178/229/3 194/232/3 190/217/3
f 196/233/3 195/234/3 200/235/3 197/236/3
f 179/228/8 185/227/8 196/233/8 197/236/8
f 178/229/1 179/228/1 197/236/1 200/235/1
f 188/230/6 178/229/6 200/235/6 195/234/6
f 201/237/10 202/238/10 204/239/10 203/240/10
f 203/240/1 204/239/1 206/241/1 205/242/1
f 205/242/11 206/241/11 208/243/11 207/244/11
f 207/244/12 208/243/12 210/245/12 209/246/12
f 209/246/2 210/245/2 212/247/2 211/248/2
f 211/248/13 212/247/13 202/249/13 201/250/13
f 201/251/8 203/252/8 205/253/8 207/254/8 209/255/8 211/256/8
f 213/257/10 214/258/10 216/259/10 215/260/10
f 215/260/1 216/259/1 218/261/1 217/262/1
f 217/262/11 218/261/11 220/263/11 219/264/11
f 219/264/12 220/263/12 222/265/12 221/266/12
f 221/266/2 222/265/2 224/267/2 223/268/2
f 223/268/13 224/267/13 214/269/13 213/270/13
f 213/271/8 215/272/8 217/273/8 219/274/8 221/275/8 223/276/8
s 1
f 169/277/2 172/278/2 174/279/2 176/280/2
f 171/281/1 170/282/1 175/283/1 173/284/1
f 174/279/7 181/285/14 183/286/14 176/280/7
f 182/287/15 173/284/7 175/283/7 184/288/15
f 192/289/8 171/281/8 173/284/8 182/287/8
f 187/290/16 186/291/16 183/286/14 181/285/14
f 191/231/8 187/290/8 181/285/8 194/232/8
f 172/278/8 194/232/8 181/285/8 174/279/8
f 192/289/8 182/287/8 187/290/8 191/231/8
f 182/287/15 184/288/15 186/291/17 187/290/17
f 185/227/8 180/292/8 199/293/8 196/233/8
f 180/292/2 177/294/2 198/295/2 199/293/2
f 172/278/3 169/218/3 190/217/3 194/232/3
f 170/221/3 171/281/3 192/289/3 193/222/3
f 188/230/3 177/294/3 192/289/3 191/231/3
f 180/292/3 185/227/3 189/225/3 193/222/3
f 177/294/3 180/292/3 193/222/3 192/289/3
f 195/234/3 196/233/3 199/293/3 198/295/3
f 177/294/6 188/230/6 195/234/6 198/295/6
usemtl Wood
s off
f 4/296/1 7/297/1 8/298/1 3/299/1
f 27/79/3 42/6/3 43/39/3 26/10/3
f 6/300/2 2/301/2 1/302/2 5/303/2
f 24/84/7 20/83/7 4/296/7 3/299/7
f 31/17/3 46/44/3 47/14/3 30/13/3
f 12/304/18 11/305/18 16/306/18 15/307/18
f 9/308/3 40/86/3 36/85/3 10/309/3
f 14/310/19 13/311/19 9/312/19 10/313/19
f 40/49/4 9/314/4 13/315/4 44/50/4
f 8/298/3 7/297/3 15/307/3 16/306/3
f 28/77/3 8/298/3 16/306/3 41/25/3
f 6/300/3 5/303/3 13/311/3 14/310/3
f 32/22/3 6/300/3 14/310/3 45/53/3
f 39/40/4 43/39/4 42/6/4 38/5/4
f 38/82/3 34/81/3 35/90/3 39/89/3
f 37/1/3 11/305/3 12/304/3 33/2/3
f 10/313/5 36/54/5 45/53/5 14/310/5
f 3/299/6 8/298/6 28/77/6 24/78/6
f 26/10/6 22/9/6 23/80/6 27/79/6
f 20/47/8 29/34/8 7/297/8 4/296/8
f 7/297/3 29/34/3 48/33/3 15/307/3
f 5/316/3 25/29/3 44/50/3 13/315/3
f 11/305/4 37/26/4 41/25/4 16/306/4
f 34/94/5 47/14/5 46/44/5 35/43/5
f 33/93/5 12/304/5 15/307/5 48/33/5
f 21/30/6 25/29/6 5/316/6 1/317/6
f 1/318/7 2/319/7 17/92/7 21/91/7
f 2/301/8 6/300/8 32/22/8 17/21/8
f 19/88/7 23/87/7 22/96/7 18/95/7
f 30/13/8 19/37/8 18/18/8 31/17/8
