# Blender v2.93.1 OBJ File: 'NewPlayerHomeBed2.blend'
# www.blender.org
mtllib KitchenCounter.mtl
o Counter_Cube.026
v -1.000000 0.000000 0.443780
v -0.920834 0.079166 -0.443780
v -1.000000 1.176353 -0.443780
v 1.000000 0.000000 0.443780
v 0.920834 0.079166 -0.443780
v 1.000000 1.176353 -0.443780
v -1.000000 1.034830 0.443780
v -0.920834 0.955664 -0.443780
v 0.920834 0.955664 -0.443780
v 1.000000 1.034830 0.443780
v 0.000000 0.079166 -0.443780
v 0.000000 1.176353 -0.443780
v 0.000000 0.000000 0.443780
v 0.000000 1.034830 0.443780
v 0.000000 0.955664 -0.443780
v -1.000000 1.034830 -0.443780
v -1.000000 0.000000 -0.443780
v 0.000000 0.000000 -0.443780
v 1.000000 1.034830 -0.443780
v 1.000000 0.000000 -0.443780
v 0.000000 1.034830 -0.443780
v 0.920834 0.955664 -0.469468
v 0.000000 0.943358 -0.443780
v 0.908528 0.943358 -0.443780
v 0.908528 0.091472 -0.443780
v -0.908528 0.091472 -0.443780
v -0.908528 0.943358 -0.443780
v 0.000000 0.079166 -0.469468
v 0.000000 0.091472 -0.443780
v -0.920834 0.079166 -0.469468
v -0.920834 0.955664 -0.469468
v 0.908528 0.943358 0.319955
v 0.908528 0.091472 0.319955
v -0.908528 0.091472 0.319955
v -0.908528 0.943358 0.319955
v 0.000000 0.943358 0.319955
v 0.000000 0.091472 0.319955
v 0.012306 0.091472 -0.469468
v 0.012306 0.943358 -0.469468
v -0.012306 0.943358 -0.469468
v -0.012306 0.091472 -0.469468
v 0.012306 0.091472 -0.416989
v 0.012306 0.943358 -0.416989
v -0.012306 0.943358 -0.416989
v -0.012306 0.091472 -0.416989
v 0.920834 0.079166 -0.469468
v 0.000000 0.955664 -0.469468
v 0.000000 0.943358 -0.469468
v 0.908528 0.943358 -0.469468
v 0.908528 0.091472 -0.469468
v -0.908528 0.943358 -0.469468
v -0.908528 0.091472 -0.469468
v 0.000000 0.091472 -0.469468
v -1.000000 1.034830 -0.505508
v 1.000000 1.034830 -0.505508
v 0.000000 1.034830 -0.505508
v -1.000000 1.161857 0.443780
v -1.000000 1.161857 -0.443780
v 0.000000 1.161857 -0.443780
v 1.000000 1.161857 -0.443780
v 1.000000 1.161857 0.443780
v 0.000000 1.161857 0.443780
v 0.000000 1.168535 -0.505508
v 0.000000 1.176353 -0.497690
v 1.000000 1.168535 -0.505508
v 1.000000 1.176353 -0.497690
v -1.000000 1.176353 -0.497690
v -1.000000 1.168535 -0.505508
vt 0.623339 0.500000
vt 0.625000 0.500000
vt 0.625000 0.500000
vt 0.625000 0.500000
vt 0.250000 0.500000
vt 0.375000 0.500000
vt 0.375000 0.750000
vt 0.250000 0.750000
vt 0.375000 0.875000
vt 0.594923 0.875000
vt 0.594923 1.000000
vt 0.375000 1.000000
vt 0.594923 0.500000
vt 0.594923 0.750000
vt 0.375000 0.000000
vt 0.594923 0.000000
vt 0.594923 0.250000
vt 0.375000 0.250000
vt 0.750000 0.500000
vt 0.750000 0.500000
vt 0.125000 0.500000
vt 0.125000 0.750000
vt 0.594923 0.375000
vt 0.594923 0.375000
vt 0.594923 0.500000
vt 0.578099 0.259896
vt 0.391825 0.259896
vt 0.391824 0.375000
vt 0.375000 0.375000
vt 0.391825 0.490104
vt 0.578099 0.490104
vt 0.578099 0.375000
vt 0.575484 0.261434
vt 0.394440 0.261434
vt 0.394440 0.261434
vt 0.575484 0.261434
vt 0.391825 0.490104
vt 0.578099 0.490104
vt 0.578099 0.375000
vt 0.578099 0.259896
vt 0.391825 0.259896
vt 0.391824 0.375000
vt 0.575484 0.373462
vt 0.575484 0.373462
vt 0.394440 0.488566
vt 0.394440 0.376538
vt 0.394440 0.376538
vt 0.394440 0.488566
vt 0.575484 0.373462
vt 0.575484 0.261434
vt 0.394440 0.261434
vt 0.575484 0.376538
vt 0.575484 0.488566
vt 0.575484 0.488566
vt 0.575484 0.376538
vt 0.394440 0.373462
vt 0.394440 0.373462
vt 0.394440 0.373462
vt 0.394440 0.376538
vt 0.575484 0.376538
vt 0.575484 0.373462
vt 0.575484 0.373462
vt 0.394440 0.373462
vt 0.394440 0.376538
vt 0.575484 0.376538
vt 0.575484 0.488566
vt 0.575484 0.376538
vt 0.394440 0.488566
vt 0.394440 0.376538
vt 0.394440 0.373462
vt 0.875000 0.500000
vt 0.750000 0.500000
vt 0.875000 0.500000
vt 0.594923 0.250000
vt 0.875000 0.500000
vt 0.623339 0.250000
vt 0.623339 0.375000
vt 0.875000 0.750000
vt 0.750000 0.750000
vt 0.625000 0.750000
vt 0.625000 0.375000
vt 0.625000 0.250000
vn 1.0000 0.0000 0.0000
vn 0.0000 -1.0000 0.0000
vn 0.0000 0.0000 1.0000
vn -1.0000 0.0000 0.0000
vn -0.0000 0.0000 -1.0000
vn 0.0000 1.0000 0.0000
vn 0.0000 0.7071 -0.7071
usemtl Wood
s off
f 65/1/1 66/2/1 6/3/1 60/4/1
f 18/5/2 20/6/2 4/7/2 13/8/2
f 13/9/3 14/10/3 7/11/3 1/12/3
f 20/6/1 19/13/1 10/14/1 4/7/1
f 1/15/4 7/16/4 16/17/4 17/18/4
f 4/7/3 10/14/3 14/10/3 13/9/3
f 6/3/3 12/19/3 59/20/3 60/4/3
f 17/21/2 18/5/2 13/8/2 1/22/2
f 19/13/2 21/23/2 56/24/2 55/25/2
f 8/26/5 2/27/5 17/18/5 16/17/5
f 2/27/5 11/28/5 18/29/5 17/18/5
f 5/30/5 9/31/5 19/13/5 20/6/5
f 9/31/5 15/32/5 21/23/5 19/13/5
f 11/28/5 5/30/5 20/6/5 18/29/5
f 15/32/5 8/26/5 16/17/5 21/23/5
f 27/33/1 26/34/1 52/35/1 51/36/1
f 9/31/1 5/30/1 46/37/1 22/38/1
f 8/26/6 15/32/6 47/39/6 31/40/6
f 11/28/2 2/27/2 30/41/2 28/42/2
f 5/30/2 11/28/2 28/42/2 46/37/2
f 23/43/2 27/33/2 51/36/2 48/44/2
f 25/45/6 29/46/6 37/47/6 33/48/6
f 27/33/2 23/43/2 36/49/2 35/50/2
f 26/34/1 27/33/1 35/50/1 34/51/1
f 23/52/2 24/53/2 32/54/2 36/55/2
f 29/56/6 26/34/6 34/51/6 37/57/6
f 24/53/4 25/45/4 33/48/4 32/54/4
f 33/48/5 37/47/5 36/55/5 32/54/5
f 35/50/5 36/49/5 37/57/5 34/51/5
f 45/58/3 42/59/3 43/60/3 44/61/3
f 40/62/4 41/63/4 45/58/4 44/61/4
f 38/64/1 39/65/1 43/60/1 42/59/1
f 38/64/5 41/63/5 40/62/5 39/65/5
f 47/39/5 22/38/5 49/66/5 48/67/5
f 22/38/5 46/37/5 50/68/5 49/66/5
f 46/37/5 28/42/5 53/69/5 50/68/5
f 30/41/5 31/40/5 51/36/5 52/35/5
f 31/40/5 47/39/5 48/44/5 51/36/5
f 28/42/5 30/41/5 52/35/5 53/70/5
f 24/53/2 23/52/2 48/67/2 49/66/2
f 29/46/6 25/45/6 50/68/6 53/69/6
f 26/34/6 29/56/6 53/70/6 52/35/6
f 15/32/6 9/31/6 22/38/6 47/39/6
f 2/27/4 8/26/4 31/40/4 30/41/4
f 25/45/4 24/53/4 49/66/4 50/68/4
f 3/71/6 12/19/6 64/72/6 67/73/6
f 12/19/6 6/3/6 66/2/6 64/72/6
f 21/23/2 16/17/2 54/74/2 56/24/2
f 58/75/4 3/71/4 67/73/4 68/76/4
f 54/74/5 68/76/5 63/77/5 56/24/5
f 59/20/6 58/75/6 57/78/6 62/79/6
f 60/4/6 59/20/6 62/79/6 61/80/6
f 12/19/3 3/71/3 58/75/3 59/20/3
f 60/4/1 19/13/1 55/25/1 65/1/1
f 68/76/4 54/74/4 16/17/4 58/75/4
f 7/16/3 14/10/3 62/79/3 57/78/3
f 14/10/3 10/14/3 61/80/3 62/79/3
f 64/81/7 66/2/7 65/1/7 63/77/7
f 67/82/7 64/81/7 63/77/7 68/76/7
f 56/24/5 63/77/5 65/1/5 55/25/5
f 16/17/4 7/16/4 57/78/4 58/75/4
f 10/14/1 19/13/1 60/4/1 61/80/1
