# Blender v2.91.2 OBJ File: 'NewPlayerHome_Out.blend'
# www.blender.org
mtllib RoofLargeRibbing.mtl
o LargeRoofRibbing_Cube.020
v 9.300000 4.958657 -4.855425
v 9.300000 5.237144 -4.855425
v 9.800000 4.958657 -4.855425
v 9.800000 5.237144 -4.855425
v 9.300000 4.958657 4.855425
v 9.300000 5.237144 4.855425
v 9.800000 4.958657 4.855425
v 9.800000 5.237144 4.855425
v 9.300000 7.407628 0.000000
v 9.300000 7.907628 0.000000
v 9.800000 7.407628 0.000000
v 9.800000 7.907628 0.000000
v 5.300000 4.958657 -4.855425
v 5.300000 5.237144 -4.855425
v 5.800000 4.958657 -4.855425
v 5.800000 5.237144 -4.855425
v 5.300000 4.958657 4.855425
v 5.300000 5.237144 4.855425
v 5.800000 4.958657 4.855425
v 5.800000 5.237144 4.855425
v 5.300000 7.407628 0.000000
v 5.300000 7.907628 0.000000
v 5.800000 7.407628 0.000000
v 5.800000 7.907628 0.000000
v 1.300000 4.958657 -4.855425
v 1.300000 5.237144 -4.855425
v 1.800000 4.958657 -4.855425
v 1.800000 5.237144 -4.855425
v 1.300000 4.958657 4.855425
v 1.300000 5.237144 4.855425
v 1.800000 4.958657 4.855425
v 1.800000 5.237144 4.855425
v 1.300000 7.407628 0.000000
v 1.300000 7.907628 0.000000
v 1.800000 7.407628 0.000000
v 1.800000 7.907628 0.000000
v -2.700000 4.958657 -4.855425
v -2.700000 5.237144 -4.855425
v -2.200000 4.958657 -4.855425
v -2.200000 5.237144 -4.855425
v -2.700000 4.958657 4.855425
v -2.700000 5.237144 4.855425
v -2.200000 4.958657 4.855425
v -2.200000 5.237144 4.855425
v -2.700000 7.407628 0.000000
v -2.700000 7.907628 0.000000
v -2.200000 7.407628 0.000000
v -2.200000 7.907628 0.000000
v -6.700000 4.958657 -4.855425
v -6.700000 5.237144 -4.855425
v -6.200000 4.958657 -4.855425
v -6.200000 5.237144 -4.855425
v -6.700000 4.958657 4.855425
v -6.700000 5.237144 4.855425
v -6.200000 4.958657 4.855425
v -6.200000 5.237144 4.855425
v -6.700000 7.407628 0.000000
v -6.700000 7.907628 0.000000
v -6.200000 7.407628 0.000000
v -6.200000 7.907628 0.000000
v -10.700000 4.958657 -4.855425
v -10.700000 5.237144 -4.855425
v -10.200000 4.958657 -4.855425
v -10.200000 5.237144 -4.855425
v -10.700000 4.958657 4.855425
v -10.700000 5.237144 4.855425
v -10.200000 4.958657 4.855425
v -10.200000 5.237144 4.855425
v -10.700000 7.407628 0.000000
v -10.700000 7.907628 0.000000
v -10.200000 7.407628 0.000000
v -10.200000 7.907628 0.000000
v -14.700000 4.958657 -4.855425
v -14.700000 5.237144 -4.855425
v -14.200000 4.958657 -4.855425
v -14.200000 5.237144 -4.855425
v -14.700000 4.958657 4.855425
v -14.700000 5.237144 4.855425
v -14.200000 4.958657 4.855425
v -14.200000 5.237144 4.855425
v -14.700000 7.407628 0.000000
v -14.700000 7.907628 0.000000
v -14.200000 7.407628 0.000000
v -14.200000 7.907628 0.000000
vt 0.483203 0.382280
vt 0.521765 0.382280
vt 0.315806 0.756750
vt 0.294328 0.756750
vt 0.017485 0.804277
vt 0.007812 0.804277
vt 0.007812 0.765715
vt 0.017485 0.765715
vt 0.266776 0.765715
vt 0.266776 0.804277
vt 0.010258 0.007810
vt 0.031736 0.007810
vt 0.237695 0.382280
vt 0.199133 0.382280
vt 0.294328 0.007810
vt 0.315806 0.007810
vt 0.753763 0.029288
vt 0.715201 0.029288
vt 0.715201 0.007810
vt 0.753763 0.007810
vt 0.686182 0.804277
vt 0.686182 0.765715
vt 0.010258 0.756750
vt 0.031736 0.756750
vt 0.767251 0.382280
vt 0.805813 0.382280
vt 0.599855 0.756750
vt 0.578377 0.756750
vt 0.017485 0.853174
vt 0.007812 0.853174
vt 0.007812 0.814612
vt 0.017485 0.814612
vt 0.266776 0.814612
vt 0.266776 0.853174
vt 0.341668 0.007807
vt 0.363146 0.007807
vt 0.569105 0.382277
vt 0.530543 0.382277
vt 0.578376 0.007810
vt 0.599854 0.007810
vt 0.800151 0.029299
vt 0.761590 0.029299
vt 0.761590 0.007821
vt 0.800151 0.007821
vt 0.686182 0.853174
vt 0.686182 0.814612
vt 0.341668 0.756747
vt 0.363146 0.756747
vt 0.246472 0.382277
vt 0.285035 0.382277
vt 0.079076 0.756747
vt 0.057598 0.756747
vt 0.017485 0.950963
vt 0.007812 0.950963
vt 0.007812 0.912401
vt 0.017485 0.912401
vt 0.266776 0.912401
vt 0.266776 0.950963
vt 0.625716 0.007807
vt 0.647194 0.007807
vt 0.853153 0.382277
vt 0.814591 0.382277
vt 0.057598 0.007807
vt 0.079076 0.007807
vt 0.846540 0.029286
vt 0.807977 0.029286
vt 0.807977 0.007808
vt 0.846540 0.007808
vt 0.686182 0.950963
vt 0.686182 0.912401
vt 0.625716 0.756747
vt 0.647194 0.756747
vt 0.293803 0.382280
vt 0.332365 0.382280
vt 0.126407 0.756750
vt 0.104929 0.756750
vt 0.953622 0.017485
vt 0.953622 0.007812
vt 0.992185 0.007812
vt 0.992185 0.017485
vt 0.992185 0.266776
vt 0.953622 0.266776
vt 0.152269 0.007807
vt 0.173747 0.007807
vt 0.379705 0.382277
vt 0.341143 0.382277
vt 0.104929 0.007810
vt 0.126407 0.007810
vt 0.707375 0.029284
vt 0.668812 0.029284
vt 0.668812 0.007806
vt 0.707375 0.007806
vt 0.953622 0.686182
vt 0.992185 0.686182
vt 0.152269 0.756747
vt 0.173747 0.756747
vt 0.388499 0.382277
vt 0.427061 0.382277
vt 0.221102 0.756747
vt 0.199624 0.756747
vt 0.860890 0.017485
vt 0.860890 0.007812
vt 0.899453 0.007812
vt 0.899453 0.017485
vt 0.899453 0.266776
vt 0.860890 0.266776
vt 0.483694 0.007807
vt 0.505172 0.007807
vt 0.711131 0.382277
vt 0.672569 0.382277
vt 0.199624 0.007807
vt 0.221102 0.007807
vt 0.724646 0.060724
vt 0.686086 0.060724
vt 0.686086 0.039246
vt 0.724646 0.039246
vt 0.860890 0.686182
vt 0.899453 0.686182
vt 0.483695 0.756747
vt 0.505173 0.756747
vt 0.577885 0.382277
vt 0.616447 0.382277
vt 0.410488 0.756747
vt 0.389010 0.756747
vt 0.017485 0.902060
vt 0.007812 0.902060
vt 0.007812 0.863499
vt 0.017485 0.863499
vt 0.266776 0.863499
vt 0.266776 0.902060
vt 0.246981 0.007810
vt 0.268459 0.007810
vt 0.474418 0.382280
vt 0.435856 0.382280
vt 0.389010 0.007807
vt 0.410488 0.007807
vt 0.771017 0.060722
vt 0.732456 0.060722
vt 0.732456 0.039244
vt 0.771017 0.039244
vt 0.686182 0.902060
vt 0.686182 0.863499
vt 0.246982 0.756750
vt 0.268459 0.756750
vt 0.719909 0.382280
vt 0.758471 0.382280
vt 0.552513 0.756750
vt 0.531035 0.756750
vt 0.907264 0.017485
vt 0.907264 0.007812
vt 0.945825 0.007812
vt 0.945825 0.017485
vt 0.945825 0.266776
vt 0.907264 0.266776
vt 0.436350 0.007810
vt 0.457828 0.007810
vt 0.663787 0.382280
vt 0.625225 0.382280
vt 0.531034 0.007810
vt 0.552512 0.007810
vt 0.817388 0.060716
vt 0.778827 0.060716
vt 0.778827 0.039238
vt 0.817388 0.039238
vt 0.907264 0.686182
vt 0.945825 0.686182
vt 0.436350 0.756750
vt 0.457828 0.756750
vn -1.0000 0.0000 0.0000
vn 0.0000 0.0000 -1.0000
vn 0.0000 -0.8929 0.4503
vn 1.0000 0.0000 0.0000
vn 0.0000 0.0000 1.0000
vn 0.0000 -0.8929 -0.4503
usemtl None
s off
f 9/1/1 10/2/1 2/3/1 1/4/1
f 1/5/2 2/6/2 4/7/2 3/8/2
f 1/5/3 3/8/3 11/9/3 9/10/3
f 3/11/4 4/12/4 12/13/4 11/14/4
f 9/1/1 5/15/1 6/16/1 10/2/1
f 5/17/5 7/18/5 8/19/5 6/20/5
f 5/21/6 9/10/6 11/9/6 7/22/6
f 7/23/4 11/14/4 12/13/4 8/24/4
f 21/25/1 22/26/1 14/27/1 13/28/1
f 13/29/2 14/30/2 16/31/2 15/32/2
f 13/29/3 15/32/3 23/33/3 21/34/3
f 15/35/4 16/36/4 24/37/4 23/38/4
f 21/25/1 17/39/1 18/40/1 22/26/1
f 17/41/5 19/42/5 20/43/5 18/44/5
f 17/45/6 21/34/6 23/33/6 19/46/6
f 19/47/4 23/38/4 24/37/4 20/48/4
f 33/49/1 34/50/1 26/51/1 25/52/1
f 25/53/2 26/54/2 28/55/2 27/56/2
f 25/53/3 27/56/3 35/57/3 33/58/3
f 27/59/4 28/60/4 36/61/4 35/62/4
f 33/49/1 29/63/1 30/64/1 34/50/1
f 29/65/5 31/66/5 32/67/5 30/68/5
f 29/69/6 33/58/6 35/57/6 31/70/6
f 31/71/4 35/62/4 36/61/4 32/72/4
f 45/73/1 46/74/1 38/75/1 37/76/1
f 37/77/2 38/78/2 40/79/2 39/80/2
f 37/77/3 39/80/3 47/81/3 45/82/3
f 39/83/4 40/84/4 48/85/4 47/86/4
f 45/73/1 41/87/1 42/88/1 46/74/1
f 41/89/5 43/90/5 44/91/5 42/92/5
f 41/93/6 45/82/6 47/81/6 43/94/6
f 43/95/4 47/86/4 48/85/4 44/96/4
f 57/97/1 58/98/1 50/99/1 49/100/1
f 49/101/2 50/102/2 52/103/2 51/104/2
f 49/101/3 51/104/3 59/105/3 57/106/3
f 51/107/4 52/108/4 60/109/4 59/110/4
f 57/97/1 53/111/1 54/112/1 58/98/1
f 53/113/5 55/114/5 56/115/5 54/116/5
f 53/117/6 57/106/6 59/105/6 55/118/6
f 55/119/4 59/110/4 60/109/4 56/120/4
f 69/121/1 70/122/1 62/123/1 61/124/1
f 61/125/2 62/126/2 64/127/2 63/128/2
f 61/125/3 63/128/3 71/129/3 69/130/3
f 63/131/4 64/132/4 72/133/4 71/134/4
f 69/121/1 65/135/1 66/136/1 70/122/1
f 65/137/5 67/138/5 68/139/5 66/140/5
f 65/141/6 69/130/6 71/129/6 67/142/6
f 67/143/4 71/134/4 72/133/4 68/144/4
f 81/145/1 82/146/1 74/147/1 73/148/1
f 73/149/2 74/150/2 76/151/2 75/152/2
f 73/149/3 75/152/3 83/153/3 81/154/3
f 75/155/4 76/156/4 84/157/4 83/158/4
f 81/145/1 77/159/1 78/160/1 82/146/1
f 77/161/5 79/162/5 80/163/5 78/164/5
f 77/165/6 81/154/6 83/153/6 79/166/6
f 79/167/4 83/158/4 84/157/4 80/168/4
