# Blender v2.91.2 OBJ File: 'NewPlayerHome_Out.blend'
# www.blender.org
mtllib RoofSupportTrunk.mtl
o TreeSupports_Cylinder.008
v 2.217304 -0.750000 3.368009
v 2.217304 5.970786 3.423236
v 2.570857 -0.750000 3.514456
v 2.570857 5.903882 3.553507
v 2.717304 -0.750000 3.868009
v 2.717304 5.742362 3.868009
v 2.570857 -0.750000 4.221562
v 2.570857 5.580842 4.182510
v 2.217304 -0.750000 4.368009
v 2.217304 5.513938 4.312781
v 1.863750 -0.750000 4.221562
v 1.863750 5.580842 4.182510
v 1.717304 -0.750000 3.868009
v 1.717304 5.742362 3.868009
v 1.863750 -0.750000 3.514456
v 1.863750 5.903882 3.553507
v 1.882642 -0.024037 -3.381991
v 1.882642 5.970786 -3.437219
v 2.236195 -0.024037 -3.528438
v 2.236195 5.903882 -3.567489
v 2.382642 -0.024037 -3.881991
v 2.382642 5.742362 -3.881991
v 2.236195 -0.024037 -4.235545
v 2.236195 5.580842 -4.196493
v 1.882642 -0.024037 -4.381991
v 1.882642 5.513938 -4.326764
v 1.529088 -0.024037 -4.235545
v 1.529088 5.580842 -4.196493
v 1.382642 -0.024037 -3.881991
v 1.382642 5.742362 -3.881991
v 1.529088 -0.024037 -3.528438
v 1.529088 5.903882 -3.567489
vt 0.401944 0.910622
vt 0.398908 0.007891
vt 0.441312 0.017687
vt 0.443459 0.910328
vt 0.595950 0.902643
vt 0.601284 0.010015
vt 0.653512 0.034335
vt 0.653562 0.902638
vt 0.157454 0.911345
vt 0.156008 0.043070
vt 0.193818 0.067613
vt 0.197363 0.911606
vt 0.250561 0.077584
vt 0.254975 0.911520
vt 0.292998 0.067142
vt 0.296543 0.911136
vt 0.849856 0.007810
vt 0.844471 0.851794
vt 0.792244 0.876114
vt 0.792244 0.007812
vt 0.304366 0.910309
vt 0.304366 0.042029
vt 0.342183 0.017973
vt 0.344330 0.910614
vt 0.992190 0.784674
vt 0.951444 0.825421
vt 0.893819 0.825421
vt 0.853073 0.784674
vt 0.853073 0.727050
vt 0.893819 0.686303
vt 0.951444 0.686303
vt 0.992190 0.727050
vt 0.548769 0.007812
vt 0.590283 0.008106
vt 0.588137 0.900747
vt 0.545733 0.910544
vt 0.661365 0.007837
vt 0.718977 0.008186
vt 0.713737 0.876473
vt 0.661365 0.900481
vt 0.009259 0.008072
vt 0.049168 0.007811
vt 0.045622 0.851805
vt 0.007813 0.876347
vt 0.106780 0.007898
vt 0.102365 0.841834
vt 0.148348 0.008282
vt 0.144803 0.852275
vt 0.784412 0.878335
vt 0.726800 0.878333
vt 0.726801 0.010031
vt 0.779028 0.034351
vt 0.451191 0.008126
vt 0.491155 0.007820
vt 0.489008 0.900461
vt 0.451191 0.876405
vt 0.972070 0.932522
vt 0.931323 0.973269
vt 0.873699 0.973269
vt 0.832952 0.932522
vt 0.832952 0.874898
vt 0.873699 0.834151
vt 0.931323 0.834151
vt 0.972070 0.874898
vn 0.0000 -0.6247 -0.7808
vn 0.0000 0.0070 -1.0000
vn 0.6283 0.0048 -0.7779
vn 0.5384 -0.6286 -0.5612
vn 0.9927 0.0013 -0.1205
vn 0.7742 -0.6330 0.0002
vn 0.7446 0.0038 0.6674
vn 0.5379 -0.6285 0.5617
vn 0.0000 0.0075 1.0000
vn 0.0000 -0.6244 0.7811
vn -0.7446 0.0038 0.6674
vn -0.5379 -0.6285 0.5617
vn -0.9927 0.0013 -0.1205
vn -0.7742 -0.6330 0.0002
vn -0.6283 0.0048 -0.7779
vn -0.5384 -0.6286 -0.5612
vn 0.0000 -0.6244 0.7810
vn 0.5385 -0.6284 0.5613
vn 0.6284 0.0053 0.7778
vn 0.0000 0.0079 0.9999
vn 0.7742 -0.6329 -0.0002
vn 0.9927 0.0015 0.1204
vn 0.5379 -0.6283 -0.5619
vn 0.7447 0.0043 -0.6674
vn 0.0000 -0.6240 -0.7814
vn 0.0000 0.0085 -0.9999
vn -0.5379 -0.6283 -0.5619
vn -0.7447 0.0043 -0.6674
vn -0.7742 -0.6329 -0.0002
vn -0.9927 0.0015 0.1204
vn -0.5385 -0.6284 0.5613
vn -0.6284 0.0053 0.7778
usemtl None
s 1
f 1/1/1 2/2/2 4/3/3 3/4/4
f 3/5/4 4/6/3 6/7/5 5/8/6
f 5/9/6 6/10/5 8/11/7 7/12/8
f 7/12/8 8/11/7 10/13/9 9/14/10
f 9/14/10 10/13/9 12/15/11 11/16/12
f 11/17/12 12/18/11 14/19/13 13/20/14
f 13/21/14 14/22/13 16/23/15 15/24/16
f 15/24/16 16/23/15 2/2/2 1/1/1
f 1/25/1 3/26/4 5/27/6 7/28/8 9/29/10 11/30/12 13/31/14 15/32/16
f 17/33/17 19/34/18 20/35/19 18/36/20
f 19/37/18 21/38/21 22/39/22 20/40/19
f 21/41/21 23/42/23 24/43/24 22/44/22
f 23/42/23 25/45/25 26/46/26 24/43/24
f 25/45/25 27/47/27 28/48/28 26/46/26
f 27/49/27 29/50/29 30/51/30 28/52/28
f 29/53/29 31/54/31 32/55/32 30/56/30
f 31/54/31 17/33/17 18/36/20 32/55/32
f 17/57/17 31/58/31 29/59/29 27/60/27 25/61/25 23/62/23 21/63/21 19/64/18
