# Blender v2.91.2 OBJ File: ''
# www.blender.org
mtllib CardboardBoxLarge.mtl
o CardboardBoxSquare_Cube
v 0.990000 1.550756 -1.000000
v 0.990000 1.560756 -0.990000
v 1.000000 1.550756 -0.990000
v 0.990000 0.000000 -0.990000
v 0.990000 0.010000 -1.000000
v 1.000000 0.010000 -0.990000
v 1.000000 1.550756 0.990000
v 0.990000 1.560756 0.990000
v 0.990000 1.550756 1.000000
v 1.000000 0.010000 0.990000
v 0.990000 0.010000 1.000000
v 0.990000 0.000000 0.990000
v -0.990000 1.550756 -1.000000
v -1.000000 1.550756 -0.990000
v -0.990000 1.560756 -0.990000
v -1.000000 0.010000 -0.990000
v -0.990000 0.010000 -1.000000
v -0.990000 0.000000 -0.990000
v -1.000000 1.550756 0.990000
v -0.990000 1.550756 1.000000
v -0.990000 1.560756 0.990000
v -0.990000 0.000000 0.990000
v -0.990000 0.010000 1.000000
v -1.000000 0.010000 0.990000
vt 0.419136 0.586851
vt 0.826385 0.586851
vt 0.826385 0.994100
vt 0.419136 0.994100
vt 0.321616 0.289503
vt 0.004711 0.289503
vt 0.004711 0.001535
vt 0.321616 0.001535
vt 0.417084 0.292412
vt 0.733989 0.292412
vt 0.733989 0.580381
vt 0.417084 0.580381
vt 0.411960 0.701718
vt 0.004711 0.701718
vt 0.004711 0.294469
vt 0.411960 0.294469
vt 0.417084 0.001535
vt 0.733989 0.001535
vt 0.733989 0.289503
vt 0.417084 0.289503
vt 0.321615 0.995552
vt 0.323672 0.997006
vt 0.321615 0.998461
vt 0.002653 0.997006
vt 0.004710 0.995552
vt 0.004710 0.998461
vt 0.736046 0.290958
vt 0.415027 0.290958
vt 0.739778 0.321612
vt 0.742687 0.321612
vt 0.741233 0.323669
vt 0.742687 0.004707
vt 0.739778 0.004707
vt 0.741233 0.002650
vt 0.004711 0.292412
vt 0.002654 0.290958
vt 0.323672 0.290958
vt 0.321616 0.292412
vt 0.417079 0.994100
vt 0.417079 0.586851
vt 0.419136 0.584794
vt 0.826385 0.584794
vt 0.411960 0.292412
vt 0.414017 0.294469
vt 0.414017 0.701718
vt 0.826385 0.996157
vt 0.419136 0.996157
vt 0.002654 0.701718
vt 0.002654 0.294469
vt 0.411960 0.703775
vt 0.004711 0.703775
vt 0.828441 0.586851
vt 0.828442 0.994100
vt 0.004710 0.707583
vt 0.321615 0.707583
vn 0.0000 -1.0000 0.0000
vn -0.8756 -0.3416 0.3416
vn -0.8756 0.3416 0.3416
vn -0.8756 0.3416 -0.3416
vn -0.8756 -0.3416 -0.3416
vn 0.3416 -0.3416 0.8756
vn 0.0000 0.0000 1.0000
vn -0.3416 -0.3416 0.8756
vn 0.3416 0.8756 -0.3416
vn -0.3416 0.8756 -0.3416
vn -0.3416 0.8756 0.3416
vn 0.3416 0.8756 0.3416
vn 0.8756 -0.3416 -0.3416
vn 0.8756 0.3416 -0.3416
vn 0.8756 0.3416 0.3416
vn 0.8756 -0.3416 0.3416
vn 0.4606 0.4606 -0.7588
vn 0.4606 -0.7588 -0.4606
vn 0.3416 -0.3416 -0.8756
vn 0.4606 0.4606 0.7588
vn 0.4606 -0.7588 0.4606
vn -0.4606 0.4606 -0.7588
vn -0.3416 -0.3416 -0.8756
vn -0.4606 -0.7588 -0.4606
vn -0.4606 0.4606 0.7588
vn -0.4606 -0.7588 0.4606
vn 0.0000 0.0000 -1.0000
usemtl Material
s 1
f 18/1/1 4/2/1 12/3/1 22/4/1
f 24/5/2 19/6/3 14/7/4 16/8/5
f 11/9/6 9/10/7 20/11/7 23/12/8
f 2/13/9 15/14/10 21/15/11 8/16/12
f 6/17/13 3/18/14 7/19/15 10/20/16
f 1/21/17 2/22/9 3/23/14
f 4/24/18 5/25/19 6/26/13
f 7/19/15 8/27/12 9/10/20
f 10/20/16 11/9/6 12/28/21
f 13/29/22 14/30/4 15/31/10
f 16/32/5 17/33/23 18/34/24
f 19/6/3 20/35/25 21/36/11
f 22/37/26 23/38/8 24/5/2
f 18/1/24 22/4/26 24/39/2 16/40/5
f 4/2/18 18/1/24 17/41/23 5/42/19
f 3/23/14 6/26/13 5/25/19 1/21/17
f 23/38/8 20/35/25 19/6/3 24/5/2
f 9/10/20 11/9/6 10/20/16 7/19/15
f 13/29/22 17/33/23 16/32/5 14/30/4
f 8/16/12 21/15/11 20/35/25 9/43/20
f 2/13/9 8/16/12 7/44/15 3/45/14
f 22/4/26 12/3/21 11/46/6 23/47/8
f 21/15/11 15/14/10 14/48/4 19/49/3
f 15/14/10 2/13/9 1/50/17 13/51/22
f 12/3/21 4/2/18 6/52/13 10/53/16
f 17/54/23 13/55/27 1/21/27 5/25/19
