# Blender v2.91.2 OBJ File: ''
# www.blender.org
mtllib pipe_connecting_super.mtl
o pipes_connecting_super_pipes_collection.002
v 0.028284 -3.000000 -0.028284
v 0.000000 -3.000000 -0.040000
v 0.000000 3.000000 -0.040000
v 0.028284 3.000000 -0.028284
v 0.040000 -3.000000 -0.000000
v 0.040000 3.000000 0.000000
v 0.028284 -3.000000 0.028284
v 0.028284 3.000000 0.028284
v 0.000000 -3.000000 0.040000
v 0.000000 3.000000 0.040000
v -0.028284 -3.000000 0.028284
v -0.028284 3.000000 0.028284
v -0.040000 -3.000000 -0.000000
v -0.040000 3.000000 0.000000
v -0.028284 -3.000000 -0.028284
v -0.028284 3.000000 -0.028284
vt 0.156126 0.046261
vt 0.162735 0.039652
vt 0.714717 0.591634
vt 0.708108 0.598243
vt 0.149517 0.052869
vt 0.701499 0.604851
vt 0.195781 0.006609
vt 0.202390 0.000000
vt 0.754372 0.551982
vt 0.747763 0.558591
vt 0.189172 0.013218
vt 0.741153 0.565199
vt 0.182563 0.019826
vt 0.734544 0.571808
vt 0.175954 0.026435
vt 0.727935 0.578417
vt 0.169344 0.033043
vt 0.721326 0.585025
vn 0.7071 0.0000 -0.7071
vn 0.0000 0.0000 -1.0000
vn 1.0000 -0.0000 0.0000
vn 0.7071 -0.0000 0.7071
vn -0.0000 -0.0000 1.0000
vn -0.7071 -0.0000 0.7071
vn -1.0000 0.0000 -0.0000
vn -0.7071 0.0000 -0.7071
usemtl None
s 1
f 1/1/1 2/2/2 3/3/2
f 3/3/2 4/4/1 1/1/1
f 5/5/3 1/1/1 4/4/1
f 4/4/1 6/6/3 5/5/3
f 7/7/4 5/8/3 6/9/3
f 6/9/3 8/10/4 7/7/4
f 9/11/5 7/7/4 8/10/4
f 8/10/4 10/12/5 9/11/5
f 11/13/6 9/11/5 10/12/5
f 10/12/5 12/14/6 11/13/6
f 13/15/7 11/13/6 12/14/6
f 12/14/6 14/16/7 13/15/7
f 15/17/8 13/15/7 14/16/7
f 14/16/7 16/18/8 15/17/8
f 2/2/2 15/17/8 16/18/8
f 16/18/8 3/3/2 2/2/2
