# Blender v2.91.2 OBJ File: ''
# www.blender.org
mtllib pipe_straight_b.mtl
o pipes_collection.002_pipes_collection.004
v -0.040359 -1.514304 -0.000000
v -0.028538 -1.514304 -0.028538
v -0.028538 1.514304 -0.028538
v -0.040359 1.514304 0.000000
v 0.000000 1.500000 -0.050000
v 0.035355 1.500000 -0.035355
v 0.035355 -1.500000 -0.035355
v 0.000000 -1.500000 -0.050000
v 0.050000 1.500000 0.000000
v 0.050000 -1.500000 -0.000000
v 0.035355 1.500000 0.035355
v 0.035355 -1.500000 0.035355
v 0.000000 1.500000 0.050000
v 0.000000 -1.500000 0.050000
v -0.035355 1.500000 0.035355
v -0.035355 -1.500000 0.035355
v -0.050000 1.500000 0.000000
v -0.050000 -1.500000 -0.000000
v -0.035355 1.500000 -0.035355
v -0.035355 -1.500000 -0.035355
v -0.044416 1.500000 0.044416
v -0.037534 1.500000 0.037534
v 0.000000 1.500000 0.053081
v 0.000000 1.500000 0.062814
v 0.000000 1.500000 -0.062814
v 0.000000 1.500000 -0.053081
v -0.037534 1.500000 -0.037534
v -0.044416 1.500000 -0.044416
v 0.062814 1.500000 0.000000
v 0.053081 1.500000 0.000000
v 0.037534 1.500000 -0.037534
v 0.044416 1.500000 -0.044416
v 0.037534 1.500000 0.037534
v 0.044416 1.500000 0.044416
v -0.044608 1.515930 0.044608
v -0.029783 1.515930 0.029783
v -0.042120 1.515930 0.000000
v -0.063086 1.515930 0.000000
v 0.044608 1.515930 0.044608
v 0.029783 1.515930 0.029783
v 0.000000 1.515930 0.042120
v 0.000000 1.515930 0.063086
v 0.000000 1.514304 -0.040359
v 0.000000 -1.514304 -0.040359
v 0.028538 -1.514304 -0.028538
v 0.028538 1.514304 -0.028538
v 0.000000 1.515930 -0.063086
v 0.000000 1.515930 -0.042120
v 0.029783 1.515930 -0.029783
v 0.044608 1.515930 -0.044608
v 0.040359 -1.514304 -0.000000
v 0.040359 1.514304 0.000000
v -0.028538 -1.514304 0.028538
v -0.028538 1.514304 0.028538
v -0.035355 1.498688 -0.035355
v -0.050000 1.498688 0.000000
v 0.050000 1.498688 0.000000
v 0.035355 1.498688 -0.035355
v -0.045424 1.514865 -0.045424
v -0.045424 1.501316 -0.045424
v -0.064239 1.501316 0.000000
v -0.064239 1.514865 0.000000
v 0.000000 1.498688 -0.050000
v -0.035355 1.498688 0.035355
v 0.000000 1.498688 0.050000
v 0.035355 1.498688 0.035355
v 0.063086 1.515930 0.000000
v 0.042120 1.515930 0.000000
v -0.062814 1.500000 0.000000
v -0.053081 1.500000 0.000000
v -0.029783 1.515930 -0.029783
v -0.044608 1.515930 -0.044608
v 0.028538 1.514304 0.028538
v 0.028538 -1.514304 0.028538
v 0.000000 -1.514304 0.040359
v 0.000000 1.514304 0.040359
v 0.000000 1.501316 -0.064239
v 0.045424 1.501316 -0.045424
v 0.064239 1.501316 0.000000
v 0.045424 1.501316 0.045424
v 0.000000 1.501316 0.064239
v -0.045424 1.501316 0.045424
v 0.045424 1.514865 -0.045424
v 0.000000 1.514865 -0.064239
v 0.000000 1.514865 0.064239
v 0.045424 1.514865 0.045424
v 0.064239 1.514865 0.000000
v -0.045424 1.514865 0.045424
v 0.000000 -1.500000 0.053081
v -0.037534 -1.500000 0.037534
v -0.044416 -1.500000 0.044416
v 0.000000 -1.500000 0.062814
v -0.037534 -1.500000 -0.037534
v 0.000000 -1.500000 -0.053081
v 0.000000 -1.500000 -0.062814
v -0.044416 -1.500000 -0.044416
v 0.037534 -1.500000 -0.037534
v 0.053081 -1.500000 -0.000000
v 0.062814 -1.500000 -0.000000
v 0.044416 -1.500000 -0.044416
v 0.037534 -1.500000 0.037534
v 0.044416 -1.500000 0.044416
v -0.042120 -1.515930 -0.000000
v -0.029783 -1.515930 0.029783
v -0.044608 -1.515930 0.044608
v -0.063086 -1.515930 -0.000000
v 0.000000 -1.515930 0.042120
v 0.029783 -1.515930 0.029783
v 0.044608 -1.515930 0.044608
v 0.000000 -1.515930 0.063086
v 0.029783 -1.515930 -0.029783
v 0.000000 -1.515930 -0.042120
v 0.000000 -1.515930 -0.063086
v 0.044608 -1.515930 -0.044608
v -0.035355 -1.498688 -0.035355
v -0.050000 -1.498688 -0.000000
v 0.050000 -1.498688 -0.000000
v 0.035355 -1.498688 -0.035355
v -0.064239 -1.501316 -0.000000
v -0.045424 -1.501316 -0.045424
v -0.045424 -1.514865 -0.045424
v -0.064239 -1.514865 -0.000000
v 0.000000 -1.498688 -0.050000
v -0.035355 -1.498688 0.035355
v 0.000000 -1.498688 0.050000
v 0.035355 -1.498688 0.035355
v 0.042120 -1.515930 -0.000000
v 0.063086 -1.515930 -0.000000
v -0.053081 -1.500000 -0.000000
v -0.062814 -1.500000 -0.000000
v -0.029783 -1.515930 -0.029783
v -0.044608 -1.515930 -0.044608
v 0.045424 -1.501316 -0.045424
v 0.000000 -1.501316 -0.064239
v 0.064239 -1.501316 -0.000000
v 0.045424 -1.501316 0.045424
v 0.000000 -1.501316 0.064239
v -0.045424 -1.501316 0.045424
v 0.045424 -1.514865 -0.045424
v 0.000000 -1.514865 -0.064239
v 0.000000 -1.514865 0.064239
v 0.045424 -1.514865 0.045424
v 0.064239 -1.514865 -0.000000
v -0.045424 -1.514865 0.045424
vt 0.027798 0.128268
vt 0.032293 0.124027
vt 0.451411 0.571485
vt 0.446761 0.575748
vt 0.467184 0.576572
vt 0.472500 0.570788
vt 0.906023 0.967143
vt 0.900969 0.972566
vt 0.477668 0.565309
vt 0.911085 0.961722
vt 0.482829 0.559844
vt 0.916157 0.956304
vt 0.442059 0.604709
vt 0.447018 0.599143
vt 0.881074 0.994491
vt 0.876121 0.999999
vt 0.451980 0.593568
vt 0.886032 0.988992
vt 0.456946 0.587985
vt 0.890995 0.983499
vt 0.461917 0.582395
vt 0.895963 0.978014
vt 0.446780 0.590392
vt 0.446718 0.592872
vt 0.439700 0.594754
vt 0.439348 0.592839
vt 0.464646 0.574385
vt 0.466340 0.575827
vt 0.461083 0.581830
vt 0.459197 0.580559
vt 0.473855 0.560975
vt 0.475629 0.561494
vt 0.473395 0.568481
vt 0.470933 0.568385
vt 0.432910 0.597942
vt 0.431801 0.596589
vt 0.444693 0.586023
vt 0.442422 0.580689
vt 0.447107 0.576301
vt 0.450108 0.580824
vt 0.430883 0.593555
vt 0.432170 0.588917
vt 0.437527 0.584803
vt 0.438352 0.589508
vt 0.455984 0.567211
vt 0.036783 0.119725
vt 0.041306 0.115512
vt 0.460627 0.562794
vt 0.461436 0.571619
vt 0.456618 0.567664
vt 0.461402 0.563231
vt 0.466674 0.566131
vt 0.045913 0.111138
vt 0.465214 0.558281
vt 0.023338 0.132611
vt 0.442091 0.579910
vt 0.478546 0.553835
vt 0.479723 0.555228
vt 0.459578 0.583786
vt 0.459648 0.584065
vt 0.453733 0.586474
vt 0.453580 0.586220
vt 0.476261 0.561686
vt 0.476536 0.561781
vt 0.474441 0.568406
vt 0.474156 0.568374
vt 0.456448 0.577027
vt 0.458869 0.580218
vt 0.451984 0.583508
vt 0.450301 0.581114
vt 0.472289 0.570606
vt 0.466939 0.576355
vt 0.446563 0.593610
vt 0.446579 0.593890
vt 0.439870 0.595674
vt 0.439820 0.595410
vt 0.480148 0.555699
vt 0.480380 0.555823
vt 0.470578 0.559842
vt 0.465837 0.558557
vt 0.470488 0.553516
vt 0.475520 0.552548
vt 0.452187 0.583846
vt 0.453216 0.585578
vt 0.448495 0.590969
vt 0.446887 0.590048
vt 0.433378 0.598693
vt 0.433299 0.598441
vt 0.470720 0.568454
vt 0.471924 0.570000
vt 0.452027 0.572155
vt 0.456161 0.576674
vt 0.432416 0.588280
vt 0.014282 0.141325
vt 0.018892 0.136871
vt 0.437295 0.584098
vt 0.449275 0.591483
vt 0.449082 0.591287
vt 0.461714 0.582182
vt 0.464303 0.574082
vt 0.470385 0.568174
vt 0.473493 0.560851
vt 0.478282 0.553582
vt 0.431603 0.596298
vt 0.439268 0.592465
vt 0.446589 0.589809
vt 0.459155 0.580726
vt 0.467058 0.566344
vt 0.461736 0.571885
vt 0.459562 0.583025
vt 0.438432 0.589824
vt 0.430870 0.593872
vt 0.475850 0.552567
vt 0.470879 0.559955
vt 0.444891 0.586406
vt 0.469790 0.553727
vt 0.050669 0.106784
vt 0.009085 0.132606
vt 0.013147 0.126720
vt 0.014979 0.127343
vt 0.010468 0.133702
vt 0.024295 0.114594
vt 0.029901 0.110898
vt 0.031083 0.112410
vt 0.025050 0.116439
vt 0.035730 0.105003
vt 0.041689 0.101263
vt 0.042703 0.102702
vt 0.036337 0.106909
vt 0.003642 0.138130
vt 0.004336 0.140061
vt 0.027290 0.127915
vt 0.022658 0.132228
vt 0.018175 0.129747
vt 0.023312 0.124647
vt 0.018054 0.136702
vt 0.013599 0.141666
vt 0.007649 0.142604
vt 0.013339 0.135307
vt 0.040965 0.114831
vt 0.036452 0.119211
vt 0.033353 0.115104
vt 0.038690 0.110355
vt 0.047316 0.095727
vt 0.049243 0.096467
vt 0.018415 0.120476
vt 0.022321 0.115394
vt 0.022540 0.115547
vt 0.018632 0.120667
vt 0.035453 0.104131
vt 0.041137 0.100527
vt 0.041306 0.100743
vt 0.035584 0.104357
vt 0.020895 0.122635
vt 0.025315 0.116789
vt 0.027776 0.119392
vt 0.023064 0.124429
vt 0.029291 0.110139
vt 0.033909 0.105490
vt 0.034096 0.105681
vt 0.029463 0.110350
vt 0.008371 0.131999
vt 0.012319 0.126383
vt 0.012529 0.126532
vt 0.008573 0.132173
vt 0.046482 0.095314
vt 0.046678 0.095483
vt 0.050913 0.105891
vt 0.045817 0.110318
vt 0.044476 0.105553
vt 0.051819 0.099700
vt 0.014045 0.125602
vt 0.019156 0.121119
vt 0.020606 0.122385
vt 0.015004 0.127216
vt 0.003238 0.137296
vt 0.003404 0.137488
vt 0.034676 0.106001
vt 0.036258 0.106998
vt 0.031744 0.123457
vt 0.028063 0.119681
vt 0.013556 0.124809
vt 0.013742 0.125006
vt 0.023943 0.113744
vt 0.024091 0.113967
vt 0.036549 0.107276
vt 0.031320 0.112710
vt 0.042898 0.103016
vt 0.049622 0.096665
vt 0.010762 0.133917
vt 0.004555 0.140444
vt 0.015326 0.127528
vt 0.024971 0.116540
vt 0.038478 0.110047
vt 0.033148 0.114845
vt 0.023182 0.115773
vt 0.013055 0.135169
vt 0.007176 0.142568
vt 0.051687 0.099280
vt 0.044352 0.105237
vt 0.017873 0.129530
vn 0.8970 -0.4421 0.0000
vn 0.6343 -0.4420 0.6343
vn 0.6343 0.4420 0.6343
vn 0.8970 0.4421 0.0000
vn -0.0000 0.0000 -1.0000
vn 0.7071 0.0000 -0.7071
vn 1.0000 -0.0000 -0.0000
vn 0.7071 -0.0000 0.7071
vn 0.0000 -0.0000 1.0000
vn -0.7071 -0.0000 0.7071
vn -1.0000 0.0000 0.0000
vn -0.7071 0.0000 -0.7071
vn -0.3094 -0.8992 0.3094
vn -0.1068 -0.9885 0.1069
vn 0.0000 -0.9885 0.1511
vn -0.0000 -0.8992 0.4376
vn 0.0000 -0.8992 -0.4376
vn -0.0000 -0.9885 -0.1511
vn -0.1068 -0.9885 -0.1069
vn -0.3094 -0.8992 -0.3094
vn 0.4376 -0.8992 -0.0000
vn 0.1511 -0.9885 -0.0000
vn 0.1068 -0.9885 -0.1069
vn 0.3094 -0.8992 -0.3094
vn 0.1068 -0.9885 0.1069
vn 0.3094 -0.8992 0.3094
vn -0.3093 0.8992 0.3093
vn 0.1984 0.9598 -0.1984
vn 0.2806 0.9598 0.0000
vn -0.4377 0.8991 0.0000
vn 0.3093 0.8992 0.3094
vn -0.1984 0.9598 -0.1984
vn 0.0000 0.9598 -0.2806
vn -0.0000 0.8992 0.4376
vn 0.0000 0.4421 0.8970
vn 0.0000 -0.4421 0.8970
vn -0.6343 -0.4420 0.6343
vn -0.6343 0.4420 0.6343
vn 0.0000 0.8992 -0.4376
vn 0.0000 0.9597 0.2809
vn -0.1984 0.9598 0.1984
vn 0.3093 0.8992 -0.3093
vn -0.8970 -0.4421 -0.0000
vn -0.8970 0.4421 -0.0000
vn 0.6343 -0.4420 -0.6343
vn 0.6343 0.4420 -0.6343
vn -0.6572 0.3687 -0.6574
vn -0.6572 -0.3690 -0.6572
vn -0.9295 -0.3689 0.0000
vn -0.9295 0.3689 0.0000
vn 0.4377 0.8991 -0.0000
vn -0.2806 0.9598 -0.0000
vn -0.4376 -0.8992 0.0000
vn -0.1511 -0.9885 0.0000
vn 0.1984 0.9598 0.1984
vn -0.3093 0.8992 -0.3094
vn -0.6343 0.4420 -0.6343
vn -0.6343 -0.4420 -0.6343
vn -0.0000 -0.4421 -0.8970
vn -0.0000 0.4421 -0.8970
vn 0.0000 -0.3689 -0.9295
vn 0.6572 -0.3690 -0.6572
vn 0.9295 -0.3689 -0.0000
vn 0.6572 -0.3690 0.6572
vn -0.0000 -0.3689 0.9295
vn -0.6572 -0.3690 0.6572
vn 0.6572 0.3690 -0.6572
vn -0.0000 0.3689 -0.9295
vn -0.0000 -0.9200 -0.3918
vn 0.2770 -0.9201 -0.2770
vn 0.3918 -0.9201 -0.0000
vn 0.2770 -0.9201 0.2770
vn 0.0000 -0.9200 0.3918
vn -0.2770 -0.9201 0.2770
vn -0.3918 -0.9201 0.0000
vn -0.2770 -0.9201 -0.2770
vn 0.0000 0.3689 0.9295
vn 0.6572 0.3690 0.6572
vn 0.9295 0.3689 -0.0000
vn -0.6572 0.3690 0.6572
vn 0.0000 0.9885 0.1511
vn -0.1068 0.9885 0.1068
vn -0.3094 0.8992 0.3094
vn -0.1068 0.9885 -0.1069
vn -0.0000 0.9885 -0.1511
vn -0.3094 0.8992 -0.3093
vn 0.1068 0.9885 -0.1068
vn 0.1511 0.9885 -0.0000
vn 0.4376 0.8992 -0.0000
vn 0.3094 0.8992 -0.3094
vn 0.1068 0.9885 0.1069
vn 0.3094 0.8992 0.3093
vn 0.2806 -0.9598 0.0000
vn 0.1984 -0.9598 -0.1984
vn -0.3093 -0.8993 0.3093
vn -0.4377 -0.8991 0.0000
vn -0.0000 -0.9597 -0.2809
vn -0.1984 -0.9598 -0.1984
vn 0.3093 -0.8992 0.3093
vn -0.1984 -0.9598 0.1984
vn 0.0000 -0.9597 0.2809
vn 0.3093 -0.8993 -0.3093
vn -0.6572 0.3690 -0.6572
vn -0.2809 -0.9597 0.0000
vn 0.4377 -0.8991 -0.0000
vn -0.1511 0.9885 0.0000
vn -0.4376 0.8992 0.0000
vn 0.1984 -0.9598 0.1984
vn -0.3093 -0.8992 -0.3093
vn 0.6572 -0.3691 -0.6572
vn -0.0000 0.9200 -0.3918
vn 0.2770 0.9201 -0.2770
vn 0.3918 0.9201 -0.0000
vn 0.2770 0.9201 0.2770
vn 0.0000 0.9200 0.3918
vn -0.2770 0.9201 0.2770
vn -0.3918 0.9201 0.0000
vn -0.2770 0.9201 -0.2770
vn -0.6572 -0.3691 0.6572
usemtl None
s 1
f 1/1/1 2/2/2 3/3/3
f 3/3/3 4/4/4 1/1/1
f 5/5/5 6/6/6 7/7/6
f 7/7/6 8/8/5 5/5/5
f 6/6/6 9/9/7 10/10/7
f 10/10/7 7/7/6 6/6/6
f 9/9/7 11/11/8 12/12/8
f 12/12/8 10/10/7 9/9/7
f 11/13/8 13/14/9 14/15/9
f 14/15/9 12/16/8 11/13/8
f 13/14/9 15/17/10 16/18/10
f 16/18/10 14/15/9 13/14/9
f 15/17/10 17/19/11 18/20/11
f 18/20/11 16/18/10 15/17/10
f 17/19/11 19/21/12 20/22/12
f 20/22/12 18/20/11 17/19/11
f 21/23/13 22/24/14 23/25/15
f 23/25/15 24/26/16 21/23/13
f 25/27/17 26/28/18 27/29/19
f 27/29/19 28/30/20 25/27/17
f 29/31/21 30/32/22 31/33/23
f 31/33/23 32/34/24 29/31/21
f 24/26/16 23/25/15 33/35/25
f 33/35/25 34/36/26 24/26/16
f 35/37/27 36/38/28 37/39/29
f 37/39/29 38/40/30 35/37/27
f 39/41/31 40/42/32 41/43/33
f 41/43/33 42/44/34 39/41/31
f 43/45/35 44/46/36 45/47/37
f 45/47/37 46/48/38 43/45/35
f 42/44/34 41/43/33 36/38/28
f 36/38/28 35/37/27 42/44/34
f 47/49/39 48/50/40 49/51/41
f 49/51/41 50/52/42 47/49/39
f 45/47/37 51/53/43 52/54/44
f 52/54/44 46/48/38 45/47/37
f 53/55/45 1/1/1 4/4/4
f 4/4/4 54/56/46 53/55/45
f 34/57/26 33/58/25 30/32/22
f 30/32/22 29/31/21 34/57/26
f 55/59/8 19/60/8 17/61/7
f 17/61/7 56/62/7 55/59/8
f 57/63/11 9/64/11 6/65/10
f 6/65/10 58/66/10 57/63/11
f 59/67/47 60/68/48 61/69/49
f 61/69/49 62/70/50 59/67/47
f 58/71/10 6/6/10 5/5/9
f 5/5/9 63/72/9 58/71/10
f 64/73/6 15/74/6 13/75/5
f 13/75/5 65/76/5 64/73/6
f 66/77/12 11/78/12 9/64/11
f 9/64/11 57/63/11 66/77/12
f 67/79/51 68/80/52 40/81/32
f 40/81/32 39/82/31 67/79/51
f 69/83/53 70/84/54 22/85/14
f 22/85/14 21/86/13 69/83/53
f 65/76/5 13/75/5 11/87/12
f 11/87/12 66/88/12 65/76/5
f 32/89/24 31/90/23 26/28/18
f 26/28/18 25/27/17 32/89/24
f 38/40/30 37/39/29 71/91/55
f 71/91/55 72/92/56 38/40/30
f 2/2/2 44/46/36 43/45/35
f 43/45/35 3/3/3 2/2/2
f 73/93/57 74/94/58 75/95/59
f 75/95/59 76/96/60 73/93/57
f 56/62/7 17/61/7 15/97/6
f 15/97/6 64/98/6 56/62/7
f 75/95/59 53/55/45 54/56/46
f 54/56/46 76/96/60 75/95/59
f 50/52/42 49/51/41 68/80/52
f 68/80/52 67/79/51 50/52/42
f 63/72/9 5/5/9 19/21/8
f 19/21/8 55/99/8 63/72/9
f 25/27/17 77/100/61 78/101/62
f 78/101/62 32/89/24 25/27/17
f 32/34/24 78/101/62 79/102/63
f 79/102/63 29/31/21 32/34/24
f 29/31/21 79/102/63 80/103/64
f 80/103/64 34/57/26 29/31/21
f 34/36/26 80/104/64 81/105/65
f 81/105/65 24/26/16 34/36/26
f 24/26/16 81/105/65 82/106/66
f 82/106/66 21/23/13 24/26/16
f 21/86/13 82/106/66 61/69/49
f 61/69/49 69/83/53 21/86/13
f 69/83/53 61/69/49 60/68/48
f 60/68/48 28/107/20 69/83/53
f 28/30/20 60/68/48 77/100/61
f 77/100/61 25/27/17 28/30/20
f 83/108/67 78/101/62 77/100/61
f 77/100/61 84/109/68 83/108/67
f 63/72/69 26/28/18 31/90/23
f 31/90/23 58/71/70 63/72/69
f 58/66/70 31/33/23 30/32/22
f 30/32/22 57/63/71 58/66/70
f 57/63/71 30/32/22 33/58/25
f 33/58/25 66/77/72 57/63/71
f 66/88/72 33/35/25 23/25/15
f 23/25/15 65/76/73 66/88/72
f 65/76/73 23/25/15 22/24/14
f 22/24/14 64/73/74 65/76/73
f 64/98/74 22/85/14 70/84/54
f 70/84/54 56/62/75 64/98/74
f 56/62/75 70/84/54 27/110/19
f 27/110/19 55/59/76 56/62/75
f 55/99/76 27/29/19 26/28/18
f 26/28/18 63/72/69 55/99/76
f 28/107/20 27/110/19 70/84/54
f 70/84/54 69/83/53 28/107/20
f 85/111/77 81/105/65 80/104/64
f 80/104/64 86/112/78 85/111/77
f 86/113/78 80/103/64 79/102/63
f 79/102/63 87/114/79 86/113/78
f 88/115/80 82/106/66 81/105/65
f 81/105/65 85/111/77 88/115/80
f 84/109/68 77/100/61 60/68/48
f 60/68/48 59/67/47 84/109/68
f 87/114/79 79/102/63 78/101/62
f 78/101/62 83/108/67 87/114/79
f 62/70/50 61/69/49 82/106/66
f 82/106/66 88/115/80 62/70/50
f 71/91/55 3/3/3 43/45/35
f 43/45/35 48/50/40 71/91/55
f 37/39/29 4/4/4 3/3/3
f 3/3/3 71/91/55 37/39/29
f 36/38/28 54/56/46 4/4/4
f 4/4/4 37/39/29 36/38/28
f 41/43/33 76/96/60 54/56/46
f 54/56/46 36/38/28 41/43/33
f 40/42/32 73/93/57 76/96/60
f 76/96/60 41/43/33 40/42/32
f 68/80/52 52/54/44 73/116/57
f 73/116/57 40/81/32 68/80/52
f 49/51/41 46/48/38 52/54/44
f 52/54/44 68/80/52 49/51/41
f 48/50/40 43/45/35 46/48/38
f 46/48/38 49/51/41 48/50/40
f 51/53/43 74/117/58 73/116/57
f 73/116/57 52/54/44 51/53/43
f 59/67/47 72/92/56 47/49/39
f 47/49/39 84/109/68 59/67/47
f 62/70/50 38/40/30 72/92/56
f 72/92/56 59/67/47 62/70/50
f 88/115/80 35/37/27 38/40/30
f 38/40/30 62/70/50 88/115/80
f 85/111/77 42/44/34 35/37/27
f 35/37/27 88/115/80 85/111/77
f 86/112/78 39/41/31 42/44/34
f 42/44/34 85/111/77 86/112/78
f 87/114/79 67/79/51 39/82/31
f 39/82/31 86/113/78 87/114/79
f 83/108/67 50/52/42 67/79/51
f 67/79/51 87/114/79 83/108/67
f 84/109/68 47/49/39 50/52/42
f 50/52/42 83/108/67 84/109/68
f 72/92/56 71/91/55 48/50/40
f 48/50/40 47/49/39 72/92/56
f 89/118/81 90/119/82 91/120/83
f 91/120/83 92/121/34 89/118/81
f 93/122/84 94/123/85 95/124/39
f 95/124/39 96/125/86 93/122/84
f 97/126/87 98/127/88 99/128/89
f 99/128/89 100/129/90 97/126/87
f 101/130/91 89/118/81 92/121/34
f 92/121/34 102/131/92 101/130/91
f 103/132/93 104/133/94 105/134/95
f 105/134/95 106/135/96 103/132/93
f 107/136/97 108/137/98 109/138/99
f 109/138/99 110/139/16 107/136/97
f 104/133/94 107/136/97 110/139/16
f 110/139/16 105/134/95 104/133/94
f 111/140/100 112/141/101 113/142/17
f 113/142/17 114/143/102 111/140/100
f 98/127/88 101/144/91 102/145/92
f 102/145/92 99/128/89 98/127/88
f 18/146/7 20/147/8 115/148/8
f 115/148/8 116/149/7 18/146/7
f 7/150/10 10/151/11 117/152/11
f 117/152/11 118/153/10 7/150/10
f 119/154/50 120/155/103 121/156/48
f 121/156/48 122/157/49 119/154/50
f 8/158/9 7/159/10 118/160/10
f 118/160/10 123/161/9 8/158/9
f 14/162/5 16/163/6 124/164/6
f 124/164/6 125/165/5 14/162/5
f 10/151/11 12/166/12 126/167/12
f 126/167/12 117/152/11 10/151/11
f 108/168/98 127/169/104 128/170/105
f 128/170/105 109/171/99 108/168/98
f 90/172/82 129/173/106 130/174/107
f 130/174/107 91/175/83 90/172/82
f 12/176/12 14/162/5 125/165/5
f 125/165/5 126/177/12 12/176/12
f 94/123/85 97/178/87 100/179/90
f 100/179/90 95/124/39 94/123/85
f 131/180/108 103/132/93 106/135/96
f 106/135/96 132/181/109 131/180/108
f 16/182/6 18/146/7 116/149/7
f 116/149/7 124/183/6 16/182/6
f 127/169/104 111/140/100 114/143/102
f 114/143/102 128/170/105 127/169/104
f 20/184/8 8/158/9 123/161/9
f 123/161/9 115/185/8 20/184/8
f 133/186/67 134/187/68 95/124/39
f 95/124/39 100/179/90 133/186/67
f 135/188/79 133/186/67 100/129/90
f 100/129/90 99/128/89 135/188/79
f 136/189/78 135/188/79 99/128/89
f 99/128/89 102/145/92 136/189/78
f 137/190/77 136/191/78 102/131/92
f 102/131/92 92/121/34 137/190/77
f 138/192/80 137/190/77 92/121/34
f 92/121/34 91/120/83 138/192/80
f 119/154/50 138/192/80 91/175/83
f 91/175/83 130/174/107 119/154/50
f 120/155/103 119/154/50 130/174/107
f 130/174/107 96/193/86 120/155/103
f 134/187/68 120/155/103 96/125/86
f 96/125/86 95/124/39 134/187/68
f 134/187/68 133/186/67 139/194/110
f 139/194/110 140/195/61 134/187/68
f 97/178/87 94/123/85 123/161/111
f 123/161/111 118/160/112 97/178/87
f 98/127/88 97/126/87 118/153/112
f 118/153/112 117/152/113 98/127/88
f 101/144/91 98/127/88 117/152/113
f 117/152/113 126/167/114 101/144/91
f 89/118/81 101/130/91 126/177/114
f 126/177/114 125/165/115 89/118/81
f 90/119/82 89/118/81 125/165/115
f 125/165/115 124/164/116 90/119/82
f 129/173/106 90/172/82 124/183/116
f 124/183/116 116/149/117 129/173/106
f 93/196/84 129/173/106 116/149/117
f 116/149/117 115/148/118 93/196/84
f 94/123/85 93/122/84 115/185/118
f 115/185/118 123/161/111 94/123/85
f 129/173/106 93/196/84 96/193/86
f 96/193/86 130/174/107 129/173/106
f 136/191/78 137/190/77 141/197/65
f 141/197/65 142/198/64 136/191/78
f 135/188/79 136/189/78 142/199/64
f 142/199/64 143/200/63 135/188/79
f 137/190/77 138/192/80 144/201/119
f 144/201/119 141/197/65 137/190/77
f 120/155/103 134/187/68 140/195/61
f 140/195/61 121/156/48 120/155/103
f 133/186/67 135/188/79 143/200/63
f 143/200/63 139/194/110 133/186/67
f 138/192/80 119/154/50 122/157/49
f 122/157/49 144/201/119 138/192/80
f 44/46/36 2/2/2 131/180/108
f 131/180/108 112/141/101 44/46/36
f 2/2/2 1/1/1 103/132/93
f 103/132/93 131/180/108 2/2/2
f 1/1/1 53/55/45 104/133/94
f 104/133/94 103/132/93 1/1/1
f 53/55/45 75/95/59 107/136/97
f 107/136/97 104/133/94 53/55/45
f 75/95/59 74/94/58 108/137/98
f 108/137/98 107/136/97 75/95/59
f 74/117/58 51/53/43 127/169/104
f 127/169/104 108/168/98 74/117/58
f 51/53/43 45/47/37 111/140/100
f 111/140/100 127/169/104 51/53/43
f 45/47/37 44/46/36 112/141/101
f 112/141/101 111/140/100 45/47/37
f 113/142/17 132/181/109 121/156/48
f 121/156/48 140/195/61 113/142/17
f 132/181/109 106/135/96 122/157/49
f 122/157/49 121/156/48 132/181/109
f 106/135/96 105/134/95 144/201/119
f 144/201/119 122/157/49 106/135/96
f 105/134/95 110/139/16 141/197/65
f 141/197/65 144/201/119 105/134/95
f 110/139/16 109/138/99 142/198/64
f 142/198/64 141/197/65 110/139/16
f 109/171/99 128/170/105 143/200/63
f 143/200/63 142/199/64 109/171/99
f 128/170/105 114/143/102 139/194/110
f 139/194/110 143/200/63 128/170/105
f 114/143/102 113/142/17 140/195/61
f 140/195/61 139/194/110 114/143/102
f 112/141/101 131/180/108 132/181/109
f 132/181/109 113/142/17 112/141/101
f 19/21/12 5/5/5 8/8/5
f 8/8/5 20/22/12 19/21/12
