# Blender v2.90.1 OBJ File: 'BasementPawnShop_Export.blend'
# www.blender.org
mtllib SupportBeamLong.mtl
o SupportBeamsVertical.001_Cube.126
v 5.115000 -0.500000 -10.125625
v 5.115000 -0.500000 -9.875626
v 5.115000 9.500000 -10.125626
v 5.115000 9.500000 -9.875626
v 5.065000 9.500000 -9.905624
v 5.115000 9.500000 -9.905624
v 5.115000 9.500000 -10.095625
v 5.115000 -0.500000 -10.095625
v 5.115000 -0.500000 -9.905624
v 5.065000 9.500000 -10.095625
v 5.065000 -0.500000 -9.905624
v 5.065000 -0.500000 -10.095625
v 5.085000 9.500000 -10.125626
v 5.085000 9.500000 -9.875626
v 5.085000 -0.500000 -10.125625
v 5.085000 -0.500000 -9.875626
v 5.085000 9.500000 -10.105625
v 5.085000 9.500000 -9.895626
v 5.085000 -0.500000 -10.105625
v 5.085000 -0.500000 -9.895624
v 4.885000 -0.500000 -10.125625
v 4.885000 -0.500000 -9.875626
v 4.885000 9.500000 -10.125626
v 4.885000 9.500000 -9.875626
v 4.935000 9.500000 -9.905624
v 4.885000 9.500000 -9.905624
v 4.885000 9.500000 -10.095625
v 4.885000 -0.500000 -10.095625
v 4.885000 -0.500000 -9.905624
v 4.935000 9.500000 -10.095625
v 4.935000 -0.500000 -9.905624
v 4.935000 -0.500000 -10.095625
v 4.915000 9.500000 -10.125626
v 4.915000 9.500000 -9.875626
v 4.915000 -0.500000 -10.125625
v 4.915000 -0.500000 -9.875626
v 4.915000 9.500000 -10.105625
v 4.915000 9.500000 -9.895626
v 4.915000 -0.500000 -10.105625
v 4.915000 -0.500000 -9.895624
v 5.000000 9.500000 -10.105625
v 5.000000 -0.500000 -10.105625
vt 0.001500 0.711151
vt 0.961355 0.711151
vt 0.961355 0.749854
vt 0.001500 0.749854
vt 0.961416 0.818331
vt 0.001500 0.818334
vt 0.001500 0.795111
vt 0.961416 0.795108
vt 0.001499 0.851084
vt 0.961366 0.851081
vt 0.961366 0.874303
vt 0.001499 0.874306
vt 0.961327 0.001495
vt 0.961327 0.148563
vt 0.001498 0.148566
vt 0.001498 0.001498
vt 0.001500 0.669177
vt 0.961294 0.669178
vt 0.961294 0.707878
vt 0.001500 0.707878
vt 0.961366 0.902293
vt 0.001499 0.902293
vt 0.001499 0.879071
vt 0.961366 0.879071
vt 0.961416 0.958265
vt 0.001500 0.958264
vt 0.001500 0.935041
vt 0.961416 0.935041
vt 0.001497 0.507077
vt 0.001497 0.441285
vt 0.961306 0.441286
vt 0.961306 0.507078
vt 0.964415 0.961573
vt 0.964415 0.001500
vt 0.979900 0.001500
vt 0.979900 0.961573
vt 0.998374 0.001500
vt 0.998375 0.961264
vt 0.982895 0.961264
vt 0.982895 0.001500
vt 0.001499 0.665894
vt 0.001499 0.627188
vt 0.961419 0.627189
vt 0.961419 0.665894
vt 0.001500 0.623664
vt 0.001500 0.600443
vt 0.961313 0.600442
vt 0.961313 0.623663
vt 0.961211 0.823099
vt 0.961211 0.846318
vt 0.001500 0.846318
vt 0.001500 0.823100
vt 0.001503 0.153425
vt 0.961337 0.153425
vt 0.961337 0.300493
vt 0.001503 0.300494
vt 0.001500 0.791833
vt 0.001500 0.753130
vt 0.961355 0.753130
vt 0.961355 0.791833
vt 0.961313 0.577221
vt 0.001500 0.577221
vt 0.961366 0.907059
vt 0.961366 0.930281
vt 0.001500 0.930281
vt 0.001500 0.907058
vt 0.961306 0.572870
vt 0.001497 0.572869
vt 0.961263 0.963028
vt 0.961263 0.978508
vt 0.001500 0.978511
vt 0.001500 0.963031
vt 0.001499 0.998500
vt 0.001499 0.983020
vt 0.961263 0.983017
vt 0.961263 0.998497
vt 0.961328 0.436934
vt 0.001502 0.436933
vt 0.001502 0.305347
vt 0.961328 0.305348
vn 0.0000 0.0000 1.0000
vn 1.0000 0.0000 0.0000
vn 0.0000 0.0000 -1.0000
vn -1.0000 -0.0000 0.0000
usemtl MetalBeam
s 1
f 8/1/1 7/2/1 10/3/1 12/4/1
f 7/5/2 8/6/2 1/7/2 3/8/2
f 9/9/2 6/10/2 4/11/2 2/12/2
f 10/13/2 5/14/2 11/15/2 12/16/2
f 6/17/3 9/18/3 11/19/3 5/20/3
f 15/21/3 13/22/3 3/23/3 1/24/3
f 14/25/1 16/26/1 2/27/1 4/28/1
f 41/29/3 17/30/3 19/31/3 42/32/3
f 13/33/4 15/34/4 19/35/4 17/36/4
f 16/37/4 14/38/4 18/39/4 20/40/4
f 28/41/1 32/42/1 30/43/1 27/44/1
f 27/45/4 23/46/4 21/47/4 28/48/4
f 29/49/4 22/50/4 24/51/4 26/52/4
f 30/53/4 32/54/4 31/55/4 25/56/4
f 26/57/3 25/58/3 31/59/3 29/60/3
f 35/61/3 21/47/3 23/46/3 33/62/3
f 34/63/1 24/64/1 22/65/1 36/66/1
f 41/29/3 42/32/3 39/67/3 37/68/3
f 33/69/2 37/70/2 39/71/2 35/72/2
f 36/73/2 40/74/2 38/75/2 34/76/2
f 38/77/1 40/78/1 20/79/1 18/80/1
