# Blender v2.91.2 OBJ File: ''
# www.blender.org
mtllib Woodplank.mtl
o Plank_Cube
v 1.000000 0.150000 -8.000000
v 1.000000 0.050000 -8.000000
v 1.000000 0.150000 8.000000
v 1.000000 0.050000 8.000000
v -1.000000 0.150000 -8.000000
v -1.000000 0.050000 -8.000000
v -1.000000 0.150000 8.000000
v -1.000000 0.050000 8.000000
v -0.908281 0.050000 5.742282
v 1.000000 0.150000 5.794194
v -0.908281 0.150000 5.742282
v 1.000000 0.050000 5.794194
v -1.000000 0.150000 5.388698
v 1.000000 0.050000 5.388698
v -1.000000 0.050000 5.388698
v 1.000000 0.150000 5.388698
v -1.000000 0.050000 5.915513
v 1.000000 0.150000 5.915513
v -1.000000 0.150000 5.915513
v 1.000000 0.050000 5.915513
v -1.000000 0.150000 -5.263413
v 0.926106 0.050000 -5.273370
v -1.000000 0.050000 -5.263413
v 0.926106 0.150000 -5.273370
v -1.000000 0.150000 -5.396801
v 1.000000 0.050000 -5.396801
v -1.000000 0.050000 -5.396801
v 1.000000 0.150000 -5.396801
v -1.000000 0.050000 -5.008333
v 1.000000 0.150000 -5.008333
v -1.000000 0.150000 -5.008333
v 1.000000 0.050000 -5.008333
v -0.637607 0.050000 -8.000000
v -0.639111 0.150000 7.938936
v -0.639111 0.050000 7.938936
v -0.637607 0.150000 -8.000000
v -0.562507 0.050000 5.751688
v -0.562507 0.150000 5.751688
v -0.637607 0.150000 5.388698
v -0.637607 0.050000 5.388698
v -0.637607 0.050000 5.915513
v -0.637607 0.150000 5.915513
v -0.650996 0.050000 -5.265217
v -0.650996 0.150000 -5.265217
v -0.637607 0.150000 -5.396801
v -0.637607 0.050000 -5.396801
v -0.637607 0.050000 -5.008333
v -0.637607 0.150000 -5.008333
v -0.531603 0.050000 8.000000
v -0.531603 0.150000 -8.000000
v -0.461365 0.150000 5.754440
v -0.531603 0.150000 5.388698
v -0.531603 0.150000 5.915513
v -0.548909 0.150000 -5.265745
v -0.531603 0.150000 -5.396801
v -0.531603 0.150000 -5.008333
v -0.531603 0.050000 -8.000000
v -0.531603 0.150000 8.000000
v -0.461365 0.050000 5.754440
v -0.531603 0.050000 5.388698
v -0.531603 0.050000 5.915513
v -0.548909 0.050000 -5.265745
v -0.531603 0.050000 -5.396801
v -0.531603 0.050000 -5.008333
v 0.737440 0.050000 8.000000
v 0.737440 0.150000 -8.000000
v 0.749480 0.150000 5.787379
v 0.737440 0.150000 5.388698
v 0.737440 0.150000 5.915513
v 0.673246 0.150000 -5.272063
v 0.737440 0.150000 -5.396801
v 0.737440 0.150000 -5.008333
v 0.737440 0.050000 -8.000000
v 0.737440 0.150000 8.000000
v 0.749480 0.050000 5.787379
v 0.737440 0.050000 5.388698
v 0.737440 0.050000 5.915513
v 0.673246 0.050000 -5.272063
v 0.737440 0.050000 -5.396801
v 0.737440 0.050000 -5.008333
v 0.678432 0.050000 -7.962014
v 0.693498 0.150000 8.000000
v 0.707554 0.050000 5.786238
v 0.693498 0.050000 5.388698
v 0.693498 0.050000 5.915513
v 0.630928 0.050000 -5.271844
v 0.693498 0.050000 -5.396801
v 0.693498 0.050000 -5.008333
v 0.693498 0.050000 8.000000
v 0.678432 0.150000 -7.962014
v 0.707554 0.150000 5.786238
v 0.693498 0.150000 5.388698
v 0.693498 0.150000 5.915513
v 0.630928 0.150000 -5.271844
v 0.693498 0.150000 -5.396801
v 0.693498 0.150000 -5.008333
v 0.619582 0.050000 -8.000000
v 0.619582 0.150000 8.000000
v 0.637028 0.050000 5.784320
v 0.619582 0.050000 5.388698
v 0.619582 0.050000 5.915513
v 0.559743 0.050000 -5.271476
v 0.619582 0.050000 -5.396801
v 0.619582 0.050000 -5.008333
v 0.619582 0.050000 8.000000
v 0.619582 0.150000 -8.000000
v 0.637028 0.150000 5.784320
v 0.619582 0.150000 5.388698
v 0.619582 0.150000 5.915513
v 0.559743 0.150000 -5.271476
v 0.619582 0.150000 -5.396801
v 0.619582 0.150000 -5.008333
vt 0.030301 0.131629
vt 0.007725 0.131629
vt 0.007725 0.001775
vt 0.030207 0.005579
vt 0.269140 0.103658
vt 0.275370 0.103658
vt 0.275370 0.125893
vt 0.269140 0.125893
vt 0.001496 0.836418
vt 0.007725 0.836418
vt 0.007725 0.998505
vt 0.001496 0.998505
vt 0.151675 0.131629
vt 0.135318 0.131629
vt 0.135318 0.001775
vt 0.151675 0.001775
vt 0.269140 0.130854
vt 0.262911 0.130854
vt 0.262911 0.001495
vt 0.269140 0.001495
vt 0.294631 0.001504
vt 0.294631 0.007733
vt 0.278376 0.007733
vt 0.278376 0.001504
vt 0.269140 0.163546
vt 0.262911 0.163546
vt 0.262911 0.138382
vt 0.269140 0.138382
vt 0.151675 0.164448
vt 0.135318 0.164448
vt 0.135318 0.139187
vt 0.150925 0.139612
vt 0.001495 0.132063
vt 0.007725 0.132063
vt 0.007725 0.143030
vt 0.001495 0.143030
vt 0.030301 0.164448
vt 0.007725 0.164448
vt 0.013439 0.142421
vt 0.034979 0.141835
vt 0.030301 0.812137
vt 0.007725 0.812137
vt 0.151675 0.812137
vt 0.135318 0.812137
vt 0.269140 0.808760
vt 0.262911 0.808760
vt 0.007725 0.164865
vt 0.001496 0.164865
vt 0.001495 0.002274
vt 0.007725 0.002274
vt 0.269140 0.832867
vt 0.262911 0.832867
vt 0.262911 0.824805
vt 0.269140 0.824805
vt 0.151675 0.836337
vt 0.135318 0.836337
vt 0.139922 0.828648
vt 0.155674 0.828566
vt 0.030301 0.836337
vt 0.007725 0.836337
vt 0.007725 0.828027
vt 0.029467 0.828140
vt 0.001496 0.812230
vt 0.007725 0.812230
vt 0.007725 0.828113
vt 0.001496 0.828113
vt 0.030301 0.998505
vt 0.151675 0.998505
vt 0.135318 0.998505
vt 0.269140 0.994415
vt 0.262911 0.994415
vt 0.035826 0.828173
vt 0.036904 0.812137
vt 0.259910 0.828027
vt 0.238168 0.828140
vt 0.237334 0.812137
vt 0.259910 0.812137
vt 0.259910 0.998505
vt 0.237334 0.998505
vt 0.237334 0.836337
vt 0.259910 0.836337
vt 0.036904 0.998505
vt 0.036904 0.836337
vt 0.041280 0.141663
vt 0.036904 0.131629
vt 0.254196 0.142421
vt 0.232656 0.141835
vt 0.237334 0.131629
vt 0.259909 0.131629
vt 0.237334 0.164448
vt 0.259909 0.164448
vt 0.036904 0.164448
vt 0.402193 0.001504
vt 0.402193 0.007733
vt 0.379758 0.007733
vt 0.379758 0.001504
vt 0.237428 0.005579
vt 0.259909 0.001775
vt 0.269140 0.096759
vt 0.275370 0.096759
vt 0.036904 0.001775
vt 0.108618 0.131629
vt 0.108618 0.001775
vt 0.269140 0.025157
vt 0.275370 0.025157
vt 0.108618 0.164448
vt 0.109705 0.139802
vt 0.108618 0.812137
vt 0.108618 0.836337
vt 0.104890 0.828530
vt 0.108618 0.998505
vt 0.231809 0.828173
vt 0.230731 0.812137
vt 0.230731 0.998505
vt 0.230731 0.836337
vt 0.226355 0.141663
vt 0.230730 0.131629
vt 0.230730 0.164448
vt 0.373195 0.007733
vt 0.373195 0.001504
vt 0.230730 0.001775
vt 0.127713 0.828648
vt 0.111961 0.828566
vt 0.115960 0.812137
vt 0.132316 0.812137
vt 0.132317 0.998505
vt 0.115960 0.998505
vt 0.115960 0.836337
vt 0.132316 0.836337
vt 0.132316 0.139187
vt 0.116710 0.139612
vt 0.115960 0.131629
vt 0.132316 0.131629
vt 0.115960 0.164448
vt 0.132316 0.164448
vt 0.275370 0.001495
vt 0.275370 0.017826
vt 0.269140 0.017826
vt 0.115960 0.001775
vt 0.132316 0.001775
vt 0.158310 0.828552
vt 0.154412 0.812137
vt 0.155351 0.996138
vt 0.154412 0.836337
vt 0.153536 0.139683
vt 0.154412 0.131629
vt 0.154412 0.164448
vt 0.298021 0.001504
vt 0.298021 0.007733
vt 0.154412 0.001775
vt 0.159017 0.131629
vt 0.159017 0.001775
vt 0.301927 0.001504
vt 0.301927 0.007733
vt 0.159017 0.164448
vt 0.157930 0.139802
vt 0.159017 0.812137
vt 0.159017 0.836337
vt 0.162744 0.828530
vt 0.159017 0.998505
vt 0.109325 0.828552
vt 0.113223 0.812137
vt 0.112284 0.996138
vt 0.113223 0.836337
vt 0.114098 0.139683
vt 0.113223 0.131629
vt 0.113223 0.164448
vt 0.275370 0.020559
vt 0.269140 0.020559
vt 0.113223 0.001775
vn 0.0000 1.0000 0.0000
vn 0.1668 0.0000 0.9860
vn -1.0000 0.0000 0.0000
vn 0.0000 -1.0000 0.0000
vn 1.0000 0.0000 0.0000
vn 0.0000 0.0000 -1.0000
vn -0.8838 0.0000 -0.4679
vn -0.9680 0.0000 0.2511
vn 0.8580 0.0000 0.5137
vn 0.9633 0.0000 -0.2686
vn -0.4939 0.0000 0.8695
vn 0.0000 0.0000 1.0000
vn -0.5413 0.0000 -0.8408
vn 0.5423 0.0000 -0.8402
usemtl Material
s off
f 42/1/1 19/2/1 7/3/1 34/4/1
f 35/5/2 34/6/2 7/7/2 8/8/2
f 27/9/3 25/10/3 5/11/3 6/12/3
f 77/13/4 20/14/4 4/15/4 65/16/4
f 20/17/5 18/18/5 3/19/5 4/20/5
f 73/21/6 66/22/6 1/23/6 2/24/6
f 14/25/5 16/26/5 10/27/5 12/28/5
f 76/29/4 14/30/4 12/31/4 75/32/4
f 17/33/7 19/34/7 11/35/7 9/36/7
f 39/37/1 13/38/1 11/39/1 38/40/1
f 48/41/1 31/42/1 13/38/1 39/37/1
f 80/43/4 32/44/4 14/30/4 76/29/4
f 32/45/5 30/46/5 16/26/5 14/25/5
f 9/36/8 11/35/8 13/47/8 15/48/8
f 8/49/3 7/50/3 19/34/3 17/33/3
f 12/28/5 10/27/5 18/18/5 20/17/5
f 75/32/4 12/31/4 20/14/4 77/13/4
f 38/40/1 11/39/1 19/2/1 42/1/1
f 26/51/9 28/52/9 24/53/9 22/54/9
f 79/55/4 26/56/4 22/57/4 78/58/4
f 45/59/1 25/60/1 21/61/1 44/62/1
f 29/63/3 31/64/3 21/65/3 23/66/3
f 36/67/1 5/11/1 25/60/1 45/59/1
f 73/68/4 2/69/4 26/56/4 79/55/4
f 2/70/5 1/71/5 28/52/5 26/51/5
f 23/66/3 21/65/3 25/10/3 27/9/3
f 15/48/3 13/47/3 31/64/3 29/63/3
f 22/54/10 24/53/10 30/46/10 32/45/10
f 78/58/4 22/57/4 32/44/4 80/43/4
f 44/62/1 21/61/1 31/42/1 48/41/1
f 54/72/1 44/62/1 48/41/1 56/73/1
f 23/74/4 43/75/4 47/76/4 29/77/4
f 6/78/4 33/79/4 46/80/4 27/81/4
f 50/82/1 36/67/1 45/59/1 55/83/1
f 55/83/1 45/59/1 44/62/1 54/72/1
f 27/81/4 46/80/4 43/75/4 23/74/4
f 51/84/1 38/40/1 42/1/1 53/85/1
f 9/86/4 37/87/4 41/88/4 17/89/4
f 29/77/4 47/76/4 40/90/4 15/91/4
f 56/73/1 48/41/1 39/37/1 52/92/1
f 52/92/1 39/37/1 38/40/1 51/84/1
f 15/91/4 40/90/4 37/87/4 9/86/4
f 6/93/6 5/94/6 36/95/6 33/96/6
f 17/89/4 41/88/4 35/97/4 8/98/4
f 49/99/11 58/100/11 34/6/11 35/5/11
f 53/85/1 42/1/1 34/4/1 58/101/1
f 109/102/1 53/85/1 58/101/1 98/103/1
f 105/104/12 98/105/12 58/100/12 49/99/12
f 108/106/1 52/92/1 51/84/1 107/107/1
f 112/108/1 56/73/1 52/92/1 108/106/1
f 107/107/1 51/84/1 53/85/1 109/102/1
f 111/109/1 55/83/1 54/72/1 110/110/1
f 106/111/1 50/82/1 55/83/1 111/109/1
f 110/110/1 54/72/1 56/73/1 112/108/1
f 43/75/4 62/112/4 64/113/4 47/76/4
f 33/79/4 57/114/4 63/115/4 46/80/4
f 46/80/4 63/115/4 62/112/4 43/75/4
f 37/87/4 59/116/4 61/117/4 41/88/4
f 47/76/4 64/113/4 60/118/4 40/90/4
f 40/90/4 60/118/4 59/116/4 37/87/4
f 33/96/6 36/95/6 50/119/6 57/120/6
f 41/88/4 61/117/4 49/121/4 35/97/4
f 24/122/1 70/123/1 72/124/1 30/125/1
f 1/126/1 66/127/1 71/128/1 28/129/1
f 28/129/1 71/128/1 70/123/1 24/122/1
f 10/130/1 67/131/1 69/132/1 18/133/1
f 30/125/1 72/124/1 68/134/1 16/135/1
f 16/135/1 68/134/1 67/131/1 10/130/1
f 4/20/12 3/136/12 74/137/12 65/138/12
f 18/133/1 69/132/1 74/139/1 3/140/1
f 86/141/4 78/58/4 80/43/4 88/142/4
f 81/143/4 73/68/4 79/55/4 87/144/4
f 87/144/4 79/55/4 78/58/4 86/141/4
f 83/145/4 75/32/4 77/13/4 85/146/4
f 88/142/4 80/43/4 76/29/4 84/147/4
f 84/147/4 76/29/4 75/32/4 83/145/4
f 81/148/13 90/149/13 66/22/13 73/21/13
f 85/146/4 77/13/4 65/16/4 89/150/4
f 101/151/4 85/146/4 89/150/4 105/152/4
f 97/153/14 106/154/14 90/149/14 81/148/14
f 100/155/4 84/147/4 83/145/4 99/156/4
f 104/157/4 88/142/4 84/147/4 100/155/4
f 99/156/4 83/145/4 85/146/4 101/151/4
f 103/158/4 87/144/4 86/141/4 102/159/4
f 97/160/4 81/143/4 87/144/4 103/158/4
f 102/159/4 86/141/4 88/142/4 104/157/4
f 70/123/1 94/161/1 96/162/1 72/124/1
f 66/127/1 90/163/1 95/164/1 71/128/1
f 71/128/1 95/164/1 94/161/1 70/123/1
f 67/131/1 91/165/1 93/166/1 69/132/1
f 72/124/1 96/162/1 92/167/1 68/134/1
f 68/134/1 92/167/1 91/165/1 67/131/1
f 65/138/12 74/137/12 82/168/12 89/169/12
f 69/132/1 93/166/1 82/170/1 74/139/1
f 62/112/4 102/159/4 104/157/4 64/113/4
f 57/114/4 97/160/4 103/158/4 63/115/4
f 63/115/4 103/158/4 102/159/4 62/112/4
f 59/116/4 99/156/4 101/151/4 61/117/4
f 64/113/4 104/157/4 100/155/4 60/118/4
f 60/118/4 100/155/4 99/156/4 59/116/4
f 57/120/6 50/119/6 106/154/6 97/153/6
f 61/117/4 101/151/4 105/152/4 49/121/4
f 94/161/1 110/110/1 112/108/1 96/162/1
f 90/163/1 106/111/1 111/109/1 95/164/1
f 95/164/1 111/109/1 110/110/1 94/161/1
f 91/165/1 107/107/1 109/102/1 93/166/1
f 96/162/1 112/108/1 108/106/1 92/167/1
f 92/167/1 108/106/1 107/107/1 91/165/1
f 89/169/12 82/168/12 98/105/12 105/104/12
f 93/166/1 109/102/1 98/103/1 82/170/1
