# Blender v2.91.2 OBJ File: 'ModularCityBuilding.blend'
# www.blender.org
mtllib BuildingBase_2x1_B.mtl
o 2x1_BuildingBase_Cube.017
v 0.000000 1.027477 1.000000
v -2.000000 1.027477 -1.000000
v 2.000000 1.027477 1.000000
v 2.000000 1.027477 -1.000000
v -1.989287 0.492106 1.000000
v -1.989287 0.492106 -1.000000
v 2.000000 0.492106 -1.000000
v 2.000000 0.492106 1.000000
v -2.026184 0.392106 -1.036897
v -2.026184 0.392106 1.036897
v 2.036897 0.392106 -1.036897
v 2.036897 0.392106 1.036897
v -2.026184 0.483766 -1.036897
v -2.017844 0.492106 -1.028557
v 2.036897 0.483766 -1.036897
v 2.028557 0.492106 -1.028557
v 2.036897 0.483766 1.036897
v 2.028557 0.492106 1.028557
v -2.017844 0.492106 1.028557
v -2.026184 0.483766 1.036897
v -2.026184 -0.000085 -1.036897
v -2.026184 -0.000085 1.036897
v 2.036897 -0.000085 -1.036897
v 2.036897 -0.000085 1.036897
v -1.989287 0.989916 1.000000
v -1.989287 0.989916 -1.000000
v 2.000000 0.989916 -1.000000
v 2.000000 0.989916 1.000000
v -2.023919 0.992746 1.034632
v -2.021090 0.989916 1.031803
v -2.023919 1.024648 1.034632
v -2.021090 1.027477 1.031803
v -2.021090 1.027477 -1.031803
v -2.023919 1.024648 -1.034632
v 2.031803 1.027477 -1.031803
v 2.034632 1.024648 -1.034632
v 2.031803 1.027477 1.031803
v 2.034632 1.024648 1.034632
v -2.021090 0.989916 -1.031803
v -2.023919 0.992746 -1.034632
v 2.031803 0.989916 -1.031803
v 2.034632 0.992746 -1.034632
v 2.031803 0.989916 1.031803
v 2.034632 0.992746 1.034632
v -2.000000 1.027477 1.000000
vt 0.525643 0.334687
vt 0.529276 0.334687
vt 0.529276 0.663086
vt 0.525643 0.663086
vt 0.650324 0.065708
vt 0.650324 0.062128
vt 0.983598 0.062128
vt 0.983598 0.065708
vt 0.655902 0.985990
vt 0.655902 0.668583
vt 0.661024 0.663536
vt 0.661024 0.991037
vt 0.650324 0.133731
vt 0.650324 0.123445
vt 0.984328 0.123445
vt 0.984328 0.133731
vt 0.522390 0.657231
vt 0.522390 0.339824
vt 0.525643 0.335292
vt 0.525643 0.661763
vt 0.068069 0.339824
vt 0.064816 0.335292
vt 0.068069 0.657231
vt 0.064816 0.661763
vt 0.007813 0.271726
vt 0.007813 0.257179
vt 0.662209 0.257179
vt 0.662209 0.271726
vt 0.052478 0.333968
vt 0.062917 0.333968
vt 0.062917 0.663086
vt 0.052478 0.663086
vt 0.007813 0.193613
vt 0.007813 0.179067
vt 0.662209 0.179067
vt 0.662209 0.193614
vt 0.009156 0.177743
vt 0.660866 0.177743
vt 0.651667 0.121573
vt 0.982985 0.121573
vt 0.009156 0.255856
vt 0.660866 0.255856
vt 0.662209 0.255856
vt 0.007813 0.255856
vt 0.662209 0.333968
vt 0.007812 0.333968
vt 0.984328 0.177743
vt 0.650324 0.177743
vt 0.007812 0.663086
vt 0.007812 0.333968
vt 0.007813 0.098739
vt 0.007813 0.019735
vt 0.650324 0.019735
vt 0.650324 0.098739
vt 0.972443 0.065708
vt 0.972443 0.121573
vt 0.650324 0.121573
vt 0.650324 0.065708
vt 0.007813 0.177743
vt 0.007813 0.098739
vt 0.650324 0.098739
vt 0.650324 0.177743
vt 0.124763 0.339824
vt 0.124762 0.657231
vt 0.987864 0.657590
vt 0.987864 0.340183
vt 0.991486 0.335136
vt 0.991486 0.662637
vt 0.013390 0.668583
vt 0.008268 0.663535
vt 0.013390 0.985990
vt 0.008268 0.991037
vt 0.532322 0.657590
vt 0.529920 0.662637
vt 0.007813 0.019286
vt 0.007813 0.014223
vt 0.661480 0.014223
vt 0.661480 0.019286
vt 0.529920 0.335136
vt 0.008268 0.013774
vt 0.661024 0.013774
vt 0.650780 0.061493
vt 0.983143 0.061493
vt 0.008268 0.007812
vt 0.661024 0.007812
vt 0.661480 0.008262
vt 0.007813 0.008261
vt 0.007813 0.013324
vt 0.661480 0.013324
vt 0.661024 0.013774
vt 0.008268 0.013774
vt 0.661480 0.663086
vt 0.661480 0.991486
vt 0.661024 0.019735
vt 0.008268 0.019735
vt 0.007812 0.991486
vt 0.007812 0.663086
vt 0.532322 0.340183
vn -1.0000 0.0000 0.0000
vn 1.0000 0.0000 0.0000
vn 0.0000 -1.0000 0.0000
vn 0.0000 1.0000 0.0000
vn 0.0000 0.0000 -1.0000
vn 0.0000 0.0000 1.0000
vn 0.0000 0.7071 0.7071
vn 0.7071 0.7071 0.0000
vn 0.0000 0.7071 -0.7071
vn -0.7071 0.7071 0.0000
vn 0.0000 -0.7071 0.7071
vn 0.7071 -0.7071 0.0000
vn 0.0000 -0.7071 -0.7071
vn -0.7071 -0.7071 0.0000
usemtl None
s off
f 29/1/1 31/2/1 34/3/1 40/4/1
f 42/5/2 36/6/2 38/7/2 44/8/2
f 28/9/3 27/10/3 41/11/3 43/12/3
f 11/13/2 15/14/2 17/15/2 12/16/2
f 7/17/4 8/18/4 18/19/4 16/20/4
f 8/18/4 5/21/4 19/22/4 18/19/4
f 5/21/4 6/23/4 14/24/4 19/22/4
f 9/25/5 13/26/5 15/27/5 11/28/5
f 10/29/1 20/30/1 13/31/1 9/32/1
f 12/33/6 17/34/6 20/35/6 10/36/6
f 18/37/7 19/38/7 20/35/7 17/34/7
f 16/39/8 18/40/8 17/15/8 15/14/8
f 14/41/9 16/42/9 15/27/9 13/26/9
f 19/22/10 14/24/10 13/31/10 20/30/10
f 6/23/4 7/17/4 16/20/4 14/24/4
f 12/33/6 10/36/6 22/43/6 24/44/6
f 9/25/5 11/28/5 23/45/5 21/46/5
f 11/13/2 12/16/2 24/47/2 23/48/2
f 10/29/1 9/32/1 21/49/1 22/50/1
f 8/51/6 28/52/6 25/53/6 5/54/6
f 7/55/2 27/56/2 28/57/2 8/58/2
f 6/59/5 26/60/5 27/61/5 7/62/5
f 5/21/1 25/63/1 26/64/1 6/23/1
f 4/65/4 3/66/4 37/67/4 35/68/4
f 27/10/3 26/69/3 39/70/3 41/11/3
f 26/69/3 25/71/3 30/72/3 39/70/3
f 25/71/3 28/9/3 43/12/3 30/72/3
f 2/73/4 4/65/4 35/68/4 33/74/4
f 40/75/5 34/76/5 36/77/5 42/78/5
f 32/79/10 33/74/10 34/3/10 31/2/10
f 33/80/9 35/81/9 36/77/9 34/76/9
f 35/82/8 37/83/8 38/7/8 36/6/8
f 37/84/7 32/85/7 31/86/7 38/87/7
f 44/88/11 29/89/11 30/90/11 43/91/11
f 42/92/12 44/93/12 43/12/12 41/11/12
f 40/75/13 42/78/13 41/94/13 39/95/13
f 29/96/14 40/97/14 39/70/14 30/72/14
f 44/88/6 38/87/6 31/86/6 29/89/6
f 32/79/4 37/67/4 3/66/4 45/98/4
f 32/79/4 45/98/4 2/73/4 33/74/4
l 3 1
l 32 1
