# Blender v2.91.2 OBJ File: 'ModularCityBuilding.blend'
# www.blender.org
mtllib BuildingBase_1x1_R.mtl
o 1x1_Roof_Cube.005
v -1.000000 1.254302 1.000000
v -0.975731 1.338764 0.975731
v -1.000000 1.254302 -1.000000
v -0.975731 1.338764 -0.975731
v 1.000000 1.254302 1.000000
v 0.975731 1.338764 0.975731
v 1.000000 1.254302 -1.000000
v 0.975731 1.338764 -0.975731
v -0.975731 1.264572 0.975731
v -0.975731 1.264572 -0.975731
v 0.975731 1.264572 -0.975731
v 0.975731 1.264572 0.975731
v -1.000000 1.335833 1.000000
v -0.997069 1.338764 0.997069
v -0.997069 1.338764 -0.997069
v -1.000000 1.335833 -1.000000
v 0.997069 1.338764 -0.997069
v 1.000000 1.335833 -1.000000
v 0.997069 1.338764 0.997069
v 1.000000 1.335833 1.000000
vt 0.093750 0.089844
vt 0.093750 0.910156
vt 0.066406 0.941406
vt 0.062500 0.058594
vt 0.906250 0.910156
vt 0.906250 0.089844
vt 0.933594 0.058594
vt 0.937500 0.941406
vt 0.000000 1.000000
vt 0.039062 0.972656
vt 0.964844 0.972656
vt 1.000000 1.000000
vt 0.123510 0.134161
vt 0.121094 0.871094
vt 0.964844 0.039062
vt 1.000000 0.000000
vt 0.039062 0.039062
vt 0.000000 0.000000
vt 0.878906 0.132812
vt 0.875000 0.871094
vn 0.0000 1.0000 0.0000
vn -1.0000 0.0000 0.0000
vn 0.0000 0.0000 -1.0000
vn 1.0000 0.0000 0.0000
vn 0.0000 0.0000 1.0000
vn -0.7071 0.7071 0.0000
vn 0.0000 0.7071 -0.7071
vn 0.7071 0.7071 0.0000
vn 0.0000 0.7071 0.7071
usemtl None
s off
f 6/1/1 2/2/1 14/3/1 19/4/1
f 4/5/1 8/6/1 17/7/1 15/8/1
f 8/6/1 6/1/1 19/4/1 17/7/1
f 1/9/2 13/10/2 16/11/2 3/12/2
f 2/2/3 6/1/3 12/13/3 9/14/3
f 3/12/3 16/11/3 18/15/3 7/16/3
f 7/16/4 18/15/4 20/17/4 5/18/4
f 2/2/1 4/5/1 15/8/1 14/3/1
f 11/19/1 10/20/1 9/14/1 12/13/1
f 8/6/5 4/5/5 10/20/5 11/19/5
f 6/1/2 8/6/2 11/19/2 12/13/2
f 4/5/4 2/2/4 9/14/4 10/20/4
f 14/3/6 15/8/6 16/11/6 13/10/6
f 15/8/7 17/7/7 18/15/7 16/11/7
f 17/7/8 19/4/8 20/17/8 18/15/8
f 19/4/9 14/3/9 13/10/9 20/17/9
f 5/18/5 20/17/5 13/10/5 1/9/5
