# File produced by Open Asset Import Library (http://www.assimp.sf.net)
# (assimp v3.1.128981410)

mtllib BuildingBase_1x1_A.mtl

# vertex positions
v 1.031803 0.635371 1.031803
v 1.000000 0.635371 1.000000
v -1.000000 0.635371 1.000000
v -1.031803 0.635371 1.031803
v -1.034632 0.600640 -1.034632
v -1.034632 0.600640 1.034632
v -1.034632 0.632542 1.034632
v -1.034632 0.632542 -1.034632
v 1.034632 0.600640 1.034632
v 1.034632 0.600640 -1.034632
v 1.034632 0.632542 -1.034632
v 1.034632 0.632542 1.034632
v 1.031803 0.597810 1.031803
v 1.000000 0.597810 1.000000
v 1.000000 0.597810 -1.000000
v 1.031803 0.597810 -1.031803
v 1.036897 0.000000 1.036897
v 1.036897 0.000000 -1.036897
v 1.036897 0.091659 -1.036897
v 1.036897 0.091659 1.036897
v 1.028557 0.100000 -1.028557
v 1.000000 0.100000 -1.000000
v 1.000000 0.100000 1.000000
v 1.028557 0.100000 1.028557
v -1.000000 0.100000 1.000000
v -1.028557 0.100000 1.028557
v -1.000000 0.100000 -1.000000
v -1.028557 0.100000 -1.028557
v -1.036897 0.000000 -1.036897
v -1.036897 0.091659 -1.036897
v -1.036897 0.000000 1.036897
v -1.036897 0.091659 1.036897
v 1.036897 -0.392191 1.036897
v -1.036897 -0.392191 1.036897
v -1.036897 -0.392191 -1.036897
v 1.036897 -0.392191 -1.036897
v 1.000000 0.635371 -1.000000
v -1.000000 0.635371 -1.000000
v -1.000000 0.597810 1.000000
v -1.000000 0.597810 -1.000000
v -1.031803 0.635371 -1.031803
v 1.031803 0.635371 -1.031803
v -1.031803 0.597810 -1.031803
v -1.031803 0.597810 1.031803

# UV coordinates
vt 0.240615 0.256733
vt 0.247431 0.265040
vt 0.273978 0.718636
vt 0.267197 0.725833
vt 0.744304 0.731777
vt 0.260842 0.732669
vt 0.266421 0.726658
vt 0.737146 0.726181
vt 0.233708 0.248961
vt 0.676271 0.299921
vt 0.671538 0.304875
vt 0.239816 0.255790
vt 0.234534 0.247895
vt 0.243230 0.239948
vt 0.682186 0.292431
vt 0.676954 0.299213
vt 0.279612 0.090117
vt 0.769603 0.183985
vt 0.755992 0.199512
vt 0.273893 0.111153
vt 0.754010 0.201710
vt 0.748740 0.207542
vt 0.279966 0.122185
vt 0.275107 0.114271
vt 0.109983 0.262980
vt 0.116656 0.268991
vt 0.141232 0.725849
vt 0.135242 0.732548
vt 0.268003 0.857117
vt 0.274360 0.850773
vt 0.731237 0.850906
vt 0.737601 0.857254
vt 0.918429 0.676783
vt 0.897847 0.684770
vt 0.739037 0.880246
vt 0.266589 0.880099
vt 0.266162 0.859738
vt 0.739444 0.859875
vt 0.112373 0.735205
vt 0.086978 0.262817
vt 0.107269 0.261282
vt 0.132726 0.734530
vt 0.894630 0.683873
vt 0.886279 0.679772
vt 0.000000 0.268333
vt 0.025455 0.739159
vt 0.999999 0.644572
vt 0.832931 0.119035
vt 0.300578 0.000000
vt 0.267397 0.967306
vt 0.738336 0.967306
vt 0.665231 0.311299
vt 0.727572 0.719198
vt 0.226251 0.258032
vt 0.252413 0.724499
vt 0.753245 0.721632
vt 0.269467 0.740617
vt 0.735724 0.739757
vt 0.736169 0.725446
vt 0.670887 0.305540
vt 0.745338 0.730868
vt 0.743588 0.732668
vt 0.261563 0.733558
vt 0.259914 0.731999
vt 0.232861 0.249732

# vertex normals
vn 0.000000 1.000000 0.000000
vn -1.000000 0.000000 0.000000
vn 1.000000 0.000000 0.000000
vn 0.000000 -1.000000 0.000000
vn 0.000000 0.000000 -1.000000
vn 0.000000 0.000000 1.000000
vn 0.000000 0.707107 0.707107
vn 0.707107 0.707107 0.000000
vn 0.000000 0.707107 -0.707107
vn -0.707107 0.707107 0.000000
vn 0.000000 -0.707107 0.707107
vn 0.707107 -0.707107 0.000000
vn 0.000000 -0.707107 -0.707107
vn -0.707107 -0.707107 0.000000

# Mesh
g 1x1_BuildingBase_Cube.001
usemtl None
f 1/1/1 2/2/1 3/3/1
f 3/3/1 4/4/1 1/1/1
f 5/5/2 6/6/2 7/7/2
f 7/7/2 8/8/2 5/5/2
f 9/9/3 10/10/3 11/11/3
f 11/11/3 12/12/3 9/9/3
f 13/13/4 14/14/4 15/15/4
f 15/15/4 16/16/4 13/13/4
f 17/17/3 18/18/3 19/19/3
f 19/19/3 20/20/3 17/17/3
f 21/21/1 22/22/1 23/23/1
f 23/23/1 24/24/1 21/21/1
f 24/25/1 23/26/1 25/27/1
f 25/27/1 26/28/1 24/25/1
f 26/29/1 25/30/1 27/31/1
f 27/31/1 28/32/1 26/29/1
f 18/18/5 29/33/5 30/34/5
f 30/34/5 19/19/5 18/18/5
f 29/35/2 31/36/2 32/37/2
f 32/37/2 30/38/2 29/35/2
f 31/39/6 17/40/6 20/41/6
f 20/41/6 32/42/6 31/39/6
f 20/41/7 24/25/7 26/28/7
f 26/28/7 32/42/7 20/41/7
f 19/19/8 21/21/8 24/24/8
f 24/24/8 20/20/8 19/19/8
f 30/34/9 28/43/9 21/21/9
f 21/21/9 19/19/9 30/34/9
f 32/37/10 26/29/10 28/32/10
f 28/32/10 30/38/10 32/37/10
f 28/43/1 27/44/1 22/22/1
f 22/22/1 21/21/1 28/43/1
f 33/45/6 17/40/6 31/39/6
f 31/39/6 34/46/6 33/45/6
f 35/47/5 29/33/5 18/18/5
f 18/18/5 36/48/5 35/47/5
f 36/48/3 18/18/3 17/17/3
f 17/17/3 33/49/3 36/48/3
f 34/50/2 31/36/2 29/35/2
f 29/35/2 35/51/2 34/50/2
f 2/2/1 37/52/1 38/53/1
f 38/53/1 3/3/1 2/2/1
f 25/27/6 23/26/6 14/54/6
f 14/54/6 39/55/6 25/27/6
f 23/23/3 22/22/3 15/15/3
f 15/15/3 14/14/3 23/23/3
f 22/22/5 27/44/5 40/56/5
f 40/56/5 15/15/5 22/22/5
f 27/31/2 25/30/2 39/57/2
f 39/57/2 40/58/2 27/31/2
f 4/4/1 3/3/1 38/53/1
f 38/53/1 41/59/1 4/4/1
f 42/60/1 37/52/1 2/2/1
f 2/2/1 1/1/1 42/60/1
f 16/16/4 15/15/4 40/56/4
f 40/56/4 43/61/4 16/16/4
f 43/62/4 40/58/4 39/57/4
f 39/57/4 44/63/4 43/62/4
f 44/64/4 39/55/4 14/54/4
f 14/54/4 13/65/4 44/64/4
f 41/59/1 38/53/1 37/52/1
f 37/52/1 42/60/1 41/59/1
f 10/10/5 5/5/5 8/8/5
f 8/8/5 11/11/5 10/10/5
f 7/7/10 4/4/10 41/59/10
f 41/59/10 8/8/10 7/7/10
f 8/8/9 41/59/9 42/60/9
f 42/60/9 11/11/9 8/8/9
f 11/11/8 42/60/8 1/1/8
f 1/1/8 12/12/8 11/11/8
f 12/12/7 1/1/7 4/4/7
f 4/4/7 7/7/7 12/12/7
f 13/65/11 9/9/11 6/6/11
f 6/6/11 44/64/11 13/65/11
f 16/16/12 10/10/12 9/9/12
f 9/9/12 13/13/12 16/16/12
f 43/61/13 5/5/13 10/10/13
f 10/10/13 16/16/13 43/61/13
f 44/63/14 6/6/14 5/5/14
f 5/5/14 43/62/14 44/63/14
f 6/6/6 9/9/6 12/12/6
f 12/12/6 7/7/6 6/6/6
