# File produced by Open Asset Import Library (http://www.assimp.sf.net)
# (assimp v3.1.128981410)

mtllib Postbox.mtl

# vertex positions
v -0.159883 0.215474 -0.102412
v -0.159883 0.035621 -0.102412
v -0.154874 0.035621 -0.102412
v -0.154874 0.215474 -0.102412
v 0.139835 0.459578 -0.078167
v 0.159883 0.459578 -0.078167
v 0.159883 0.425854 -0.111892
v 0.139835 0.425854 -0.111892
v 0.159883 0.215474 0.174128
v 0.159883 0.404808 0.174128
v 0.139835 0.404808 0.174128
v 0.139835 0.215474 0.174128
v -0.139835 0.459578 0.119357
v -0.159883 0.459578 0.119357
v -0.159883 0.404808 0.174128
v -0.139835 0.404808 0.174128
v 0.139835 0.459578 0.119357
v 0.159883 0.459578 0.119357
v -0.159883 0.026141 0.119357
v -0.139835 0.026141 0.119357
v -0.139835 0.000069 0.119357
v -0.159883 0.000069 0.119357
v -0.159883 0.459578 -0.078167
v -0.139835 0.459578 -0.078167
v -0.139835 0.425854 -0.111892
v -0.159883 0.425854 -0.111892
v 0.159883 0.215474 0.164648
v 0.159883 0.035621 0.164648
v 0.154874 0.035621 0.164648
v 0.154874 0.215474 0.164648
v 0.139835 0.000069 0.119357
v 0.159883 0.000069 0.119357
v 0.159883 0.000069 0.174128
v 0.139835 0.000069 0.174128
v -0.159883 0.026141 -0.078167
v -0.159883 0.026141 -0.111892
v -0.159883 0.000069 -0.111892
v -0.159883 0.000069 -0.078167
v 0.139835 0.215474 -0.111892
v 0.159883 0.215474 -0.111892
v 0.139835 0.026141 -0.078167
v 0.159883 0.026141 -0.078167
v 0.159883 0.026141 0.119357
v 0.139835 0.026141 0.119357
v -0.139835 0.026141 -0.078167
v -0.139835 0.026141 -0.111892
v -0.139835 0.000069 -0.111892
v -0.139835 0.215474 0.174128
v -0.159883 0.215474 0.174128
v 0.139835 0.026141 -0.111892
v 0.139835 0.000069 -0.111892
v 0.139835 0.000069 -0.078167
v 0.131349 0.215474 0.174128
v 0.131349 0.396321 0.174128
v 0.131349 0.396321 0.167759
v 0.131349 0.215474 0.167759
v 0.126430 0.414286 0.164649
v 0.126430 0.450099 0.128836
v 0.126430 0.427347 0.106084
v 0.126430 0.391534 0.141897
v 0.139835 0.026141 0.174128
v -0.139835 0.026141 0.174128
v -0.159883 0.215474 -0.111892
v -0.139835 0.215474 -0.111892
v -0.139835 0.000069 -0.078167
v -0.139835 0.000069 0.174128
v -0.159883 0.000069 0.174128
v 0.159883 0.000069 -0.111892
v 0.159883 0.000069 -0.078167
v 0.159883 0.026141 -0.111892
v -0.159883 0.026141 0.174128
v 0.159883 0.026141 0.174128
v 0.131349 0.034627 0.174128
v 0.131349 0.034627 0.167759
v -0.139835 0.215474 -0.139824
v -0.139835 0.026141 -0.139824
v 0.159883 0.035621 -0.078167
v 0.159883 0.035621 -0.102412
v 0.154874 0.035621 -0.102412
v 0.154874 0.035621 -0.078167
v -0.159883 0.450098 0.115430
v -0.159883 0.450098 -0.074241
v -0.154874 0.450098 -0.074241
v -0.154874 0.450098 0.115430
v -0.159883 0.035621 -0.078167
v -0.154874 0.035621 -0.078167
v -0.159883 0.035621 0.119357
v -0.159883 0.035621 0.164648
v -0.154874 0.035621 0.164648
v -0.154874 0.035621 0.119357
v -0.126430 0.414286 0.164649
v -0.126430 0.450099 0.128836
v -0.126430 0.427347 0.106084
v -0.126430 0.391534 0.141897
v 0.139835 0.215474 -0.139824
v 0.139835 0.026141 -0.139824
v 0.139835 0.425854 -0.126805
v 0.139835 0.412835 -0.139824
v -0.139835 0.425854 -0.126805
v -0.139835 0.412835 -0.139824
v 0.159883 0.421927 -0.102412
v 0.159883 0.450098 -0.074241
v 0.154874 0.450098 -0.074241
v 0.154874 0.421927 -0.102412
v 0.159883 0.035621 0.119357
v 0.154874 0.035621 0.119357
v -0.159883 0.421927 -0.102412
v -0.154874 0.421927 -0.102412
v -0.159883 0.215474 0.164648
v -0.154874 0.215474 0.164648
v 0.159883 0.215474 -0.102412
v 0.154874 0.215474 -0.102412
v 0.159883 0.400881 0.164648
v 0.154874 0.400881 0.164648
v 0.159883 0.450098 0.115430
v 0.154874 0.450098 0.115430
v -0.159883 0.400881 0.164648
v -0.154874 0.400881 0.164648
v -0.131349 0.396321 0.174128
v -0.131349 0.034627 0.174128
v -0.131349 0.215474 0.174128
v -0.131349 0.215474 0.167759
v -0.131349 0.034627 0.167759
v -0.131349 0.396321 0.167759
v 0.154874 0.215474 0.119357
v -0.154874 0.215474 -0.078167
v -0.154874 0.215474 0.119357
v -0.154874 0.408838 0.119357
v 0.154874 0.215474 -0.078167
v 0.154874 0.423372 -0.078167
v -0.154874 0.423372 -0.078167
v 0.154874 0.408838 0.119357

# UV coordinates
vt 0.083630 0.727348
vt 0.134042 0.988400
vt 0.129515 0.989117
vt 0.074869 0.715644
vt 0.497139 0.664757
vt 0.512071 0.658781
vt 0.527892 0.679959
vt 0.511055 0.692149
vt 0.505001 0.355734
vt 0.480401 0.473326
vt 0.467417 0.466736
vt 0.485358 0.349433
vt 0.269435 0.557960
vt 0.256928 0.551015
vt 0.252258 0.488146
vt 0.264154 0.478132
vt 0.469928 0.543530
vt 0.481997 0.535889
vt 0.157118 0.221097
vt 0.188101 0.196117
vt 0.185959 0.210698
vt 0.175692 0.216241
vt 0.227986 0.669577
vt 0.243206 0.672990
vt 0.232060 0.702648
vt 0.212407 0.692718
vt 0.514217 0.359084
vt 0.494579 0.229144
vt 0.498228 0.228972
vt 0.519116 0.360883
vt 0.487806 0.186574
vt 0.496825 0.193073
vt 0.480004 0.216457
vt 0.473743 0.210443
vt 0.074371 0.112409
vt 0.039391 0.100962
vt 0.067149 0.051470
vt 0.077333 0.082321
vt 0.598401 0.785092
vt 0.632272 0.746416
vt 0.556100 0.055182
vt 0.605832 0.101382
vt 0.513403 0.188848
vt 0.477332 0.174019
vt 0.120926 0.064501
vt 0.096469 0.027305
vt 0.121301 0.034096
vt 0.091717 0.052301
vt 0.227117 0.371575
vt 0.209477 0.380415
vt 0.554571 0.025001
vt 0.588736 0.036971
vt 0.579081 0.055711
vt 0.476891 0.347033
vt 0.461899 0.461743
vt 0.458482 0.458205
vt 0.470586 0.345237
vt 0.458882 0.474518
vt 0.460945 0.536816
vt 0.446359 0.520836
vt 0.448512 0.493168
vt 0.460158 0.217062
vt 0.218452 0.233196
vt 0.100143 0.748476
vt 0.134279 0.787606
vt 0.093546 0.074042
vt 0.203477 0.234240
vt 0.194984 0.237181
vt 0.610852 0.048766
vt 0.593671 0.071346
vt 0.627307 0.101777
vt 0.196220 0.250301
vt 0.589530 0.010585
vt 0.486578 0.227811
vt 0.453847 0.223188
vt 0.450199 0.227553
vt 0.145261 0.999999
vt 0.165896 0.999119
vt 0.183077 0.833323
vt 0.198107 0.999343
vt 0.576848 0.996706
vt 0.596429 0.995536
vt 0.625660 0.129083
vt 0.630677 0.121813
vt 0.666399 0.129715
vt 0.649563 0.133965
vt 0.250466 0.548947
vt 0.221146 0.666159
vt 0.217442 0.665048
vt 0.247280 0.547387
vt 0.034250 0.127330
vt 0.053200 0.136678
vt 0.042621 0.149845
vt 0.022879 0.145004
vt 0.150801 0.229897
vt 0.188397 0.252712
vt 0.184777 0.253284
vt 0.147411 0.234925
vt 0.273040 0.485071
vt 0.277646 0.549854
vt 0.290324 0.529835
vt 0.285113 0.501355
vt 0.549230 0.833531
vt 0.546633 0.999999
vt 0.505772 0.701378
vt 0.501376 0.712741
vt 0.237181 0.711647
vt 0.241078 0.722875
vt 0.123876 0.009077
vt 0.551079 0.000000
vt 0.537296 0.674954
vt 0.518579 0.654815
vt 0.522133 0.653372
vt 0.540794 0.671227
vt 0.520051 0.196734
vt 0.522949 0.200924
vt 0.203124 0.687195
vt 0.199298 0.683483
vt 0.201594 0.385134
vt 0.197428 0.387700
vt 0.648195 0.723986
vt 0.656735 0.711814
vt 0.487069 0.475594
vt 0.490333 0.477381
vt 0.488101 0.533441
vt 0.491103 0.531651
vt 0.246183 0.491966
vt 0.243211 0.494249
vt 0.607227 0.983579
vt 0.611690 0.983956
vt 0.268945 0.472411
vt 0.226097 0.238518
vt 0.234578 0.368092
vt 0.240551 0.365486
vt 0.230624 0.242354
vt 0.271684 0.468343
vt 0.564572 0.377858
vt 0.021512 0.595499
vt 0.000000 0.585997
vt 0.164494 0.413267
vt 0.224003 0.526933
vt 0.702684 0.584680
vt 0.541913 0.650873
vt 0.196867 0.663234
vt 0.512606 0.508754
vt 0.723413 0.573412

# vertex normals
vn 0.000000 0.000000 1.000000
vn 0.000000 0.707107 -0.707107
vn 0.000000 0.707107 0.707107
vn 0.000000 1.000000 0.000000
vn 0.000000 0.000000 -1.000000
vn 0.000000 -1.000000 0.000000
vn -1.000000 0.000000 0.000000
vn 1.000000 0.000000 0.000000
vn 0.000000 -0.707107 0.707107
vn 0.000000 -0.707107 -0.707107

# Mesh
g Postbox_Cube.022
usemtl None
f 4/4/1 1/1/1 2/2/1
f 2/2/1 3/3/1 4/4/1
f 8/8/2 5/5/2 6/6/2
f 6/6/2 7/7/2 8/8/2
f 12/12/1 9/9/1 10/10/1
f 10/10/1 11/11/1 12/12/1
f 16/16/3 13/13/3 14/14/3
f 14/14/3 15/15/3 16/16/3
f 18/18/4 6/6/4 5/5/4
f 5/5/4 17/17/4 18/18/4
f 22/22/5 19/19/5 20/20/5
f 20/20/5 21/21/5 22/22/5
f 26/26/2 23/23/2 24/24/2
f 24/24/2 25/25/2 26/26/2
f 30/30/5 27/27/5 28/28/5
f 28/28/5 29/29/5 30/30/5
f 34/34/6 31/31/6 32/32/6
f 32/32/6 33/33/6 34/34/6
f 38/38/7 35/35/7 36/36/7
f 36/36/7 37/37/7 38/38/7
f 40/40/5 39/39/5 8/8/5
f 8/8/5 7/7/5 40/40/5
f 44/44/6 41/41/6 42/42/6
f 42/42/6 43/43/6 44/44/6
f 19/19/6 35/35/6 45/45/6
f 45/45/6 20/20/6 19/19/6
f 37/37/5 36/46/5 46/47/5
f 46/47/5 47/48/5 37/37/5
f 13/13/4 24/24/4 23/23/4
f 23/23/4 14/14/4 13/13/4
f 49/50/1 48/49/1 16/16/1
f 16/16/1 15/15/1 49/50/1
f 52/53/7 41/41/7 50/51/7
f 50/51/7 51/52/7 52/53/7
f 10/10/3 18/18/3 17/17/3
f 17/17/3 11/11/3 10/10/3
f 46/47/6 50/51/6 41/41/6
f 41/41/6 45/45/6 46/47/6
f 45/45/6 41/41/6 44/44/6
f 44/44/6 20/20/6 45/45/6
f 24/24/2 5/5/2 8/8/2
f 8/8/2 25/25/2 24/24/2
f 56/57/7 53/54/7 54/55/7
f 54/55/7 55/56/7 56/57/7
f 60/61/7 57/58/7 58/59/7
f 58/59/7 59/60/7 60/61/7
f 20/20/6 44/44/6 61/62/6
f 61/62/6 62/63/6 20/20/6
f 5/5/4 24/24/4 13/13/4
f 13/13/4 17/17/4 5/5/4
f 64/65/5 63/64/5 26/26/5
f 26/26/5 25/25/5 64/65/5
f 38/38/6 37/37/6 47/48/6
f 47/48/6 65/66/6 38/38/6
f 67/68/6 22/22/6 21/21/6
f 21/21/6 66/67/6 67/68/6
f 52/53/6 51/52/6 68/69/6
f 68/69/6 69/70/6 52/53/6
f 68/69/8 70/71/8 42/42/8
f 42/42/8 69/70/8 68/69/8
f 47/48/8 46/47/8 45/45/8
f 45/45/8 65/66/8 47/48/8
f 34/34/7 61/62/7 44/44/7
f 44/44/7 31/31/7 34/34/7
f 66/67/1 62/63/1 71/72/1
f 71/72/1 67/68/1 66/67/1
f 51/52/5 50/51/5 70/73/5
f 70/73/5 68/69/5 51/52/5
f 21/21/8 20/20/8 62/63/8
f 62/63/8 66/67/8 21/21/8
f 32/32/8 43/43/8 72/74/8
f 72/74/8 33/33/8 32/32/8
f 69/70/1 42/42/1 41/41/1
f 41/41/1 52/53/1 69/70/1
f 31/31/5 44/44/5 43/43/5
f 43/43/5 32/32/5 31/31/5
f 65/66/1 45/45/1 35/35/1
f 35/35/1 38/38/1 65/66/1
f 67/68/7 71/72/7 19/19/7
f 19/19/7 22/22/7 67/68/7
f 33/33/1 72/74/1 61/62/1
f 61/62/1 34/34/1 33/33/1
f 74/76/7 73/75/7 53/54/7
f 53/54/7 56/57/7 74/76/7
f 71/72/1 62/63/1 48/49/1
f 48/49/1 49/50/1 71/72/1
f 61/62/1 72/74/1 9/9/1
f 9/9/1 12/12/1 61/62/1
f 46/78/5 36/77/5 63/64/5
f 63/64/5 64/65/5 46/78/5
f 76/80/7 46/78/7 64/65/7
f 64/65/7 75/79/7 76/80/7
f 70/82/5 50/81/5 39/39/5
f 39/39/5 40/40/5 70/82/5
f 80/86/4 77/83/4 78/84/4
f 78/84/4 79/85/4 80/86/4
f 84/90/6 81/87/6 82/88/6
f 82/88/6 83/89/6 84/90/6
f 3/94/4 2/91/4 85/92/4
f 85/92/4 86/93/4 3/94/4
f 90/98/4 87/95/4 88/96/4
f 88/96/4 89/97/4 90/98/4
f 92/100/3 13/13/3 16/16/3
f 16/16/3 91/99/3 92/100/3
f 91/99/3 16/16/3 11/11/3
f 11/11/3 57/58/3 91/99/3
f 57/58/3 11/11/3 17/17/3
f 17/17/3 58/59/3 57/58/3
f 58/59/3 17/17/3 13/13/3
f 13/13/3 92/100/3 58/59/3
f 59/60/3 93/101/3 94/102/3
f 94/102/3 60/61/3 59/60/3
f 59/60/9 58/59/9 92/100/9
f 92/100/9 93/101/9 59/60/9
f 94/102/2 91/99/2 57/58/2
f 57/58/2 60/61/2 94/102/2
f 93/101/8 92/100/8 91/99/8
f 91/99/8 94/102/8 93/101/8
f 75/79/5 95/103/5 96/104/5
f 96/104/5 76/80/5 75/79/5
f 97/105/8 95/103/8 98/106/8
f 75/79/7 99/107/7 100/108/7
f 96/110/6 50/51/6 46/47/6
f 46/47/6 76/109/6 96/110/6
f 100/108/5 98/106/5 95/103/5
f 95/103/5 75/79/5 100/108/5
f 95/103/8 39/39/8 50/81/8
f 50/81/8 96/104/8 95/103/8
f 97/105/2 98/106/2 100/108/2
f 100/108/2 99/107/2 97/105/2
f 99/107/4 25/25/4 8/8/4
f 8/8/4 97/105/4 99/107/4
f 104/114/9 101/111/9 102/112/9
f 102/112/9 103/113/9 104/114/9
f 106/116/4 105/115/4 77/83/4
f 77/83/4 80/86/4 106/116/4
f 83/89/9 82/88/9 107/117/9
f 107/117/9 108/118/9 83/89/9
f 29/29/4 28/28/4 105/115/4
f 105/115/4 106/116/4 29/29/4
f 89/97/5 88/96/5 109/119/5
f 109/119/5 110/120/5 89/97/5
f 86/93/4 85/92/4 87/95/4
f 87/95/4 90/98/4 86/93/4
f 112/122/1 111/121/1 101/111/1
f 101/111/1 104/114/1 112/122/1
f 114/124/5 113/123/5 27/27/5
f 27/27/5 30/30/5 114/124/5
f 103/113/6 102/112/6 115/125/6
f 115/125/6 116/126/6 103/113/6
f 108/118/1 107/117/1 1/1/1
f 1/1/1 4/4/1 108/118/1
f 118/128/10 117/127/10 81/87/10
f 81/87/10 84/90/10 118/128/10
f 79/130/1 78/129/1 111/121/1
f 111/121/1 112/122/1 79/130/1
f 16/16/1 119/131/1 54/55/1
f 54/55/1 11/11/1 16/16/1
f 62/63/1 120/132/1 121/133/1
f 121/133/1 48/49/1 62/63/1
f 61/62/1 73/75/1 120/132/1
f 120/132/1 62/63/1 61/62/1
f 11/11/1 54/55/1 53/54/1
f 53/54/1 12/12/1 11/11/1
f 48/49/1 121/133/1 119/131/1
f 119/131/1 16/16/1 48/49/1
f 12/12/1 53/54/1 73/75/1
f 73/75/1 61/62/1 12/12/1
f 56/57/1 122/134/1 123/135/1
f 123/135/1 74/76/1 56/57/1
f 55/56/1 124/136/1 122/134/1
f 122/134/1 56/57/1 55/56/1
f 122/134/8 121/133/8 120/132/8
f 120/132/8 123/135/8 122/134/8
f 124/136/8 119/131/8 121/133/8
f 121/133/8 122/134/8 124/136/8
f 123/135/4 120/132/4 73/75/4
f 73/75/4 74/76/4 123/135/4
f 55/56/6 54/55/6 119/131/6
f 119/131/6 124/136/6 55/56/6
f 71/72/7 88/96/7 87/95/7
f 87/95/7 19/19/7 71/72/7
f 70/71/8 78/84/8 77/83/8
f 77/83/8 42/42/8 70/71/8
f 10/10/8 113/123/8 115/125/8
f 115/125/8 18/18/8 10/10/8
f 14/14/7 81/87/7 117/127/7
f 117/127/7 15/15/7 14/14/7
f 9/9/8 27/27/8 113/123/8
f 113/123/8 10/10/8 9/9/8
f 49/50/7 109/119/7 88/96/7
f 88/96/7 71/72/7 49/50/7
f 26/26/7 107/117/7 82/88/7
f 82/88/7 23/23/7 26/26/7
f 6/6/8 102/112/8 101/111/8
f 101/111/8 7/7/8 6/6/8
f 23/23/7 82/88/7 81/87/7
f 81/87/7 14/14/7 23/23/7
f 36/77/7 2/2/7 1/1/7
f 1/1/7 63/64/7 36/77/7
f 40/40/8 111/121/8 78/129/8
f 78/129/8 70/82/8 40/40/8
f 18/18/8 115/125/8 102/112/8
f 102/112/8 6/6/8 18/18/8
f 19/19/7 87/95/7 85/92/7
f 85/92/7 35/35/7 19/19/7
f 43/43/8 105/115/8 28/28/8
f 28/28/8 72/74/8 43/43/8
f 42/42/8 77/83/8 105/115/8
f 105/115/8 43/43/8 42/42/8
f 35/35/7 85/92/7 2/91/7
f 2/91/7 36/36/7 35/35/7
f 72/74/8 28/28/8 27/27/8
f 27/27/8 9/9/8 72/74/8
f 15/15/7 117/127/7 109/119/7
f 109/119/7 49/50/7 15/15/7
f 63/64/7 1/1/7 107/117/7
f 107/117/7 26/26/7 63/64/7
f 7/7/8 101/111/8 111/121/8
f 111/121/8 40/40/8 7/7/8
f 29/29/8 106/116/8 125/137/8
f 125/137/8 30/30/8 29/29/8
f 3/94/7 86/93/7 126/138/7
f 126/138/7 4/139/7 3/94/7
f 128/141/7 127/140/7 110/120/7
f 110/120/7 118/128/7 128/141/7
f 130/143/8 129/142/8 112/122/8
f 112/122/8 104/114/8 130/143/8
f 130/143/8 104/114/8 103/113/8
f 128/141/7 118/128/7 84/90/7
f 131/144/7 126/138/7 127/140/7
f 127/140/7 128/141/7 131/144/7
f 90/98/7 89/97/7 110/120/7
f 110/120/7 127/140/7 90/98/7
f 83/89/7 131/144/7 128/141/7
f 128/141/7 84/90/7 83/89/7
f 114/124/8 30/30/8 125/137/8
f 125/137/8 132/145/8 114/124/8
f 106/116/8 80/86/8 129/142/8
f 129/142/8 125/137/8 106/116/8
f 114/124/8 132/145/8 116/126/8
f 132/145/8 125/137/8 129/142/8
f 129/142/8 130/143/8 132/145/8
f 80/86/8 79/85/8 112/146/8
f 112/146/8 129/142/8 80/86/8
f 116/126/8 132/145/8 130/143/8
f 130/143/8 103/113/8 116/126/8
f 108/118/7 4/4/7 126/138/7
f 126/138/7 131/144/7 108/118/7
f 86/93/7 90/98/7 127/140/7
f 127/140/7 126/138/7 86/93/7
f 108/118/7 131/144/7 83/89/7
f 116/126/10 115/125/10 113/123/10
f 113/123/10 114/124/10 116/126/10
f 110/120/5 109/119/5 117/127/5
f 117/127/5 118/128/5 110/120/5
f 97/105/8 8/8/8 39/39/8
f 39/39/8 95/103/8 97/105/8
f 75/79/7 64/65/7 25/25/7
f 25/25/7 99/107/7 75/79/7
