# Blender v2.91.2 OBJ File: 'ModularCityBuilding.blend'
# www.blender.org
mtllib SidewalkBend90.mtl
o SidewalkBend90_PavementSquare.007
v 0.999909 -0.000000 0.000000
v 0.999909 0.170361 0.000000
v 0.969808 0.200000 0.000000
v 0.959761 0.200000 0.000000
v 0.959761 0.190000 0.000000
v 0.922957 0.190000 0.000000
v 0.922957 0.200000 0.000000
v -0.828462 0.200000 0.000000
v -0.828462 0.190000 0.000000
v -0.838462 0.190000 0.000000
v -0.838462 0.200000 0.000000
v -0.929958 0.200000 0.000000
v -0.999954 0.130000 0.000000
v -0.999954 0.125585 0.000000
v -0.993690 0.125585 0.000000
v -0.993690 0.108912 0.000000
v -0.999954 0.108912 0.000000
v -0.999954 0.000000 0.000000
v 0.974605 -0.000000 -2.021740
v 0.974606 0.170361 -2.021740
v 0.944509 0.200000 -2.021049
v 0.934465 0.200000 -2.020819
v 0.934465 0.190000 -2.020819
v 0.897668 0.190000 -2.019975
v 0.897668 0.200000 -2.019975
v -0.853429 0.200000 -1.980082
v -0.853429 0.190000 -1.980082
v -0.863427 0.190000 -1.979856
v -0.863427 0.200000 -1.979856
v -0.954907 0.200000 -1.977787
v -1.024891 0.130000 -1.976205
v -1.024891 0.125585 -1.976205
v -1.018627 0.125585 -1.976347
v -1.018627 0.108912 -1.976347
v -1.024891 0.108912 -1.976205
v -1.024891 0.000000 -1.976205
v 0.911073 -0.000000 -4.060317
v 0.911073 0.170361 -4.060317
v 0.881028 0.200000 -4.058366
v 0.871000 0.200000 -4.057716
v 0.871000 0.190000 -4.057716
v 0.834264 0.190000 -4.055332
v 0.834264 0.200000 -4.055332
v -0.913931 0.200000 -3.942477
v -0.913931 0.190000 -3.942477
v -0.923913 0.190000 -3.941836
v -0.923913 0.200000 -3.941836
v -1.015242 0.200000 -3.935972
v -1.085112 0.130000 -3.931489
v -1.085112 0.125585 -3.931489
v -1.078859 0.125586 -3.931890
v -1.078859 0.108912 -3.931890
v -1.085112 0.108912 -3.931489
v -1.085112 0.000000 -3.931489
v 0.632679 -0.000000 -6.200293
v 0.632679 0.170361 -6.200293
v 0.603420 0.200000 -6.193201
v 0.593655 0.200000 -6.190835
v 0.593655 0.190000 -6.190835
v 0.557880 0.190000 -6.182170
v 0.557881 0.200000 -6.182170
v -1.145317 0.200000 -5.773128
v -1.145317 0.190000 -5.773128
v -1.155046 0.190000 -5.770812
v -1.155046 0.200000 -5.770812
v -1.244064 0.200000 -5.749625
v -1.312169 0.130000 -5.733429
v -1.312169 0.125585 -5.733429
v -1.306074 0.125585 -5.734878
v -1.306074 0.108912 -5.734878
v -1.312169 0.108912 -5.733429
v -1.312169 0.000000 -5.733429
v -0.343170 -0.000000 -8.424998
v -0.343170 0.170361 -8.424998
v -0.365578 0.200000 -8.404825
v -0.373057 0.200000 -8.398094
v -0.373057 0.190000 -8.398094
v -0.400460 0.190000 -8.373433
v -0.400460 0.200000 -8.373433
v -1.709101 0.200000 -7.205192
v -1.709101 0.190000 -7.205192
v -1.716599 0.190000 -7.198551
v -1.716599 0.200000 -7.198551
v -1.785214 0.200000 -7.137806
v -1.837724 0.130000 -7.091354
v -1.837724 0.125586 -7.091354
v -1.833024 0.125585 -7.095511
v -1.833024 0.108912 -7.095511
v -1.837724 0.108912 -7.091354
v -1.837724 0.000000 -7.091354
v -2.492007 -0.000000 -9.611840
v -2.492007 0.170361 -9.611840
v -2.500427 0.200000 -9.582952
v -2.503239 0.200000 -9.573310
v -2.503239 0.190000 -9.573310
v -2.513540 0.190000 -9.537991
v -2.513540 0.200000 -9.537991
v -3.007174 0.200000 -7.858242
v -3.007174 0.190000 -7.858242
v -3.010012 0.190000 -7.848658
v -3.010012 0.200000 -7.848658
v -3.035990 0.200000 -7.760962
v -3.055876 0.130000 -7.693879
v -3.055876 0.125586 -7.693879
v -3.054096 0.125585 -7.699881
v -3.054096 0.108912 -7.699881
v -3.055876 0.108912 -7.693879
v -3.055876 0.000000 -7.693879
v -4.653106 -0.000000 -9.939053
v -4.653106 0.170361 -9.939053
v -4.655272 0.200000 -9.909024
v -4.655995 0.200000 -9.899003
v -4.655995 0.190000 -9.899003
v -4.658647 0.190000 -9.862289
v -4.658647 0.200000 -9.862289
v -4.786250 0.200000 -8.115277
v -4.786250 0.190000 -8.115277
v -4.786987 0.190000 -8.105303
v -4.786987 0.200000 -8.105303
v -4.793734 0.200000 -8.014044
v -4.798900 0.130000 -7.944228
v -4.798900 0.125585 -7.944228
v -4.798438 0.125585 -7.950477
v -4.798438 0.108912 -7.950477
v -4.798900 0.108912 -7.944228
v -4.798900 0.000000 -7.944228
v -6.702900 -0.000000 -10.000783
v -6.702899 0.170361 -10.000783
v -6.703343 0.200000 -9.970684
v -6.703490 0.200000 -9.960639
v -6.703490 0.190000 -9.960639
v -6.704032 0.190000 -9.923840
v -6.704032 0.200000 -9.923840
v -6.730103 0.200000 -8.172642
v -6.730103 0.190000 -8.172642
v -6.730252 0.190000 -8.162642
v -6.730252 0.200000 -8.162642
v -6.731632 0.200000 -8.071159
v -6.732687 0.130000 -8.001171
v -6.732687 0.125585 -8.001171
v -6.732592 0.125586 -8.007435
v -6.732592 0.108912 -8.007435
v -6.732687 0.108912 -8.001171
v -6.732687 0.000000 -8.001171
v -8.720026 -0.000000 -10.003160
v -8.720026 0.170361 -10.003160
v -8.719864 0.200000 -9.973058
v -8.719810 0.200000 -9.963010
v -8.719810 0.190000 -9.963010
v -8.719616 0.190000 -9.926206
v -8.719614 0.200000 -9.926206
v -8.710394 0.200000 -8.174711
v -8.710394 0.190000 -8.174711
v -8.710340 0.190000 -8.164711
v -8.710340 0.200000 -8.164711
v -8.709867 0.200000 -8.073210
v -8.709505 0.130000 -8.003211
v -8.709505 0.125585 -8.003211
v -8.709538 0.125585 -8.009476
v -8.709538 0.108912 -8.009476
v -8.709505 0.108912 -8.003211
v -8.709505 0.000000 -8.003211
v -10.864304 -0.000000 -9.996531
v -10.864304 0.170361 -9.996531
v -10.864067 0.200000 -9.966429
v -10.863987 0.200000 -9.956382
v -10.863987 0.190000 -9.956382
v -10.863701 0.190000 -9.919577
v -10.863701 0.200000 -9.919577
v -10.849962 0.200000 -8.168074
v -10.849962 0.190000 -8.168074
v -10.849884 0.190000 -8.158073
v -10.849884 0.200000 -8.158073
v -10.849167 0.200000 -8.066573
v -10.848618 0.130000 -7.996573
v -10.848618 0.125586 -7.996573
v -10.848665 0.125585 -8.002837
v -10.848665 0.108912 -8.002837
v -10.848618 0.108912 -7.996573
v -10.848618 0.000000 -7.996573
vt 0.000000 0.000000
vt 0.000000 0.000000
vt 0.000000 0.000000
vt 0.000000 0.000000
vt 0.000000 0.000000
vt 0.000000 0.000000
vt 0.000000 0.000000
vt 0.000000 0.000000
vt 0.000000 0.000000
vt 0.000000 0.000000
vt 0.000000 0.000000
vt 0.000000 0.000000
vt 0.000000 0.000000
vt 0.000000 0.000000
vt 0.000000 0.000000
vt 0.000000 0.000000
vt 0.000000 0.000000
vt 0.000000 0.000000
vt 0.000000 0.000000
vt 0.000000 0.000000
vt 0.000000 0.000000
vt 0.000000 0.000000
vt 0.000000 0.000000
vt 0.000000 0.000000
vt 0.000000 0.000000
vt 0.000000 0.000000
vt 0.000000 0.000000
vt 0.000000 0.000000
vt 0.000000 0.000000
vt 0.000000 0.000000
vt 0.000000 0.000000
vt 0.000000 0.000000
vt 0.000000 0.000000
vt 0.000000 0.000000
vt 0.000000 0.000000
vt 0.000000 0.000000
vt 0.000000 0.000000
vt 0.000000 0.000000
vt 0.000000 0.000000
vt 0.000000 0.000000
vt 0.000000 0.000000
vt 0.000000 0.000000
vt 0.000000 0.000000
vt 0.000000 0.000000
vt 0.000000 0.000000
vt 0.000000 0.000000
vt 0.000000 0.000000
vt 0.000000 0.000000
vt 0.000000 0.000000
vt 0.000000 0.000000
vt 0.000000 0.000000
vt 0.000000 0.000000
vt 0.000000 0.000000
vt 0.000000 0.000000
vt 0.000000 0.000000
vt 0.000000 0.000000
vt 0.000000 0.000000
vt 0.000000 0.000000
vt 0.000000 0.000000
vt 0.000000 0.000000
vt 0.000000 0.000000
vt 0.000000 0.000000
vt 0.000000 0.000000
vt 0.000000 0.000000
vt 0.000000 0.000000
vt 0.000000 0.000000
vt 0.000000 0.000000
vt 0.000000 0.000000
vt 0.000000 0.000000
vt 0.000000 0.000000
vt 0.000000 0.000000
vt 0.000000 0.000000
vt 0.000000 0.000000
vt 0.000000 0.000000
vt 0.000000 0.000000
vt 0.000000 0.000000
vt 0.000000 0.000000
vt 0.000000 0.000000
vt 0.000000 0.000000
vt 0.000000 0.000000
vt 0.000000 0.000000
vt 0.000000 0.000000
vt 0.000000 0.000000
vt 0.000000 0.000000
vt 0.000000 0.000000
vt 0.000000 0.000000
vt 0.000000 0.000000
vt 0.000000 0.000000
vt 0.000000 0.000000
vt 0.000000 0.000000
vt 0.000000 0.000000
vt 0.000000 0.000000
vt 0.000000 0.000000
vt 0.000000 0.000000
vt 0.000000 0.000000
vt 0.000000 0.000000
vt 0.000000 0.000000
vt 0.000000 0.000000
vt 0.000000 0.000000
vt 0.000000 0.000000
vt 0.000000 0.000000
vt 0.000000 0.000000
vt 0.000000 0.000000
vt 0.000000 0.000000
vt 0.000000 0.000000
vt 0.000000 0.000000
vt 0.000000 0.000000
vt 0.000000 0.000000
vt 0.000000 0.000000
vt 0.000000 0.000000
vt 0.000000 0.000000
vt 0.000000 0.000000
vt 0.000000 0.000000
vt 0.000000 0.000000
vt 0.000000 0.000000
vt 0.000000 0.000000
vt 0.000000 0.000000
vt 0.000000 0.000000
vt 0.000000 0.000000
vt 0.000000 0.000000
vt 0.000000 0.000000
vt 0.000000 0.000000
vt 0.000000 0.000000
vt 0.000000 0.000000
vt 0.000000 0.000000
vt 0.000000 0.000000
vt 0.000000 0.000000
vt 0.000000 0.000000
vt 0.000000 0.000000
vt 0.000000 0.000000
vt 0.000000 0.000000
vt 0.000000 0.000000
vt 0.000000 0.000000
vt 0.000000 0.000000
vt 0.000000 0.000000
vt 0.000000 0.000000
vt 0.000000 0.000000
vt 0.000000 0.000000
vt 0.000000 0.000000
vt 0.000000 0.000000
vt 0.000000 0.000000
vt 0.000000 0.000000
vt 0.000000 0.000000
vt 0.000000 0.000000
vt 0.000000 0.000000
vt 0.000000 0.000000
vt 0.000000 0.000000
vt 0.000000 0.000000
vt 0.000000 0.000000
vt 0.000000 0.000000
vt 0.000000 0.000000
vt 0.000000 0.000000
vt 0.000000 0.000000
vt 0.000000 0.000000
vt 0.000000 0.000000
vt 0.000000 0.000000
vt 0.000000 0.000000
vt 0.000000 0.000000
vt 0.000000 0.000000
vt 0.000000 0.000000
vt 0.000000 0.000000
vt 0.000000 0.000000
vt 0.000000 0.000000
vt 0.000000 0.000000
vt 0.000000 0.000000
vt 0.000000 0.000000
vt 0.000000 0.000000
vt 0.000000 0.000000
vt 0.000000 0.000000
vt 0.000000 0.000000
vt 0.000000 0.000000
vt 0.000000 0.000000
vt 0.000000 0.000000
vt 0.000000 0.000000
vt 0.000000 0.000000
vt 0.000000 0.000000
vt 0.000000 0.000000
vt 0.000000 0.000000
vt 0.000000 0.000000
vt 0.000000 0.000000
vn -0.0000 1.0000 -0.0000
vn -0.9999 -0.0000 0.0125
vn -0.7071 0.7071 0.0089
vn -0.9999 0.0000 0.0126
vn 0.9999 0.0000 -0.0125
vn 0.0000 -1.0000 0.0000
vn 0.7016 0.7125 -0.0088
vn 0.9999 0.0000 -0.0126
vn -0.9995 -0.0000 0.0311
vn -0.7068 0.7070 0.0218
vn -0.9995 0.0000 0.0308
vn 0.9995 0.0000 -0.0311
vn 0.7013 0.7125 -0.0219
vn 0.9995 0.0000 -0.0308
vn -0.9917 0.0000 0.1289
vn -0.7029 0.7058 0.0886
vn -0.9922 0.0000 0.1250
vn 0.9917 -0.0000 -0.1289
vn -0.9921 -0.0000 0.1254
vn 0.9916 0.0000 -0.1290
vn 0.6971 0.7112 -0.0907
vn 0.9921 0.0000 -0.1254
vn -0.9160 -0.0000 0.4012
vn -0.6707 0.6944 0.2605
vn -0.9326 0.0000 0.3609
vn 0.9162 -0.0000 -0.4007
vn -0.9325 0.0000 0.3611
vn -0.9305 -0.0000 0.3663
vn 0.9158 0.0000 -0.4017
vn 0.6532 0.7010 -0.2863
vn 0.9306 0.0000 -0.3660
vn -0.4831 0.0000 0.8756
vn -0.3214 0.6911 0.6473
vn -0.4434 0.0000 0.8963
vn 0.4827 0.0000 -0.8758
vn -0.4436 0.0000 0.8962
vn -0.4494 0.0000 0.8933
vn 0.4835 0.0000 -0.8754
vn 0.3459 0.6984 -0.6265
vn 0.4491 0.0000 -0.8935
vn -0.1496 0.0000 0.9887
vn -0.1010 0.7048 0.7022
vn -0.1422 0.0000 0.9898
vn 0.1495 0.0000 -0.9888
vn -0.1430 0.0000 0.9897
vn 0.1497 0.0000 -0.9887
vn 0.1053 0.7104 -0.6959
vn 0.1429 0.0000 -0.9897
vn -0.0301 0.0000 0.9995
vn -0.0208 0.7069 0.7070
vn -0.0294 0.0000 0.9996
vn 0.0301 0.0000 -0.9995
vn -0.0295 0.0000 0.9996
vn 0.0211 0.7124 -0.7014
vn 0.0295 0.0000 -0.9996
vn -0.0012 0.0000 1.0000
vn -0.0007 0.7071 0.7071
vn -0.0010 0.0000 1.0000
vn 0.0012 -0.0000 -1.0000
vn 0.0008 0.7126 -0.7016
vn 0.0010 0.0000 -1.0000
vn 0.0031 0.0000 1.0000
vn 0.0022 0.7071 0.7071
vn -0.0031 0.0000 -1.0000
vn -0.0022 0.7126 -0.7016
usemtl None
s off
f 12/1/1 11/2/1 29/3/1 30/4/1
f 5/5/2 4/6/2 22/7/2 23/8/2
f 13/9/3 12/1/3 30/4/3 31/10/3
f 6/11/1 5/5/1 23/8/1 24/12/1
f 14/13/4 13/9/4 31/10/4 32/14/4
f 7/15/5 6/11/5 24/12/5 25/16/5
f 15/17/6 14/13/6 32/14/6 33/18/6
f 8/19/1 7/15/1 25/16/1 26/20/1
f 16/21/4 15/17/4 33/18/4 34/22/4
f 9/23/4 8/19/4 26/20/4 27/24/4
f 2/25/5 1/26/5 19/27/5 20/28/5
f 17/29/1 16/21/1 34/22/1 35/30/1
f 10/31/1 9/23/1 27/24/1 28/32/1
f 3/33/7 2/25/7 20/28/7 21/34/7
f 18/35/4 17/29/4 35/30/4 36/36/4
f 11/2/8 10/31/8 28/32/8 29/3/8
f 4/6/1 3/33/1 21/34/1 22/7/1
f 30/4/1 29/3/1 47/37/1 48/38/1
f 23/8/9 22/7/9 40/39/9 41/40/9
f 31/10/10 30/4/10 48/38/10 49/41/10
f 24/12/1 23/8/1 41/40/1 42/42/1
f 32/14/11 31/10/11 49/41/11 50/43/11
f 25/16/12 24/12/12 42/42/12 43/44/12
f 33/18/6 32/14/6 50/43/6 51/45/6
f 26/20/1 25/16/1 43/44/1 44/46/1
f 34/22/11 33/18/11 51/45/11 52/47/11
f 27/24/11 26/20/11 44/46/11 45/48/11
f 20/28/12 19/27/12 37/49/12 38/50/12
f 35/30/1 34/22/1 52/47/1 53/51/1
f 28/32/1 27/24/1 45/48/1 46/52/1
f 21/34/13 20/28/13 38/50/13 39/53/13
f 36/36/11 35/30/11 53/51/11 54/54/11
f 29/3/14 28/32/14 46/52/14 47/37/14
f 22/7/1 21/34/1 39/53/1 40/39/1
f 48/38/1 47/37/1 65/55/1 66/56/1
f 41/40/15 40/39/15 58/57/15 59/58/15
f 49/41/16 48/38/16 66/56/16 67/59/16
f 42/42/1 41/40/1 59/58/1 60/60/1
f 50/43/17 49/41/17 67/59/17 68/61/17
f 43/44/18 42/42/18 60/60/18 61/62/18
f 51/45/6 50/43/6 68/61/6 69/63/6
f 44/46/1 43/44/1 61/62/1 62/64/1
f 52/47/17 51/45/17 69/63/17 70/65/17
f 45/48/19 44/46/19 62/64/19 63/66/19
f 38/50/20 37/49/20 55/67/20 56/68/20
f 53/51/1 52/47/1 70/65/1 71/69/1
f 46/52/1 45/48/1 63/66/1 64/70/1
f 39/53/21 38/50/21 56/68/21 57/71/21
f 54/54/17 53/51/17 71/69/17 72/72/17
f 47/37/22 46/52/22 64/70/22 65/55/22
f 40/39/1 39/53/1 57/71/1 58/57/1
f 66/56/1 65/55/1 83/73/1 84/74/1
f 59/58/23 58/57/23 76/75/23 77/76/23
f 67/59/24 66/56/24 84/74/24 85/77/24
f 60/60/1 59/58/1 77/76/1 78/78/1
f 68/61/25 67/59/25 85/77/25 86/79/25
f 61/62/26 60/60/26 78/78/26 79/80/26
f 69/63/6 68/61/6 86/79/6 87/81/6
f 62/64/1 61/62/1 79/80/1 80/82/1
f 70/65/27 69/63/27 87/81/27 88/83/27
f 63/66/28 62/64/28 80/82/28 81/84/28
f 56/68/29 55/67/29 73/85/29 74/86/29
f 71/69/1 70/65/1 88/83/1 89/87/1
f 64/70/1 63/66/1 81/84/1 82/88/1
f 57/71/30 56/68/30 74/86/30 75/89/30
f 72/72/25 71/69/25 89/87/25 90/90/25
f 65/55/31 64/70/31 82/88/31 83/73/31
f 58/57/1 57/71/1 75/89/1 76/75/1
f 84/74/1 83/73/1 101/91/1 102/92/1
f 77/76/32 76/75/32 94/93/32 95/94/32
f 85/77/33 84/74/33 102/92/33 103/95/33
f 78/78/1 77/76/1 95/94/1 96/96/1
f 86/79/34 85/77/34 103/95/34 104/97/34
f 79/80/35 78/78/35 96/96/35 97/98/35
f 87/81/6 86/79/6 104/97/6 105/99/6
f 80/82/1 79/80/1 97/98/1 98/100/1
f 88/83/36 87/81/36 105/99/36 106/101/36
f 81/84/37 80/82/37 98/100/37 99/102/37
f 74/86/38 73/85/38 91/103/38 92/104/38
f 89/87/1 88/83/1 106/101/1 107/105/1
f 82/88/1 81/84/1 99/102/1 100/106/1
f 75/89/39 74/86/39 92/104/39 93/107/39
f 90/90/34 89/87/34 107/105/34 108/108/34
f 83/73/40 82/88/40 100/106/40 101/91/40
f 76/75/1 75/89/1 93/107/1 94/93/1
f 102/92/1 101/91/1 119/109/1 120/110/1
f 95/94/41 94/93/41 112/111/41 113/112/41
f 103/95/42 102/92/42 120/110/42 121/113/42
f 96/96/1 95/94/1 113/112/1 114/114/1
f 104/97/43 103/95/43 121/113/43 122/115/43
f 97/98/44 96/96/44 114/114/44 115/116/44
f 105/99/6 104/97/6 122/115/6 123/117/6
f 98/100/1 97/98/1 115/116/1 116/118/1
f 106/101/43 105/99/43 123/117/43 124/119/43
f 99/102/45 98/100/45 116/118/45 117/120/45
f 92/104/46 91/103/46 109/121/46 110/122/46
f 107/105/1 106/101/1 124/119/1 125/123/1
f 100/106/1 99/102/1 117/120/1 118/124/1
f 93/107/47 92/104/47 110/122/47 111/125/47
f 108/108/43 107/105/43 125/123/43 126/126/43
f 101/91/48 100/106/48 118/124/48 119/109/48
f 94/93/1 93/107/1 111/125/1 112/111/1
f 120/110/1 119/109/1 137/127/1 138/128/1
f 113/112/49 112/111/49 130/129/49 131/130/49
f 121/113/50 120/110/50 138/128/50 139/131/50
f 114/114/1 113/112/1 131/130/1 132/132/1
f 122/115/51 121/113/51 139/131/51 140/133/51
f 115/116/52 114/114/52 132/132/52 133/134/52
f 123/117/6 122/115/6 140/133/6 141/135/6
f 116/118/1 115/116/1 133/134/1 134/136/1
f 124/119/51 123/117/51 141/135/51 142/137/51
f 117/120/53 116/118/53 134/136/53 135/138/53
f 110/122/52 109/121/52 127/139/52 128/140/52
f 125/123/1 124/119/1 142/137/1 143/141/1
f 118/124/1 117/120/1 135/138/1 136/142/1
f 111/125/54 110/122/54 128/140/54 129/143/54
f 126/126/51 125/123/51 143/141/51 144/144/51
f 119/109/55 118/124/55 136/142/55 137/127/55
f 112/111/1 111/125/1 129/143/1 130/129/1
f 138/128/1 137/127/1 155/145/1 156/146/1
f 131/130/56 130/129/56 148/147/56 149/148/56
f 139/131/57 138/128/57 156/146/57 157/149/57
f 132/132/1 131/130/1 149/148/1 150/150/1
f 140/133/58 139/131/58 157/149/58 158/151/58
f 133/134/59 132/132/59 150/150/59 151/152/59
f 141/135/6 140/133/6 158/151/6 159/153/6
f 134/136/1 133/134/1 151/152/1 152/154/1
f 142/137/58 141/135/58 159/153/58 160/155/58
f 135/138/58 134/136/58 152/154/58 153/156/58
f 128/140/59 127/139/59 145/157/59 146/158/59
f 143/141/1 142/137/1 160/155/1 161/159/1
f 136/142/1 135/138/1 153/156/1 154/160/1
f 129/143/60 128/140/60 146/158/60 147/161/60
f 144/144/58 143/141/58 161/159/58 162/162/58
f 137/127/61 136/142/61 154/160/61 155/145/61
f 130/129/1 129/143/1 147/161/1 148/147/1
f 156/146/1 155/145/1 173/163/1 174/164/1
f 149/148/62 148/147/62 166/165/62 167/166/62
f 157/149/63 156/146/63 174/164/63 175/167/63
f 150/150/1 149/148/1 167/166/1 168/168/1
f 158/151/62 157/149/62 175/167/62 176/169/62
f 151/152/64 150/150/64 168/168/64 169/170/64
f 159/153/6 158/151/6 176/169/6 177/171/6
f 152/154/1 151/152/1 169/170/1 170/172/1
f 160/155/62 159/153/62 177/171/62 178/173/62
f 153/156/62 152/154/62 170/172/62 171/174/62
f 146/158/64 145/157/64 163/175/64 164/176/64
f 161/159/1 160/155/1 178/173/1 179/177/1
f 154/160/1 153/156/1 171/174/1 172/178/1
f 147/161/65 146/158/65 164/176/65 165/179/65
f 162/162/62 161/159/62 179/177/62 180/180/62
f 155/145/64 154/160/64 172/178/64 173/163/64
f 148/147/1 147/161/1 165/179/1 166/165/1
