# Blender v2.91.2 OBJ File: 'SidewalkTest.blend'
# www.blender.org
mtllib SidewalkCornerStraight.mtl
o SidewalkCornerStraight_PavementSquare.008
v -1.000458 -0.000000 1.006716
v -1.000458 0.170361 1.006716
v -1.000458 0.200000 0.976614
v -1.000458 0.200000 0.966567
v -1.000458 0.190000 0.966567
v -1.000458 0.190000 0.929761
v -1.000458 0.200000 0.929761
v -1.000458 0.200000 -0.821736
v -1.000458 0.190000 -0.821736
v -1.000458 0.190000 -0.831737
v -1.000458 0.200000 -0.831737
v -1.000458 0.200000 -0.923237
v -1.000458 0.130000 -0.993237
v -1.000458 0.125585 -0.993237
v -1.000458 0.125585 -0.986972
v -1.000458 0.108912 -0.986972
v -1.000458 0.108912 -0.993237
v -0.994193 0.108912 -0.986972
v 0.999542 -0.000000 -0.993237
v 0.968903 0.200000 -0.993237
v 0.958861 0.200000 -0.993237
v 0.958861 0.190000 -0.993237
v 0.922073 0.190000 -0.993237
v 0.922073 0.200000 -0.993237
v -0.828506 0.200000 -0.993237
v -0.828506 0.190000 -0.993237
v -0.838501 0.190000 -0.993237
v -0.838501 0.200000 -0.993237
v -0.929951 0.200000 -0.993237
v -0.994193 0.125585 -0.993237
v -0.994193 0.108912 -0.993237
v 0.999542 0.170361 -0.993237
v 0.969261 0.200000 0.964517
v 0.999453 -0.000000 0.964517
v 0.949452 -0.000000 1.014322
v 0.949452 0.170361 1.014322
v 0.999453 0.170361 0.964517
v 0.949451 0.200000 0.984218
v 0.959303 0.200000 0.964517
v 0.949451 0.200000 0.974172
v 0.949451 0.190000 0.974172
v 0.959303 0.190000 0.964517
v 0.922499 0.190000 0.916630
v 0.908705 0.190000 0.929762
v 0.908705 0.200000 0.929762
v 0.922499 0.200000 0.916630
v -0.878920 0.190000 -0.821792
v -0.828920 0.190000 -0.871815
v -0.838919 0.190000 -0.881815
v -0.888919 0.190000 -0.831791
v -0.828920 0.200000 -0.871815
v -0.878920 0.200000 -0.821792
v -0.888919 0.200000 -0.831791
v -0.838919 0.200000 -0.881815
v -0.994193 0.125585 -0.986972
vt 0.383804 0.065953
vt 0.324944 0.018488
vt 0.326140 0.016951
vt 0.384901 0.064621
vt 0.239832 0.015824
vt 0.239764 0.007815
vt 0.325118 0.007812
vt 0.322457 0.015643
vt 0.328897 0.009285
vt 0.389259 0.059369
vt 0.239839 0.017702
vt 0.322764 0.017641
vt 0.383067 0.066864
vt 0.324214 0.019023
vt 0.239835 0.018989
vt 0.323018 0.018499
vt 0.323588 0.019868
vt 0.322813 0.019456
vt 0.239836 0.020637
vt 0.382321 0.067767
vt 0.337240 0.105891
vt 0.335970 0.106108
vt 0.321293 0.023710
vt 0.322023 0.023170
vt 0.320294 0.022989
vt 0.320701 0.022048
vt 0.239845 0.022016
vt 0.239857 0.023265
vt 0.338639 0.105646
vt 0.247545 0.112435
vt 0.241245 0.111667
vt 0.241302 0.111195
vt 0.247778 0.111913
vt 0.251942 0.120088
vt 0.250099 0.114570
vt 0.250497 0.114307
vt 0.252458 0.119910
vt 0.249766 0.115102
vt 0.251530 0.120226
vt 0.251011 0.120402
vt 0.249384 0.115368
vt 0.241185 0.112136
vt 0.247008 0.112931
vt 0.246789 0.113436
vt 0.241121 0.112603
vt 0.240258 0.123850
vt 0.241099 0.118040
vt 0.245734 0.121677
vt 0.008789 0.008425
vt 0.008495 0.008477
vt 0.008397 0.008816
vt 0.008788 0.008816
vt 0.008107 0.008154
vt 0.007813 0.008206
vt 0.007814 0.007815
vt 0.008205 0.007815
vn 0.6979 0.7162 -0.0000
vn -0.0039 0.0000 1.0000
vn 0.7057 0.0000 0.7085
vn 1.0000 -0.0000 0.0000
vn -0.0027 0.7126 0.7016
vn 0.5728 0.5839 0.5753
vn -0.0000 1.0000 0.0000
vn -0.6999 0.0000 -0.7142
vn 0.0039 0.0000 -1.0000
vn -1.0000 0.0000 0.0002
vn 1.0000 0.0000 -0.0002
vn 0.6895 0.0000 0.7243
vn -0.0000 0.0000 1.0000
vn -0.0005 -0.0000 -1.0000
vn -1.0000 -0.0000 -0.0034
vn 1.0000 0.0000 0.0038
vn 0.0005 0.0000 1.0000
vn -0.5746 0.5787 -0.5787
vn -0.7073 0.0000 -0.7069
vn 0.7073 0.0000 0.7069
vn -1.0000 0.0000 0.0000
vn 0.0000 -0.0000 -1.0000
usemtl None
s off
f 20/1/1 33/2/1 37/3/1 32/4/1
f 2/5/2 1/6/2 35/7/2 36/8/2
f 34/9/3 37/3/3 36/8/3 35/7/3
f 37/3/4 34/9/4 19/10/4 32/4/4
f 3/11/5 2/5/5 36/8/5 38/12/5
f 33/2/6 38/12/6 36/8/6 37/3/6
f 21/13/7 39/14/7 33/2/7 20/1/7
f 4/15/7 3/11/7 38/12/7 40/16/7
f 40/16/7 38/12/7 33/2/7 39/14/7
f 40/16/8 39/14/8 42/17/8 41/18/8
f 40/16/9 41/18/9 5/19/9 4/15/9
f 42/17/10 39/14/10 21/13/10 22/20/10
f 23/21/11 24/22/11 46/23/11 43/24/11
f 43/24/12 46/23/12 45/25/12 44/26/12
f 6/27/13 44/26/13 45/25/13 7/28/13
f 43/24/7 44/26/7 41/18/7 42/17/7
f 44/26/7 6/27/7 5/19/7 41/18/7
f 43/24/7 42/17/7 22/29/7 23/21/7
f 47/30/14 9/31/14 8/32/14 52/33/14
f 26/34/15 48/35/15 51/36/15 25/37/15
f 49/38/16 27/39/16 28/40/16 54/41/16
f 27/39/7 49/38/7 48/35/7 26/34/7
f 10/42/17 50/43/17 53/44/17 11/45/17
f 13/46/18 12/47/18 29/48/18
f 50/43/7 10/42/7 9/31/7 47/30/7
f 47/30/19 52/33/19 51/36/19 48/35/19
f 53/44/20 50/43/20 49/38/20 54/41/20
f 49/38/7 50/43/7 47/30/7 48/35/7
f 54/41/7 29/48/7 12/47/7 53/44/7
f 54/41/7 28/40/7 29/48/7
f 11/45/7 53/44/7 12/47/7
f 51/36/7 52/33/7 45/25/7 46/23/7
f 51/36/7 46/23/7 24/22/7 25/37/7
f 52/33/7 8/32/7 7/28/7 45/25/7
f 16/49/7 18/50/7 31/51/7 17/52/7
f 55/53/7 30/54/7 14/55/7 15/56/7
f 18/50/21 55/53/21 30/54/21 31/51/21
f 55/53/22 18/50/22 16/49/22 15/56/22
